0 Converted
0 Author: [USERNAME]
0 Converted with https://mb-converter.netlify.app made by The_An0nym using the conversion files from Mecabricks.
1 0 310.2094 -444.5953 275.3719 -1 -0.00774 -0.02343 0.02207 -0.70536 -0.7085 -0.01104 -0.70881 0.70531 11090.dat
1 15 300 -480 240 0 -1 0 0 0 -1 1 0 0 15535.dat
1 72 290 -480 190 0 0 -1 0 1 0 1 0 0 18653.dat
1 72 290 -480 290 0 0 1 0 1 0 -1 0 0 18653.dat
1 15 300 -490 230 0 -1 0 0 0 1 -1 0 0 27925.dat
1 15 300 -490 250 0 -1 0 -1 0 0 0 0 -1 27925.dat
1 15 300 -470 230 0 -1 0 1 0 0 0 0 1 27925.dat
1 15 300 -470 250 0 -1 0 0 0 -1 1 0 0 27925.dat
1 0 300 -480 240 0 1 0 -1 0 0 0 0 1 32828.dat
1 0 308.0024 -479.8234 239.9118 0.00775 1 0.02344 0.70537 -0.02208 0.7085 0.7088 0.01104 -0.70532 32828.dat
1 72 292 -480 240 0 -1 0 0 0 -1 1 0 0 60474.dat
1 0 255.3719 -444.5953 149.7906 -0.01103 -0.70881 0.70531 0.02207 -0.70536 -0.70851 1 0.00775 0.02343 11090.dat
1 15 220 -480 160 1 0 0 0 0 -1 0 1 0 15535.dat
1 72 270 -480 170 -1 0 0 0 1 0 0 0 -1 18653.dat
1 72 170 -480 170 1 0 0 0 1 0 0 0 1 18653.dat
1 15 210 -470 160 0 0 1 1 0 0 0 1 0 27925.dat
1 15 210 -490 160 -1 0 0 0 0 1 0 1 0 27925.dat
1 15 230 -490 160 0 0 -1 -1 0 0 0 1 0 27925.dat
1 15 230 -470 160 1 0 0 0 0 -1 0 1 0 27925.dat
1 0 219.9118 -479.8234 151.9976 0.70881 0.01104 -0.70532 0.70537 -0.02208 0.7085 -0.00775 -1 -0.02343 32828.dat
1 0 220 -480 160 0 0 1 -1 0 0 0 -1 0 32828.dat
1 72 220 -480 168 1 0 0 0 0 -1 0 1 0 60474.dat
1 0 184.6281 -444.5953 330.2094 0.01103 0.70881 -0.70531 0.02207 -0.70536 -0.70851 -1 -0.00775 -0.02343 11090.dat
1 15 220 -480 320 -1 0 0 0 0 -1 0 -1 0 15535.dat
1 72 170 -480 310 1 0 0 0 1 0 0 0 1 18653.dat
1 72 270 -480 310 -1 0 0 0 1 0 0 0 -1 18653.dat
1 15 230 -470 320 0 0 -1 1 0 0 0 -1 0 27925.dat
1 15 230 -490 320 1 0 0 0 0 1 0 -1 0 27925.dat
1 15 210 -490 320 0 0 1 -1 0 0 0 -1 0 27925.dat
1 15 210 -470 320 -1 0 0 0 0 -1 0 -1 0 27925.dat
1 0 220.0882 -479.8234 328.0024 -0.7088 -0.01104 0.70532 0.70537 -0.02208 0.7085 0.00775 1 0.02344 32828.dat
1 0 220 -480 320 0 0 -1 -1 0 0 0 1 0 32828.dat
1 72 220 -480 312 -1 0 0 0 0 -1 0 -1 0 60474.dat
1 0 129.7906 -444.5953 204.6281 1 0.00774 0.02343 0.02207 -0.70536 -0.7085 0.01104 0.70881 -0.70531 11090.dat
1 15 140 -480 240 0 1 0 0 0 -1 -1 0 0 15535.dat
1 72 150 -480 190 0 0 -1 0 1 0 1 0 0 18653.dat
1 72 150 -480 290 0 0 1 0 1 0 -1 0 0 18653.dat
1 15 140 -470 250 0 1 0 1 0 0 0 0 -1 27925.dat
1 15 140 -490 250 0 1 0 0 0 1 1 0 0 27925.dat
1 15 140 -490 230 0 1 0 -1 0 0 0 0 1 27925.dat
1 15 140 -470 230 0 1 0 0 0 -1 -1 0 0 27925.dat
1 0 131.9976 -479.8233 240.0882 -0.00776 -1 -0.02344 0.70537 -0.02209 0.7085 -0.7088 -0.01104 0.70533 32828.dat
1 0 140 -480 240 0 -1 0 -1 0 0 0 0 -1 32828.dat
1 72 148 -480 240 0 1 0 0 0 -1 -1 0 0 60474.dat
1 19 308 -564 200 0 -1 0 1 0 0 0 0 1 1126.dat
1 19 308 -564 240 0 -1 0 1 0 0 0 0 1 1126.dat
1 19 308 -564 280 0 -1 0 1 0 0 0 0 1 1126.dat
1 19 290 -528 240 0 0 -1 0 1 0 1 0 0 15254.dat
1 72 290 -544 200 0 0 -1 0 1 0 1 0 0 15573.dat
1 72 290 -544 240 0 0 -1 0 1 0 1 0 0 15573.dat
1 72 290 -544 280 0 0 -1 0 1 0 1 0 0 15573.dat
1 72 290 -560 200 0 0 -1 0 1 0 1 0 0 3386.dat
1 72 290 -560 240 0 0 -1 0 1 0 1 0 0 3386.dat
1 72 290 -560 280 0 0 -1 0 1 0 1 0 0 3386.dat
1 72 290 -584 240 0 0 -1 0 1 0 1 0 0 38583.dat
1 72 290 -584 280 0 0 -1 0 1 0 1 0 0 38583.dat
1 72 290 -584 200 0 0 -1 0 1 0 1 0 0 38583.dat
1 19 220 -564 152 0 0 1 1 0 0 0 1 0 1126.dat
1 19 260 -564 152 0 0 1 1 0 0 0 1 0 1126.dat
1 19 180 -564 152 0 0 1 1 0 0 0 1 0 1126.dat
1 19 220 -528 170 1 0 0 0 1 0 0 0 1 15254.dat
1 72 180 -544 170 1 0 0 0 1 0 0 0 1 15573.dat
1 72 220 -544 170 1 0 0 0 1 0 0 0 1 15573.dat
1 72 260 -544 170 1 0 0 0 1 0 0 0 1 15573.dat
1 72 260 -560 170 1 0 0 0 1 0 0 0 1 3386.dat
1 72 220 -560 170 1 0 0 0 1 0 0 0 1 3386.dat
1 72 180 -560 170 1 0 0 0 1 0 0 0 1 3386.dat
1 72 180 -584 170 1 0 0 0 1 0 0 0 1 38583.dat
1 72 220 -584 170 1 0 0 0 1 0 0 0 1 38583.dat
1 72 260 -584 170 1 0 0 0 1 0 0 0 1 38583.dat
1 72 132 -564 240 0 1 0 1 0 0 0 0 -1 1126.dat
1 72 132 -564 200 0 1 0 1 0 0 0 0 -1 1126.dat
1 72 132 -564 280 0 1 0 1 0 0 0 0 -1 1126.dat
1 72 150 -528 240 0 0 1 0 1 0 -1 0 0 15254.dat
1 72 150 -544 280 0 0 1 0 1 0 -1 0 0 15573.dat
1 72 150 -544 240 0 0 1 0 1 0 -1 0 0 15573.dat
1 72 150 -544 200 0 0 1 0 1 0 -1 0 0 15573.dat
1 72 150 -560 200 0 0 1 0 1 0 -1 0 0 3386.dat
1 72 150 -560 240 0 0 1 0 1 0 -1 0 0 3386.dat
1 72 150 -560 280 0 0 1 0 1 0 -1 0 0 3386.dat
1 72 150 -584 280 0 0 1 0 1 0 -1 0 0 38583.dat
1 72 150 -584 240 0 0 1 0 1 0 -1 0 0 38583.dat
1 72 150 -584 200 0 0 1 0 1 0 -1 0 0 38583.dat
1 72 220 -564 328 0 0 -1 1 0 0 0 -1 0 1126.dat
1 72 180 -564 328 0 0 -1 1 0 0 0 -1 0 1126.dat
1 19 260 -564 328 0 0 -1 1 0 0 0 -1 0 1126.dat
1 72 220 -528 310 -1 0 0 0 1 0 0 0 -1 15254.dat
1 72 260 -544 310 -1 0 0 0 1 0 0 0 -1 15573.dat
1 72 220 -544 310 -1 0 0 0 1 0 0 0 -1 15573.dat
1 72 180 -544 310 -1 0 0 0 1 0 0 0 -1 15573.dat
1 72 180 -560 310 -1 0 0 0 1 0 0 0 -1 3386.dat
1 72 220 -560 310 -1 0 0 0 1 0 0 0 -1 3386.dat
1 72 260 -560 310 -1 0 0 0 1 0 0 0 -1 3386.dat
1 72 260 -584 310 -1 0 0 0 1 0 0 0 -1 38583.dat
1 72 220 -584 310 -1 0 0 0 1 0 0 0 -1 38583.dat
1 72 180 -584 310 -1 0 0 0 1 0 0 0 -1 38583.dat
1 378 290 -600 170 1 0 0 0 1 0 0 0 1 2450.dat
1 72 308.8389 -608 151.1612 -0.70711 0 -0.70711 0 1 0 0.70711 0 -0.70711 3005.dat
1 72 301.7678 -656 158.2322 0.70711 0 -0.70711 0 1 0 0.70711 0 0.70711 3044.dat
1 72 294.6967 -592 165.3033 -0.70711 0 -0.70711 0 1 0 0.70711 0 -0.70711 3070b.dat
1 378 300 -608 160 0 0 1 0 1 0 -1 0 0 35787.dat
1 19 220 -592 170 1 0 0 0 1 0 0 0 1 3666.dat
1 72 301.7678 -584 158.2323 -0.70711 0 -0.70711 0 1 0 0.70711 0 -0.70711 98283.dat
1 72 301.7678 -632 158.2323 -0.70711 0 -0.70711 0 1 0 0.70711 0 -0.70711 98283.dat
1 378 290 -600 310 0 0 -1 0 1 0 1 0 0 2450.dat
1 72 308.8388 -608 328.8389 -0.70711 0 0.70711 0 1 0 -0.70711 0 -0.70711 3005.dat
1 72 301.7678 -656 321.7678 -0.70711 0 -0.70711 0 1 0 0.70711 0 -0.70711 3044.dat
1 72 294.6967 -592 314.6967 -0.70711 0 0.70711 0 1 0 -0.70711 0 -0.70711 3070b.dat
1 378 300 -608 320 1 0 0 0 1 0 0 0 1 35787.dat
1 72 290 -592 240 0 0 -1 0 1 0 1 0 0 3666.dat
1 72 301.7678 -584 321.7677 0.70711 0 -0.70711 0 1 0 0.70711 0 0.70711 98283.dat
1 72 301.7677 -632 321.7678 -0.70711 0 0.70711 0 1 0 -0.70711 0 -0.70711 98283.dat
1 378 150 -600 310 -1 0 0 0 1 0 0 0 -1 2450.dat
1 72 131.1611 -608 328.8388 0.70711 0 0.70711 0 1 0 -0.70711 0 0.70711 3005.dat
1 72 138.2322 -656 321.7678 -0.70711 0 0.70711 0 1 0 -0.70711 0 -0.70711 3044.dat
1 72 145.3033 -592 314.6967 0.70711 0 0.70711 0 1 0 -0.70711 0 0.70711 3070b.dat
1 378 140 -608 320 0 0 -1 0 1 0 1 0 0 35787.dat
1 72 220 -592 310 -1 0 0 0 1 0 0 0 -1 3666.dat
1 72 138.2322 -584 321.7677 0.70711 0 0.70711 0 1 0 -0.70711 0 0.70711 98283.dat
1 72 138.2323 -632 321.7678 -0.70711 0 -0.70711 0 1 0 0.70711 0 -0.70711 98283.dat
1 378 150 -600 170 0 0 1 0 1 0 -1 0 0 2450.dat
1 72 131.1612 -608 151.1611 0.70711 0 -0.70711 0 1 0 0.70711 0 0.70711 3005.dat
1 72 138.2322 -656 158.2322 0.70711 0 0.70711 0 1 0 -0.70711 0 0.70711 3044.dat
1 72 145.3033 -592 165.3033 0.70711 0 -0.70711 0 1 0 0.70711 0 0.70711 3070b.dat
1 378 140 -608 160 -1 0 0 0 1 0 0 0 -1 35787.dat
1 19 150 -592 240 0 0 1 0 1 0 -1 0 0 3666.dat
1 72 138.2322 -584 158.2323 -0.70711 0 0.70711 0 1 0 -0.70711 0 -0.70711 98283.dat
1 72 138.2323 -632 158.2322 0.70711 0 -0.70711 0 1 0 0.70711 0 0.70711 98283.dat
1 72 324.3952 -562 344.3952 -0.70711 -0.70711 0 0 0 -1 0.70711 -0.70711 0 3024.dat
1 72 352.6796 -562 372.6796 0.70711 -0.70711 0 0 0 1 -0.70711 -0.70711 0 32952.dat
1 72 338.5373 -580 358.5373 -0.707107 0 -0.707107 0 1 0 0.707107 0 -0.707107 22385.dat
1 72 308.8389 -560 328.8389 -0.70711 0 -0.70711 0 1 0 0.70711 0 -0.70711 36840.dat
1 72 220 -168 170 1 0 0 0 1 0 0 0 1 86876.dat
1 72 220 -240 170 1 0 0 0 1 0 0 0 1 11211.dat
1 72 52 -306 240 0 1 0 0 0 -1 -1 0 0 11212.dat
1 19 150 -48 260 0 0 1 0 1 0 -1 0 0 15533.dat
1 19 240 -48 310 -1 0 0 0 1 0 0 0 -1 15533.dat
1 19 200 -312 170 1 0 0 0 1 0 0 0 1 15533.dat
1 19 150 -72 220 0 0 1 0 1 0 -1 0 0 15533.dat
1 19 200 -72 310 -1 0 0 0 1 0 0 0 -1 15533.dat
1 19 150 -96 260 0 0 1 0 1 0 -1 0 0 15533.dat
1 19 240 -96 310 -1 0 0 0 1 0 0 0 -1 15533.dat
1 19 200 -312 310 -1 0 0 0 1 0 0 0 -1 15533.dat
1 19 150 -120 220 0 0 1 0 1 0 -1 0 0 15533.dat
1 19 200 -120 310 -1 0 0 0 1 0 0 0 -1 15533.dat
1 19 240 -336 170 1 0 0 0 1 0 0 0 1 15533.dat
1 19 150 -144 260 0 0 1 0 1 0 -1 0 0 15533.dat
1 19 240 -144 310 -1 0 0 0 1 0 0 0 -1 15533.dat
1 19 150 -168 220 0 0 1 0 1 0 -1 0 0 15533.dat
1 19 200 -168 310 -1 0 0 0 1 0 0 0 -1 15533.dat
1 19 240 -336 310 -1 0 0 0 1 0 0 0 -1 15533.dat
1 19 200 -192 170 1 0 0 0 1 0 0 0 1 15533.dat
1 19 150 -192 260 0 0 1 0 1 0 -1 0 0 15533.dat
1 19 240 -192 310 -1 0 0 0 1 0 0 0 -1 15533.dat
1 19 240 -216 170 1 0 0 0 1 0 0 0 1 15533.dat
1 19 150 -216 220 0 0 1 0 1 0 -1 0 0 15533.dat
1 19 200 -216 310 -1 0 0 0 1 0 0 0 -1 15533.dat
1 19 150 -240 260 0 0 1 0 1 0 -1 0 0 15533.dat
1 19 240 -240 310 -1 0 0 0 1 0 0 0 -1 15533.dat
1 19 150 -264 220 0 0 1 0 1 0 -1 0 0 15533.dat
1 19 200 -264 310 -1 0 0 0 1 0 0 0 -1 15533.dat
1 19 150 -288 260 0 0 1 0 1 0 -1 0 0 15533.dat
1 19 240 -288 310 -1 0 0 0 1 0 0 0 -1 15533.dat
1 19 150 -24 220 0 0 1 0 1 0 -1 0 0 15533.dat
1 19 200 -24 310 -1 0 0 0 1 0 0 0 -1 15533.dat
1 19 200 -360 170 1 0 0 0 1 0 0 0 1 15533.dat
1 19 290 -408 260 0 0 -1 0 1 0 1 0 0 15533.dat
1 19 200 -360 310 -1 0 0 0 1 0 0 0 -1 15533.dat
1 19 240 -384 170 1 0 0 0 1 0 0 0 1 15533.dat
1 19 290 -360 260 0 0 -1 0 1 0 1 0 0 15533.dat
1 19 240 -384 310 -1 0 0 0 1 0 0 0 -1 15533.dat
1 19 200 -408 170 1 0 0 0 1 0 0 0 1 15533.dat
1 19 150 -408 260 0 0 1 0 1 0 -1 0 0 15533.dat
1 19 200 -408 310 -1 0 0 0 1 0 0 0 -1 15533.dat
1 19 290 -384 220 0 0 -1 0 1 0 1 0 0 15533.dat
1 72 150 -312 220 0 0 1 0 1 0 -1 0 0 15533.dat
1 19 290 -432 220 0 0 -1 0 1 0 1 0 0 15533.dat
1 19 240 -432 170 1 0 0 0 1 0 0 0 1 15533.dat
1 19 150 -432 220 0 0 1 0 1 0 -1 0 0 15533.dat
1 19 240 -432 310 -1 0 0 0 1 0 0 0 -1 15533.dat
1 19 170 -536 290 0 0 -1 0 1 0 1 0 0 2420.dat
1 19 170 -536 190 -1 0 0 0 1 0 0 0 -1 2420.dat
1 19 270 -536 190 0 0 1 0 1 0 -1 0 0 2420.dat
1 19 270 -536 290 1 0 0 0 1 0 0 0 1 2420.dat
1 19 28 -286 240 0 1 0 0 0 -1 -1 0 0 28192.dat
1 19 36 -286 260 0 1 0 0 0 -1 -1 0 0 28192.dat
1 19 36 -286 220 0 1 0 0 0 -1 -1 0 0 28192.dat
1 19 260 -154 160 -1 0 0 0 0 1 0 1 0 29119.dat
1 19 180 -154 160 -1 0 0 0 0 1 0 1 0 29120.dat
1 72 270 -24 170 0 0 1 0 1 0 -1 0 0 3005.dat
1 72 170 -136 170 0 0 -1 0 1 0 1 0 0 3005.dat
1 72 270 -136 170 0 0 -1 0 1 0 1 0 0 3005.dat
1 19 290 -264 240 0 0 1 0 1 0 -1 0 0 3009.dat
1 19 290 -288 240 0 0 1 0 1 0 -1 0 0 3009.dat
1 72 220 -24 170 1 0 0 0 1 0 0 0 1 3009.dat
1 72 290 -312 240 0 0 1 0 1 0 -1 0 0 3009.dat
1 72 290 -336 240 0 0 1 0 1 0 -1 0 0 3009.dat
1 70 200 -40 190 1 0 0 0 1 0 0 0 1 30136.dat
1 70 240 -40 190 1 0 0 0 1 0 0 0 1 30136.dat
1 70 240 -64 190 1 0 0 0 1 0 0 0 1 30136.dat
1 70 200 -64 190 1 0 0 0 1 0 0 0 1 30136.dat
1 70 240 -88 190 1 0 0 0 1 0 0 0 1 30136.dat
1 70 200 -88 190 1 0 0 0 1 0 0 0 1 30136.dat
1 70 240 -112 190 1 0 0 0 1 0 0 0 1 30136.dat
1 70 200 -112 190 1 0 0 0 1 0 0 0 1 30136.dat
1 19 220 -144 180 1 0 0 0 1 0 0 0 1 3020.dat
1 19 220 -536 300 -1 0 0 0 1 0 0 0 -1 3020.dat
1 19 220 -536 180 -1 0 0 0 1 0 0 0 -1 3020.dat
1 19 160 -536 240 0 0 1 0 1 0 -1 0 0 3020.dat
1 19 280 -536 240 0 0 1 0 1 0 -1 0 0 3020.dat
1 19 220 -158 152 0 0 1 1 0 0 0 1 0 3022.dat
1 378 150 -600 260 -1 0 0 0 1 0 0 0 -1 3021.dat
1 378 150 -600 220 -1 0 0 0 1 0 0 0 -1 3021.dat
1 378 290 -600 220 -1 0 0 0 1 0 0 0 -1 3021.dat
1 378 290 -600 260 -1 0 0 0 1 0 0 0 -1 3021.dat
1 378 240 -600 170 0 0 1 0 1 0 -1 0 0 3021.dat
1 378 200 -600 170 0 0 1 0 1 0 -1 0 0 3021.dat
1 378 200 -600 310 0 0 1 0 1 0 -1 0 0 3021.dat
1 378 240 -600 310 0 0 1 0 1 0 -1 0 0 3021.dat
1 0 220 -584 240 0 0 1 0 1 0 -1 0 0 3022.dat
1 72 36 -296 240 0 1 0 1 0 0 0 0 -1 3023.dat
1 72 44 -316 220 0 1 0 1 0 0 0 0 -1 3023.dat
1 72 44 -316 260 0 1 0 1 0 0 0 0 -1 3023.dat
1 19 170 -32 170 1 0 0 0 1 0 0 0 1 3024.dat
1 19 270 -32 170 1 0 0 0 1 0 0 0 1 3024.dat
1 19 270 -144 170 1 0 0 0 1 0 0 0 1 3024.dat
1 19 170 -144 170 1 0 0 0 1 0 0 0 1 3024.dat
1 19 180 -144 152 -1 0 0 0 0 1 0 1 0 3024.dat
1 19 260 -144 152 -1 0 0 0 0 1 0 1 0 3024.dat
1 19 52 -266 240 0 1 0 0 0 -1 -1 0 0 3024.dat
1 72 44 -306 240 0 1 0 1 0 0 0 0 -1 3024.dat
1 72 145.3033 -560 165.3033 0.70711 0 0.70711 0 1 0 -0.70711 0 0.70711 3024.dat
1 72 294.6967 -560 165.3033 0.70711 0 -0.70711 0 1 0 0.70711 0 0.70711 3024.dat
1 72 294.6967 -560 314.6967 -0.70711 0 -0.70711 0 1 0 0.70711 0 -0.70711 3024.dat
1 72 145.3033 -560 314.6967 -0.70711 0 0.70711 0 1 0 -0.70711 0 -0.70711 3024.dat
1 72 320 -368 220 0 0 1 0 1 0 -1 0 0 3062.dat
1 72 320 -368 260 0 0 1 0 1 0 -1 0 0 3062.dat
1 47 138.2323 0 158.2322 0.70711 0 -0.70711 0 1 0 0.70711 0 0.70711 3065.dat
1 47 138.2322 0 321.7677 0.70711 0 0.70711 0 1 0 -0.70711 0 0.70711 3065.dat
1 47 301.7677 0 321.7678 -0.70711 0 0.70711 0 1 0 -0.70711 0 -0.70711 3065.dat
1 47 301.7678 0 158.2323 -0.70711 0 -0.70711 0 1 0 0.70711 0 -0.70711 3065.dat
1 19 220 -148 144 -1 0 0 0 0 1 0 1 0 3069b.dat
1 72 28 -316 240 0 1 0 1 0 0 0 0 -1 3069b.dat
1 72 170 -72 170 0 0 -1 0 1 0 1 0 0 32952.dat
1 72 170 -112 170 0 0 -1 0 1 0 1 0 0 32952.dat
1 72 270 -72 170 0 0 1 0 1 0 -1 0 0 32952.dat
1 72 270 -112 170 0 0 1 0 1 0 -1 0 0 32952.dat
1 72 250 -128 190 1 0 0 0 1 0 0 0 1 3386.dat
1 72 230 -128 190 1 0 0 0 1 0 0 0 1 3386.dat
1 72 210 -128 190 1 0 0 0 1 0 0 0 1 3386.dat
1 72 190 -128 190 1 0 0 0 1 0 0 0 1 3386.dat
1 72 36 -326 240 0 1 0 0 0 1 1 0 0 3386.dat
1 72 44 -286 240 0 1 0 0 0 -1 -1 0 0 3623.dat
1 72 131.1611 -560 151.1611 0.70711 0 0.70711 0 1 0 -0.70711 0 0.70711 36840.dat
1 72 308.8389 -560 151.1611 0.70711 0 -0.70711 0 1 0 0.70711 0 0.70711 36840.dat
1 72 131.1611 -560 328.8389 -0.70711 0 0.70711 0 1 0 -0.70711 0 -0.70711 36840.dat
1 72 220 -136 190 1 0 0 0 1 0 0 0 1 3710.dat
1 72 260 -287.75 165 1 0 0 0 1 0 0 0 1 38320.dat
1 72 180 -287.75 165 1 0 0 0 1 0 0 0 1 38320.dat
1 72 155 -383.75 240 0 0 -1 0 1 0 1 0 0 38320.dat
1 72 220 -544 240 0 0 1 0 1 0 -1 0 0 3958.dat
1 72 220 -592 240 0 0 1 0 1 0 -1 0 0 3958.dat
1 47 220 -552 240 0 0 1 0 1 0 -1 0 0 6141.dat
1 19 280 -24 240 0 0 1 0 1 0 -1 0 0 2456.dat
1 19 280 -48 240 0 0 1 0 1 0 -1 0 0 2456.dat
1 19 280 -72 240 0 0 1 0 1 0 -1 0 0 2456.dat
1 19 280 -96 240 0 0 1 0 1 0 -1 0 0 2456.dat
1 19 280 -120 240 0 0 1 0 1 0 -1 0 0 2456.dat
1 19 280 -144 240 0 0 1 0 1 0 -1 0 0 2456.dat
1 19 280 -168 240 0 0 1 0 1 0 -1 0 0 2456.dat
1 19 280 -192 240 0 0 1 0 1 0 -1 0 0 2456.dat
1 19 280 -216 240 0 0 1 0 1 0 -1 0 0 2456.dat
1 19 280 -240 240 0 0 1 0 1 0 -1 0 0 2456.dat
1 72 180 -288 170 1 0 0 0 1 0 0 0 1 60592.dat
1 72 260 -288 170 1 0 0 0 1 0 0 0 1 60592.dat
1 72 150 -384 240 0 0 -1 0 1 0 1 0 0 60592.dat
1 378 220 -576 240 0 0 1 0 1 0 -1 0 0 3941.dat
1 72 42 -344 240 1 0 0 0 1 0 0 0 1 66857.dat
1 378 300 -608 240 0 0 -1 0 1 0 1 0 0 69729.dat
1 378 140 -608 240 0 0 -1 0 1 0 1 0 0 69729.dat
1 378 220 -608 320 1 0 0 0 1 0 0 0 1 69729.dat
1 378 220 -608 160 1 0 0 0 1 0 0 0 1 69729.dat
1 72 320 -336 220 1 0 0 0 1 0 0 0 1 7904.dat
1 72 320 -336 260 0 0 -1 0 1 0 1 0 0 7904.dat
1 19 310 -24 250 0 0 -1 0 1 0 1 0 0 85080.dat
1 19 310 -24 230 1 0 0 0 1 0 0 0 1 85080.dat
1 19 310 -288 230 1 0 0 0 1 0 0 0 1 85080.dat
1 19 310 -288 250 0 0 -1 0 1 0 1 0 0 85080.dat
1 19 310 -264 230 1 0 0 0 1 0 0 0 1 85080.dat
1 19 310 -264 250 0 0 -1 0 1 0 1 0 0 85080.dat
1 19 310 -240 230 1 0 0 0 1 0 0 0 1 85080.dat
1 19 310 -240 250 0 0 -1 0 1 0 1 0 0 85080.dat
1 19 310 -48 230 1 0 0 0 1 0 0 0 1 85080.dat
1 19 310 -48 250 0 0 -1 0 1 0 1 0 0 85080.dat
1 19 310 -72 230 1 0 0 0 1 0 0 0 1 85080.dat
1 19 310 -72 250 0 0 -1 0 1 0 1 0 0 85080.dat
1 19 310 -96 230 1 0 0 0 1 0 0 0 1 85080.dat
1 19 310 -96 250 0 0 -1 0 1 0 1 0 0 85080.dat
1 19 310 -120 230 1 0 0 0 1 0 0 0 1 85080.dat
1 19 310 -120 250 0 0 -1 0 1 0 1 0 0 85080.dat
1 19 310 -144 230 1 0 0 0 1 0 0 0 1 85080.dat
1 19 310 -144 250 0 0 -1 0 1 0 1 0 0 85080.dat
1 72 310 -168 230 1 0 0 0 1 0 0 0 1 85080.dat
1 72 310 -168 250 0 0 -1 0 1 0 1 0 0 85080.dat
1 72 310 -192 230 1 0 0 0 1 0 0 0 1 85080.dat
1 72 310 -192 250 0 0 -1 0 1 0 1 0 0 85080.dat
1 72 310 -216 230 1 0 0 0 1 0 0 0 1 85080.dat
1 72 310 -216 250 0 0 -1 0 1 0 1 0 0 85080.dat
1 72 310 -312 230 1 0 0 0 1 0 0 0 1 85080.dat
1 72 310 -336 230 1 0 0 0 1 0 0 0 1 85080.dat
1 72 310 -312 250 0 0 -1 0 1 0 1 0 0 85080.dat
1 72 310 -336 250 0 0 -1 0 1 0 1 0 0 85080.dat
1 72 358.3364 -562 378.3364 0.70711 -0.70711 0 0 0 1 -0.70711 -0.70711 0 85861.dat
1 72 180 -52 170 0 -1 0 1 0 0 0 0 1 85984.dat
1 72 180 -92 170 0 -1 0 1 0 0 0 0 1 85984.dat
1 72 260 -52 170 0 1 0 -1 0 0 0 0 1 85984.dat
1 72 260 -92 170 0 1 0 -1 0 0 0 0 1 85984.dat
1 72 220 -230 160 -1 0 0 0 0 1 0 1 0 85984.dat
1 72 220 -122 180 1 0 0 0 0 -1 0 1 0 85984.dat
1 72 44 -316 260 0 1 0 1 0 0 0 0 -1 85984.dat
1 72 44 -316 220 0 1 0 -1 0 0 0 0 1 85984.dat
1 72 180 -144 170 1 0 0 0 -1 0 0 0 -1 86876.dat
1 72 260 -144 170 1 0 0 0 -1 0 0 0 -1 86876.dat
1 72 150 -336 240 0 0 1 0 1 0 -1 0 0 86876.dat
1 72 220 -32 160 1 0 0 0 1 0 0 0 1 87079.dat
1 72 140 24 160 1 0 0 0 1 0 0 0 1 87580.dat
1 72 140 24 320 0 0 1 0 1 0 -1 0 0 87580.dat
1 72 300 24 320 -1 0 0 0 1 0 0 0 -1 87580.dat
1 72 300 24 160 0 0 -1 0 1 0 1 0 0 87580.dat
1 72 138.2323 -24 158.2322 0.70711 0 -0.70711 0 1 0 0.70711 0 0.70711 98283.dat
1 72 150 -24 280 0 0 1 0 1 0 -1 0 0 98283.dat
1 72 301.7678 -48 158.2323 -0.70711 0 -0.70711 0 1 0 0.70711 0 -0.70711 98283.dat
1 72 260 -24 310 -1 0 0 0 1 0 0 0 -1 98283.dat
1 72 138.2323 -24 321.7678 -0.70711 0 -0.70711 0 1 0 0.70711 0 -0.70711 98283.dat
1 72 301.7677 -312 158.2322 0.70711 0 0.70711 0 1 0 -0.70711 0 0.70711 98283.dat
1 72 301.7677 -24 321.7678 -0.70711 0 0.70711 0 1 0 -0.70711 0 -0.70711 98283.dat
1 72 138.2322 -48 158.2323 -0.70711 0 0.70711 0 1 0 -0.70711 0 -0.70711 98283.dat
1 72 150 -48 200 0 0 1 0 1 0 -1 0 0 98283.dat
1 72 301.7677 -24 158.2322 0.70711 0 0.70711 0 1 0 -0.70711 0 0.70711 98283.dat
1 72 138.2322 -48 321.7677 0.70711 0 0.70711 0 1 0 -0.70711 0 0.70711 98283.dat
1 72 180 -48 310 -1 0 0 0 1 0 0 0 -1 98283.dat
1 72 301.7678 -48 321.7677 0.70711 0 -0.70711 0 1 0 0.70711 0 0.70711 98283.dat
1 72 260 -312 170 1 0 0 0 1 0 0 0 1 98283.dat
1 72 301.7677 -72 158.2322 0.70711 0 0.70711 0 1 0 -0.70711 0 0.70711 98283.dat
1 72 138.2323 -72 158.2322 0.70711 0 -0.70711 0 1 0 0.70711 0 0.70711 98283.dat
1 72 150 -72 280 0 0 1 0 1 0 -1 0 0 98283.dat
1 72 138.2323 -72 321.7678 -0.70711 0 -0.70711 0 1 0 0.70711 0 -0.70711 98283.dat
1 72 260 -72 310 -1 0 0 0 1 0 0 0 -1 98283.dat
1 72 301.7677 -72 321.7678 -0.70711 0 0.70711 0 1 0 -0.70711 0 -0.70711 98283.dat
1 72 138.2323 -312 158.2322 0.70711 0 -0.70711 0 1 0 0.70711 0 0.70711 98283.dat
1 72 301.7678 -96 158.2323 -0.70711 0 -0.70711 0 1 0 0.70711 0 -0.70711 98283.dat
1 72 138.2322 -96 158.2323 -0.70711 0 0.70711 0 1 0 -0.70711 0 -0.70711 98283.dat
1 72 150 -96 200 0 0 1 0 1 0 -1 0 0 98283.dat
1 72 138.2322 -96 321.7677 0.70711 0 0.70711 0 1 0 -0.70711 0 0.70711 98283.dat
1 72 180 -96 310 -1 0 0 0 1 0 0 0 -1 98283.dat
1 72 301.7678 -96 321.7677 0.70711 0 -0.70711 0 1 0 0.70711 0 0.70711 98283.dat
1 72 301.7677 -120 158.2322 0.70711 0 0.70711 0 1 0 -0.70711 0 0.70711 98283.dat
1 72 138.2323 -120 158.2322 0.70711 0 -0.70711 0 1 0 0.70711 0 0.70711 98283.dat
1 72 150 -120 280 0 0 1 0 1 0 -1 0 0 98283.dat
1 72 138.2323 -120 321.7678 -0.70711 0 -0.70711 0 1 0 0.70711 0 -0.70711 98283.dat
1 72 260 -120 310 -1 0 0 0 1 0 0 0 -1 98283.dat
1 72 301.7677 -120 321.7678 -0.70711 0 0.70711 0 1 0 -0.70711 0 -0.70711 98283.dat
1 72 138.2323 -312 321.7678 -0.70711 0 -0.70711 0 1 0 0.70711 0 -0.70711 98283.dat
1 72 301.7678 -144 158.2323 -0.70711 0 -0.70711 0 1 0 0.70711 0 -0.70711 98283.dat
1 72 138.2322 -144 158.2323 -0.70711 0 0.70711 0 1 0 -0.70711 0 -0.70711 98283.dat
1 72 150 -144 200 0 0 1 0 1 0 -1 0 0 98283.dat
1 72 138.2322 -144 321.7677 0.70711 0 0.70711 0 1 0 -0.70711 0 0.70711 98283.dat
1 72 180 -144 310 -1 0 0 0 1 0 0 0 -1 98283.dat
1 72 301.7678 -144 321.7677 0.70711 0 -0.70711 0 1 0 0.70711 0 0.70711 98283.dat
1 72 301.7677 -312 321.7678 -0.70711 0 0.70711 0 1 0 -0.70711 0 -0.70711 98283.dat
1 72 301.7677 -168 158.2322 0.70711 0 0.70711 0 1 0 -0.70711 0 0.70711 98283.dat
1 72 138.2323 -168 158.2322 0.70711 0 -0.70711 0 1 0 0.70711 0 0.70711 98283.dat
1 72 150 -168 280 0 0 1 0 1 0 -1 0 0 98283.dat
1 72 138.2323 -168 321.7678 -0.70711 0 -0.70711 0 1 0 0.70711 0 -0.70711 98283.dat
1 72 260 -168 310 -1 0 0 0 1 0 0 0 -1 98283.dat
1 72 301.7677 -168 321.7678 -0.70711 0 0.70711 0 1 0 -0.70711 0 -0.70711 98283.dat
1 72 260 -312 310 -1 0 0 0 1 0 0 0 -1 98283.dat
1 72 301.7678 -192 158.2323 -0.70711 0 -0.70711 0 1 0 0.70711 0 -0.70711 98283.dat
1 72 260 -192 170 1 0 0 0 1 0 0 0 1 98283.dat
1 72 138.2322 -192 158.2323 -0.70711 0 0.70711 0 1 0 -0.70711 0 -0.70711 98283.dat
1 72 150 -192 200 0 0 1 0 1 0 -1 0 0 98283.dat
1 72 138.2322 -192 321.7677 0.70711 0 0.70711 0 1 0 -0.70711 0 0.70711 98283.dat
1 72 180 -192 310 -1 0 0 0 1 0 0 0 -1 98283.dat
1 72 301.7678 -192 321.7677 0.70711 0 -0.70711 0 1 0 0.70711 0 0.70711 98283.dat
1 72 301.7678 -336 158.2323 -0.70711 0 -0.70711 0 1 0 0.70711 0 -0.70711 98283.dat
1 72 301.7677 -216 158.2322 0.70711 0 0.70711 0 1 0 -0.70711 0 0.70711 98283.dat
1 72 180 -216 170 1 0 0 0 1 0 0 0 1 98283.dat
1 72 138.2323 -216 158.2322 0.70711 0 -0.70711 0 1 0 0.70711 0 0.70711 98283.dat
1 72 150 -216 280 0 0 1 0 1 0 -1 0 0 98283.dat
1 72 138.2323 -216 321.7678 -0.70711 0 -0.70711 0 1 0 0.70711 0 -0.70711 98283.dat
1 72 260 -216 310 -1 0 0 0 1 0 0 0 -1 98283.dat
1 72 301.7677 -216 321.7678 -0.70711 0 0.70711 0 1 0 -0.70711 0 -0.70711 98283.dat
1 72 180 -336 170 1 0 0 0 1 0 0 0 1 98283.dat
1 72 301.7678 -240 158.2323 -0.70711 0 -0.70711 0 1 0 0.70711 0 -0.70711 98283.dat
1 72 180 -240 170 1 0 0 0 1 0 0 0 1 98283.dat
1 72 138.2322 -240 158.2323 -0.70711 0 0.70711 0 1 0 -0.70711 0 -0.70711 98283.dat
1 72 150 -240 200 0 0 1 0 1 0 -1 0 0 98283.dat
1 72 138.2322 -240 321.7677 0.70711 0 0.70711 0 1 0 -0.70711 0 0.70711 98283.dat
1 72 180 -240 310 -1 0 0 0 1 0 0 0 -1 98283.dat
1 72 301.7678 -240 321.7677 0.70711 0 -0.70711 0 1 0 0.70711 0 0.70711 98283.dat
1 72 138.2322 -336 158.2323 -0.70711 0 0.70711 0 1 0 -0.70711 0 -0.70711 98283.dat
1 72 301.7677 -264 158.2322 0.70711 0 0.70711 0 1 0 -0.70711 0 0.70711 98283.dat
1 72 138.2323 -264 158.2322 0.70711 0 -0.70711 0 1 0 0.70711 0 0.70711 98283.dat
1 72 150 -264 280 0 0 1 0 1 0 -1 0 0 98283.dat
1 72 138.2323 -264 321.7678 -0.70711 0 -0.70711 0 1 0 0.70711 0 -0.70711 98283.dat
1 72 260 -264 310 -1 0 0 0 1 0 0 0 -1 98283.dat
1 72 301.7677 -264 321.7678 -0.70711 0 0.70711 0 1 0 -0.70711 0 -0.70711 98283.dat
1 72 150 -336 200 0 0 1 0 1 0 -1 0 0 98283.dat
1 72 301.7678 -288 158.2323 -0.70711 0 -0.70711 0 1 0 0.70711 0 -0.70711 98283.dat
1 72 138.2322 -288 158.2323 -0.70711 0 0.70711 0 1 0 -0.70711 0 -0.70711 98283.dat
1 72 150 -288 200 0 0 1 0 1 0 -1 0 0 98283.dat
1 72 138.2322 -288 321.7677 0.70711 0 0.70711 0 1 0 -0.70711 0 0.70711 98283.dat
1 72 180 -288 310 -1 0 0 0 1 0 0 0 -1 98283.dat
1 72 301.7678 -288 321.7677 0.70711 0 -0.70711 0 1 0 0.70711 0 0.70711 98283.dat
1 72 138.2322 -336 321.7677 0.70711 0 0.70711 0 1 0 -0.70711 0 0.70711 98283.dat
1 72 301.7678 -336 321.7677 0.70711 0 -0.70711 0 1 0 0.70711 0 0.70711 98283.dat
1 72 180 -336 310 -1 0 0 0 1 0 0 0 -1 98283.dat
1 72 220 -264 170 1 0 0 0 1 0 0 0 1 98283.dat
1 72 220 -288 170 1 0 0 0 1 0 0 0 1 98283.dat
1 72 260 -240 170 1 0 0 0 1 0 0 0 1 98283.dat
1 72 301.7677 -360 158.2322 0.70711 0 0.70711 0 1 0 -0.70711 0 0.70711 98283.dat
1 72 260 -360 170 1 0 0 0 1 0 0 0 1 98283.dat
1 72 138.2323 -360 158.2322 0.70711 0 -0.70711 0 1 0 0.70711 0 0.70711 98283.dat
1 72 150 -360 200 0 0 1 0 1 0 -1 0 0 98283.dat
1 72 138.2323 -360 321.7678 -0.70711 0 -0.70711 0 1 0 0.70711 0 -0.70711 98283.dat
1 72 260 -360 310 -1 0 0 0 1 0 0 0 -1 98283.dat
1 72 301.7677 -360 321.7678 -0.70711 0 0.70711 0 1 0 -0.70711 0 -0.70711 98283.dat
1 72 301.7678 -384 158.2323 -0.70711 0 -0.70711 0 1 0 0.70711 0 -0.70711 98283.dat
1 72 180 -384 170 1 0 0 0 1 0 0 0 1 98283.dat
1 72 138.2322 -384 158.2323 -0.70711 0 0.70711 0 1 0 -0.70711 0 -0.70711 98283.dat
1 72 150 -384 200 0 0 1 0 1 0 -1 0 0 98283.dat
1 72 138.2322 -384 321.7677 0.70711 0 0.70711 0 1 0 -0.70711 0 0.70711 98283.dat
1 72 180 -384 310 -1 0 0 0 1 0 0 0 -1 98283.dat
1 72 301.7678 -384 321.7677 0.70711 0 -0.70711 0 1 0 0.70711 0 0.70711 98283.dat
1 72 301.7677 -408 158.2322 0.70711 0 0.70711 0 1 0 -0.70711 0 0.70711 98283.dat
1 72 260 -408 170 1 0 0 0 1 0 0 0 1 98283.dat
1 72 138.2323 -408 158.2322 0.70711 0 -0.70711 0 1 0 0.70711 0 0.70711 98283.dat
1 72 150 -408 200 0 0 1 0 1 0 -1 0 0 98283.dat
1 72 138.2323 -408 321.7678 -0.70711 0 -0.70711 0 1 0 0.70711 0 -0.70711 98283.dat
1 72 260 -408 310 -1 0 0 0 1 0 0 0 -1 98283.dat
1 72 301.7677 -408 321.7678 -0.70711 0 0.70711 0 1 0 -0.70711 0 -0.70711 98283.dat
1 72 301.7678 -528 321.7677 0.70711 0 -0.70711 0 1 0 0.70711 0 0.70711 98283.dat
1 72 301.7678 -528 158.2323 -0.70711 0 -0.70711 0 1 0 0.70711 0 -0.70711 98283.dat
1 72 290 -432 280 0 0 -1 0 1 0 1 0 0 98283.dat
1 72 301.7678 -432 158.2323 -0.70711 0 -0.70711 0 1 0 0.70711 0 -0.70711 98283.dat
1 72 301.7678 -432 321.7677 0.70711 0 -0.70711 0 1 0 0.70711 0 0.70711 98283.dat
1 72 180 -432 170 1 0 0 0 1 0 0 0 1 98283.dat
1 72 138.2322 -432 158.2323 -0.70711 0 0.70711 0 1 0 -0.70711 0 -0.70711 98283.dat
1 72 150 -432 280 0 0 1 0 1 0 -1 0 0 98283.dat
1 72 138.2322 -432 321.7677 0.70711 0 0.70711 0 1 0 -0.70711 0 0.70711 98283.dat
1 72 180 -432 310 -1 0 0 0 1 0 0 0 -1 98283.dat
1 72 301.7677 -456 158.2322 0.70711 0 0.70711 0 1 0 -0.70711 0 0.70711 98283.dat
1 72 301.7677 -456 321.7678 -0.70711 0 0.70711 0 1 0 -0.70711 0 -0.70711 98283.dat
1 72 138.2322 -528 158.2323 -0.70711 0 0.70711 0 1 0 -0.70711 0 -0.70711 98283.dat
1 72 138.2323 -456 158.2322 0.70711 0 -0.70711 0 1 0 0.70711 0 0.70711 98283.dat
1 72 138.2322 -528 321.7677 0.70711 0 0.70711 0 1 0 -0.70711 0 0.70711 98283.dat
1 72 138.2323 -456 321.7678 -0.70711 0 -0.70711 0 1 0 0.70711 0 -0.70711 98283.dat
1 72 138.2323 -552 158.2322 0.70711 0 -0.70711 0 1 0 0.70711 0 0.70711 98283.dat
1 72 301.7678 -480 158.2323 -0.70711 0 -0.70711 0 1 0 0.70711 0 -0.70711 98283.dat
1 72 301.7678 -480 321.7677 0.70711 0 -0.70711 0 1 0 0.70711 0 0.70711 98283.dat
1 72 138.2322 -480 158.2323 -0.70711 0 0.70711 0 1 0 -0.70711 0 -0.70711 98283.dat
1 72 301.7677 -552 158.2322 0.70711 0 0.70711 0 1 0 -0.70711 0 0.70711 98283.dat
1 72 138.2322 -480 321.7677 0.70711 0 0.70711 0 1 0 -0.70711 0 0.70711 98283.dat
1 72 138.2323 -552 321.7678 -0.70711 0 -0.70711 0 1 0 0.70711 0 -0.70711 98283.dat
1 72 301.7677 -504 158.2322 0.70711 0 0.70711 0 1 0 -0.70711 0 0.70711 98283.dat
1 72 301.7677 -504 321.7678 -0.70711 0 0.70711 0 1 0 -0.70711 0 -0.70711 98283.dat
1 72 301.7677 -552 321.7678 -0.70711 0 0.70711 0 1 0 -0.70711 0 -0.70711 98283.dat
1 72 138.2323 -504 158.2322 0.70711 0 -0.70711 0 1 0 0.70711 0 0.70711 98283.dat
1 72 138.2323 -504 321.7678 -0.70711 0 -0.70711 0 1 0 0.70711 0 -0.70711 98283.dat
1 72 290 -360 200 0 0 -1 0 1 0 1 0 0 98283.dat
1 72 150 -336 280 0 0 1 0 1 0 -1 0 0 98283.dat
1 72 150 -360 280 0 0 1 0 1 0 -1 0 0 98283.dat
1 72 150 -384 280 0 0 1 0 1 0 -1 0 0 98283.dat
1 72 150 -312 280 0 0 1 0 1 0 -1 0 0 98283.dat
1 72 290 -408 200 0 0 -1 0 1 0 1 0 0 98283.dat
1 72 290 -384 280 0 0 -1 0 1 0 1 0 0 98283.dat
1 378 220 -672 240 0 0 1 0 1 0 -1 0 0 30614.dat
1 378 220 -696 240 0 0 1 0 1 0 -1 0 0 15551.dat
1 378 320 -376 220 1 0 0 0 1 0 0 0 1 5852.dat
1 378 320 -376 260 0 0 -1 0 1 0 1 0 0 5852.dat
1 19 220 -167 144 -1 0 0 0 0 1 0 1 0 27261.dat
1 72 190 -122 180 1 0 0 0 0 -1 0 1 0 7827.dat
1 72 250 -122 180 0 0 1 1 0 0 0 1 0 7827.dat
