0 Converted
0 Author: [USERNAME]
0 Converted with https://mb-converter.netlify.app made by The_An0nym using the conversion files from Mecabricks.
1 28 150 -32 10 1 0 0 0 1 0 0 0 1 20482.dat
1 28 170 -32 10 1 0 0 0 1 0 0 0 1 20482.dat
1 0 -180 -216 10 -1 0 0 0 1 0 0 0 -1 2431.dat
1 0 160 -24 30 -1 0 0 0 1 0 0 0 -1 2431.dat
1 0 0 -16 50 -1 0 0 0 1 0 0 0 -1 2431.dat
1 28 160 -32 -20 1 0 0 0 1 0 0 0 1 3001.dat
1 28 100 -32 -20 1 0 0 0 1 0 0 0 1 3003.dat
1 0 -210 -200 20 0 0 1 0 1 0 -1 0 0 3004.dat
1 0 210 -200 20 0 0 1 0 1 0 -1 0 0 3004.dat
1 0 160 -200 50 -1 0 0 0 1 0 0 0 -1 3009.dat
1 0 -60 -200 50 -1 0 0 0 1 0 0 0 -1 2465.dat
1 0 -210 -32 20 0 0 1 0 1 0 -1 0 0 3010.dat
1 0 -210 -80 20 0 0 1 0 1 0 -1 0 0 3010.dat
1 0 -210 -128 20 0 0 1 0 1 0 -1 0 0 3010.dat
1 0 -210 -176 20 0 0 1 0 1 0 -1 0 0 3010.dat
1 0 210 -32 20 0 0 1 0 1 0 -1 0 0 3010.dat
1 0 210 -80 20 0 0 1 0 1 0 -1 0 0 3010.dat
1 0 210 -176 20 0 0 1 0 1 0 -1 0 0 3010.dat
1 0 210 -128 20 0 0 1 0 1 0 -1 0 0 3010.dat
1 72 -180 -16 -10 0 0 1 0 1 0 -1 0 0 3021.dat
1 72 -60 -16 -10 0 0 1 0 1 0 -1 0 0 3021.dat
1 72 60 -16 -10 0 0 1 0 1 0 -1 0 0 3021.dat
1 71 60 -24 -20 0 0 1 0 1 0 -1 0 0 3022.dat
1 72 0 -8 0 1 0 0 0 1 0 0 0 1 3032.dat
1 0 -160 -208 20 -1 0 0 0 1 0 0 0 -1 3032.dat
1 0 -120 -16 40 1 0 0 0 1 0 0 0 1 3034.dat
1 0 -120 -24 40 1 0 0 0 1 0 0 0 1 3034.dat
1 71 -120 -24 -20 1 0 0 0 1 0 0 0 1 3034.dat
1 72 -140 -8 0 1 0 0 0 1 0 0 0 1 3035.dat
1 72 140 -8 0 1 0 0 0 1 0 0 0 1 3035.dat
1 0 -20 -208 20 -1 0 0 0 1 0 0 0 -1 3035.dat
1 0 140 -208 20 -1 0 0 0 1 0 0 0 -1 3035.dat
1 0 40 -176 50 1 0 0 0 1 0 0 0 1 30586.dat
1 28 60 -32 -20 0 0 1 0 1 0 -1 0 0 3068b.dat
1 0 60 -216 -10 -1 0 0 0 1 0 0 0 -1 3069b.dat
1 28 60 -32 10 -1 0 0 0 1 0 0 0 -1 3069b.dat
1 0 -120 -216 -10 -1 0 0 0 1 0 0 0 -1 3069b.dat
1 28 190 -32 10 -1 0 0 0 1 0 0 0 -1 3070b.dat
1 28 -190 -32 -30 -1 0 0 0 1 0 0 0 -1 3070b.dat
1 71 -120 -24 10 -1 0 0 0 1 0 0 0 -1 3460.dat
1 0 120 -24 50 -1 0 0 0 1 0 0 0 -1 3460.dat
1 71 120 -24 10 -1 0 0 0 1 0 0 0 -1 3460.dat
1 0 -120 -176 50 -1 0 0 0 1 0 0 0 -1 3460.dat
1 0 -210 -56 30 0 0 1 0 1 0 -1 0 0 3622.dat
1 0 -210 -104 30 0 0 1 0 1 0 -1 0 0 3622.dat
1 0 -210 -152 30 0 0 1 0 1 0 -1 0 0 3622.dat
1 0 210 -56 30 0 0 1 0 1 0 -1 0 0 3622.dat
1 0 210 -104 30 0 0 1 0 1 0 -1 0 0 3622.dat
1 0 210 -152 30 0 0 1 0 1 0 -1 0 0 3622.dat
1 72 -160 -8 50 1 0 0 0 1 0 0 0 1 3666.dat
1 72 160 -8 50 1 0 0 0 1 0 0 0 1 3666.dat
1 71 140 -16 10 -1 0 0 0 1 0 0 0 -1 3666.dat
1 0 0 -168 30 1 0 0 0 1 0 0 0 1 3710.dat
1 0 160 -16 30 -1 0 0 0 1 0 0 0 -1 3710.dat
1 0 160 -176 50 1 0 0 0 1 0 0 0 1 3710.dat
1 0 -120 -32 30 1 0 0 0 1 0 0 0 1 4162.dat
1 0 40 -16 30 1 0 0 0 1 0 0 0 1 4162.dat
1 28 -140 -32 -30 1 0 0 0 1 0 0 0 1 41740.dat
1 0 -180 -216 -10 -1 0 0 0 1 0 0 0 -1 41740.dat
1 0 0 -216 -10 -1 0 0 0 1 0 0 0 -1 41740.dat
1 0 180 -216 -10 -1 0 0 0 1 0 0 0 -1 41740.dat
1 72 0 -8 50 1 0 0 0 1 0 0 0 1 4477.dat
1 0 0 -160 30 1 0 0 0 1 0 0 0 1 60596.dat
1 0 160 -168 50 1 0 0 0 1 0 0 0 1 60596.dat
1 0 80 -168 50 1 0 0 0 1 0 0 0 1 60596.dat
1 0 -80 -168 50 1 0 0 0 1 0 0 0 1 60596.dat
1 0 -160 -168 50 1 0 0 0 1 0 0 0 1 60596.dat
1 47 161 -163.5 55 1 0 0 0 1 0 0 0 1 57895.dat
1 47 81 -163.5 55 1 0 0 0 1 0 0 0 1 57895.dat
1 47 1 -155.5 35 1 0 0 0 1 0 0 0 1 57895.dat
1 47 -79 -163.5 55 1 0 0 0 1 0 0 0 1 57895.dat
1 47 -159 -163.5 55 1 0 0 0 1 0 0 0 1 57895.dat
1 28 110 -32 10 -1 0 0 0 1 0 0 0 -1 63864.dat
1 28 -70 -32 -30 -1 0 0 0 1 0 0 0 -1 63864.dat
1 0 -70 -216 -10 -1 0 0 0 1 0 0 0 -1 63864.dat
1 0 110 -216 -10 -1 0 0 0 1 0 0 0 -1 63864.dat
1 0 160 -216 10 -1 0 0 0 1 0 0 0 -1 6636.dat
1 0 40 -216 10 -1 0 0 0 1 0 0 0 -1 6636.dat
1 0 -80 -216 10 -1 0 0 0 1 0 0 0 -1 6636.dat
1 0 -160 -216 40 -1 0 0 0 1 0 0 0 -1 69729.dat
1 0 -40 -216 40 -1 0 0 0 1 0 0 0 -1 69729.dat
1 0 80 -216 40 -1 0 0 0 1 0 0 0 -1 69729.dat
1 28 -160 -32 0 1 0 0 0 1 0 0 0 1 87079.dat
1 28 -80 -32 0 1 0 0 0 1 0 0 0 1 87079.dat
1 0 180 -216 40 -1 0 0 0 1 0 0 0 -1 87079.dat
1 15 -20 -16 0 1 0 0 0 1 0 0 0 1 3068b.dat
1 15 20 -16 0 1 0 0 0 1 0 0 0 1 3068b.dat
1 15 20 -16 -40 1 0 0 0 1 0 0 0 1 3068b.dat
1 15 -20 -16 -40 1 0 0 0 1 0 0 0 1 3068b.dat
