0 Converted
0 Author: [USERNAME]
0 Converted with https://mb-converter.netlify.app made by The_An0nym using the conversion files from Mecabricks.
1 28 150 -32 10 1 0 0 0 1 0 0 0 1 20482.dat
1 28 170 -32 10 1 0 0 0 1 0 0 0 1 20482.dat
1 0 -180 -216 10 -1 0 0 0 1 0 0 0 -1 2431.dat
1 0 160 -32 30 -1 0 0 0 1 0 0 0 -1 2431.dat
1 28 160 -32 -20 1 0 0 0 1 0 0 0 1 3001.dat
1 28 100 -32 -20 1 0 0 0 1 0 0 0 1 3003.dat
1 0 -210 -200 20 0 0 1 0 1 0 -1 0 0 3004.dat
1 0 210 -200 20 0 0 1 0 1 0 -1 0 0 3004.dat
1 0 140 -200 50 -1 0 0 0 1 0 0 0 -1 3008.dat
1 0 -20 -200 50 -1 0 0 0 1 0 0 0 -1 3008.dat
1 0 -160 -200 50 -1 0 0 0 1 0 0 0 -1 3009.dat
1 0 -210 -32 20 0 0 1 0 1 0 -1 0 0 3010.dat
1 0 -210 -80 20 0 0 1 0 1 0 -1 0 0 3010.dat
1 0 -210 -128 20 0 0 1 0 1 0 -1 0 0 3010.dat
1 0 -210 -176 20 0 0 1 0 1 0 -1 0 0 3010.dat
1 0 210 -32 20 0 0 1 0 1 0 -1 0 0 3010.dat
1 0 210 -80 20 0 0 1 0 1 0 -1 0 0 3010.dat
1 0 210 -176 20 0 0 1 0 1 0 -1 0 0 3010.dat
1 0 210 -128 20 0 0 1 0 1 0 -1 0 0 3010.dat
1 72 -180 -16 -10 0 0 1 0 1 0 -1 0 0 3021.dat
1 72 -60 -16 -10 0 0 1 0 1 0 -1 0 0 3021.dat
1 72 60 -16 -10 0 0 1 0 1 0 -1 0 0 3021.dat
1 71 60 -24 -20 0 0 1 0 1 0 -1 0 0 3022.dat
1 72 0 -8 20 1 0 0 0 1 0 0 0 1 3032.dat
1 0 160 -208 20 -1 0 0 0 1 0 0 0 -1 3032.dat
1 0 -120 -16 40 1 0 0 0 1 0 0 0 1 3034.dat
1 0 -120 -24 40 1 0 0 0 1 0 0 0 1 3034.dat
1 71 -120 -24 -20 1 0 0 0 1 0 0 0 1 3034.dat
1 72 -140 -8 20 1 0 0 0 1 0 0 0 1 3035.dat
1 72 140 -8 20 1 0 0 0 1 0 0 0 1 3035.dat
1 0 -140 -208 20 -1 0 0 0 1 0 0 0 -1 3035.dat
1 0 20 -208 20 -1 0 0 0 1 0 0 0 -1 3035.dat
1 0 120 -16 50 1 0 0 0 1 0 0 0 1 30586.dat
1 0 40 -176 50 1 0 0 0 1 0 0 0 1 30586.dat
1 28 60 -32 -20 0 0 1 0 1 0 -1 0 0 3068b.dat
1 72 120 -224 -10 -1 0 0 0 1 0 0 0 -1 3069b.dat
1 28 60 -32 10 -1 0 0 0 1 0 0 0 -1 3069b.dat
1 72 -120 -224 -10 -1 0 0 0 1 0 0 0 -1 3069b.dat
1 28 190 -32 10 -1 0 0 0 1 0 0 0 -1 3070b.dat
1 28 -190 -32 -30 -1 0 0 0 1 0 0 0 -1 3070b.dat
1 71 -120 -24 10 -1 0 0 0 1 0 0 0 -1 3460.dat
1 0 120 -24 50 -1 0 0 0 1 0 0 0 -1 3460.dat
1 71 120 -24 10 -1 0 0 0 1 0 0 0 -1 3460.dat
1 0 -120 -176 50 -1 0 0 0 1 0 0 0 -1 3460.dat
1 0 -140 -216 -10 -1 0 0 0 1 0 0 0 -1 3460.dat
1 0 140 -216 -10 -1 0 0 0 1 0 0 0 -1 3460.dat
1 0 -210 -56 30 0 0 1 0 1 0 -1 0 0 3622.dat
1 0 -210 -104 30 0 0 1 0 1 0 -1 0 0 3622.dat
1 0 -210 -152 30 0 0 1 0 1 0 -1 0 0 3622.dat
1 0 210 -56 30 0 0 1 0 1 0 -1 0 0 3622.dat
1 0 210 -104 30 0 0 1 0 1 0 -1 0 0 3622.dat
1 0 210 -152 30 0 0 1 0 1 0 -1 0 0 3622.dat
1 72 -160 -8 -30 1 0 0 0 1 0 0 0 1 3666.dat
1 72 160 -8 -30 1 0 0 0 1 0 0 0 1 3666.dat
1 71 140 -16 10 -1 0 0 0 1 0 0 0 -1 3666.dat
1 0 0 -216 -10 -1 0 0 0 1 0 0 0 -1 3666.dat
1 0 0 -168 30 1 0 0 0 1 0 0 0 1 3710.dat
1 0 160 -24 30 -1 0 0 0 1 0 0 0 -1 3710.dat
1 0 160 -176 50 1 0 0 0 1 0 0 0 1 3710.dat
1 0 -120 -32 30 1 0 0 0 1 0 0 0 1 4162.dat
1 28 -140 -32 -30 1 0 0 0 1 0 0 0 1 41740.dat
1 72 -180 -224 -10 -1 0 0 0 1 0 0 0 -1 41740.dat
1 72 0 -224 -10 -1 0 0 0 1 0 0 0 -1 41740.dat
1 72 180 -224 -10 -1 0 0 0 1 0 0 0 -1 41740.dat
1 72 0 -8 -30 1 0 0 0 1 0 0 0 1 4477.dat
1 0 0 -160 30 1 0 0 0 1 0 0 0 1 60596.dat
1 0 160 -168 50 1 0 0 0 1 0 0 0 1 60596.dat
1 0 80 -168 50 1 0 0 0 1 0 0 0 1 60596.dat
1 0 -80 -168 50 1 0 0 0 1 0 0 0 1 60596.dat
1 0 -160 -168 50 1 0 0 0 1 0 0 0 1 60596.dat
1 47 161 -163.5 55 1 0 0 0 1 0 0 0 1 57895.dat
1 47 81 -163.5 55 1 0 0 0 1 0 0 0 1 57895.dat
1 47 1 -155.5 35 1 0 0 0 1 0 0 0 1 57895.dat
1 47 -79 -163.5 55 1 0 0 0 1 0 0 0 1 57895.dat
1 47 -159 -163.5 55 1 0 0 0 1 0 0 0 1 57895.dat
1 28 110 -32 10 -1 0 0 0 1 0 0 0 -1 63864.dat
1 28 -70 -32 -30 -1 0 0 0 1 0 0 0 -1 63864.dat
1 72 -70 -224 -10 -1 0 0 0 1 0 0 0 -1 63864.dat
1 72 70 -224 -10 -1 0 0 0 1 0 0 0 -1 63864.dat
1 0 160 -216 10 -1 0 0 0 1 0 0 0 -1 6636.dat
1 0 40 -216 10 -1 0 0 0 1 0 0 0 -1 6636.dat
1 0 -80 -216 10 -1 0 0 0 1 0 0 0 -1 6636.dat
1 0 -160 -216 40 -1 0 0 0 1 0 0 0 -1 69729.dat
1 0 -40 -216 40 -1 0 0 0 1 0 0 0 -1 69729.dat
1 0 80 -216 40 -1 0 0 0 1 0 0 0 -1 69729.dat
1 0 0 -16 40 -1 0 0 0 1 0 0 0 -1 87079.dat
1 28 -160 -32 0 1 0 0 0 1 0 0 0 1 87079.dat
1 28 -80 -32 0 1 0 0 0 1 0 0 0 1 87079.dat
1 0 180 -216 40 -1 0 0 0 1 0 0 0 -1 87079.dat
1 72 -100 -232 -20 -1 0 0 0 1 0 0 0 -1 2445.dat
1 71 -100 -440 -20 -1 0 0 0 1 0 0 0 -1 2445.dat
1 4 -130 -304 0 -1 0 0 0 1 0 0 0 -1 24866.dat
1 4 150 -304 0 -1 0 0 0 1 0 0 0 -1 24866.dat
1 71 210 -264 -100 0 0 -1 0 1 0 1 0 0 3008.dat
1 71 -210 -264 -100 0 0 -1 0 1 0 1 0 0 3008.dat
1 71 -140 -264 -190 1 0 0 0 1 0 0 0 1 3008.dat
1 71 140 -264 -190 1 0 0 0 1 0 0 0 1 3008.dat
1 71 -120 -288 -190 1 0 0 0 1 0 0 0 1 3008.dat
1 71 120 -288 -190 1 0 0 0 1 0 0 0 1 3008.dat
1 71 -210 -312 -100 0 0 -1 0 1 0 1 0 0 3008.dat
1 71 -140 -312 -190 1 0 0 0 1 0 0 0 1 3008.dat
1 71 -120 -336 -190 1 0 0 0 1 0 0 0 1 3008.dat
1 71 120 -336 -190 1 0 0 0 1 0 0 0 1 3008.dat
1 71 140 -312 -190 1 0 0 0 1 0 0 0 1 3008.dat
1 71 210 -312 -100 0 0 -1 0 1 0 1 0 0 3008.dat
1 71 -210 -360 -100 0 0 -1 0 1 0 1 0 0 3008.dat
1 71 -140 -360 -190 1 0 0 0 1 0 0 0 1 3008.dat
1 71 -120 -384 -190 1 0 0 0 1 0 0 0 1 3008.dat
1 71 120 -384 -190 1 0 0 0 1 0 0 0 1 3008.dat
1 71 140 -360 -190 1 0 0 0 1 0 0 0 1 3008.dat
1 71 210 -360 -100 0 0 -1 0 1 0 1 0 0 3008.dat
1 71 210 -408 -100 0 0 -1 0 1 0 1 0 0 3008.dat
1 71 140 -408 -190 1 0 0 0 1 0 0 0 1 3008.dat
1 71 -140 -408 -190 1 0 0 0 1 0 0 0 1 3008.dat
1 71 -210 -408 -100 0 0 -1 0 1 0 1 0 0 3008.dat
1 71 -120 -432 -190 1 0 0 0 1 0 0 0 1 3008.dat
1 71 120 -432 -190 1 0 0 0 1 0 0 0 1 3008.dat
1 71 0 -264 -190 1 0 0 0 1 0 0 0 1 3009.dat
1 71 -210 -288 -140 0 0 -1 0 1 0 1 0 0 3009.dat
1 71 210 -288 -140 0 0 -1 0 1 0 1 0 0 3009.dat
1 71 -210 -336 -140 0 0 -1 0 1 0 1 0 0 3009.dat
1 71 0 -312 -190 1 0 0 0 1 0 0 0 1 3009.dat
1 71 210 -336 -140 0 0 -1 0 1 0 1 0 0 3009.dat
1 71 -210 -384 -140 0 0 -1 0 1 0 1 0 0 3009.dat
1 71 0 -360 -190 1 0 0 0 1 0 0 0 1 3009.dat
1 71 210 -384 -140 0 0 -1 0 1 0 1 0 0 3009.dat
1 71 0 -408 -190 1 0 0 0 1 0 0 0 1 3009.dat
1 71 -210 -432 -140 0 0 -1 0 1 0 1 0 0 3009.dat
1 71 210 -432 -140 0 0 -1 0 1 0 1 0 0 3009.dat
1 71 0 -288 -190 1 0 0 0 1 0 0 0 1 3010.dat
1 71 0 -336 -190 1 0 0 0 1 0 0 0 1 3010.dat
1 71 0 -384 -190 1 0 0 0 1 0 0 0 1 3010.dat
1 71 0 -432 -190 1 0 0 0 1 0 0 0 1 3010.dat
1 71 -160 -240 -80 0 0 -1 0 1 0 1 0 0 3036.dat
1 10 -130 -296 0 -0.70711 0 -0.70711 0 1 0 0.70711 0 -0.70711 32607.dat
1 10 150 -296 0 -0.70711 0 -0.70711 0 1 0 0.70711 0 -0.70711 32607.dat
1 72 -210 -232 -120 0 0 -1 0 1 0 1 0 0 3460.dat
1 72 210 -232 -120 0 0 -1 0 1 0 1 0 0 3460.dat
1 71 210 -440 -150 0 0 -1 0 1 0 1 0 0 3623.dat
1 71 -210 -440 -150 0 0 -1 0 1 0 1 0 0 3623.dat
1 71 210 -440 -80 0 0 -1 0 1 0 1 0 0 3710.dat
1 71 -210 -440 -80 0 0 -1 0 1 0 1 0 0 3710.dat
1 71 -130 -272 -20 0 0 1 0 1 0 -1 0 0 3794b.dat
1 71 -150 -272 -20 0 0 1 0 1 0 -1 0 0 3794b.dat
1 19 -140 -424 -20 -1 0 0 0 1 0 0 0 -1 3794b.dat
1 71 130 -272 -20 0 0 1 0 1 0 -1 0 0 3794b.dat
1 71 150 -272 -20 0 0 1 0 1 0 -1 0 0 3794b.dat
1 19 140 -424 -20 -1 0 0 0 1 0 0 0 -1 3794b.dat
1 71 160 -240 -180 -1 0 0 0 1 0 0 0 -1 3795.dat
1 72 120 -232 -20 -1 0 0 0 1 0 0 0 -1 3832.dat
1 72 -100 -232 -160 -1 0 0 0 1 0 0 0 -1 3832.dat
1 72 100 -232 -160 -1 0 0 0 1 0 0 0 -1 3832.dat
1 71 120 -440 -20 -1 0 0 0 1 0 0 0 -1 3832.dat
1 71 -210 -448 -120 0 0 -1 0 1 0 1 0 0 4162.dat
1 71 210 -448 -120 0 0 -1 0 1 0 1 0 0 4162.dat
1 71 -60 -240 -180 -1 0 0 0 1 0 0 0 -1 4282.dat
1 72 100 -232 -190 -1 0 0 0 1 0 0 0 -1 4477.dat
1 72 -100 -232 -190 -1 0 0 0 1 0 0 0 -1 4477.dat
1 71 120 -440 -190 1 0 0 0 1 0 0 0 1 4477.dat
1 71 -100 -440 -190 1 0 0 0 1 0 0 0 1 60479.dat
1 19 -140 -416 -20 -1 0 0 0 1 0 0 0 -1 60592.dat
1 19 140 -416 -20 -1 0 0 0 1 0 0 0 -1 60592.dat
1 71 -60 -448 -190 1 0 0 0 1 0 0 0 1 6636.dat
1 71 60 -448 -190 1 0 0 0 1 0 0 0 1 6636.dat
1 71 60 -240 -80 -1 0 0 0 1 0 0 0 -1 92438.dat
1 71 160 -448 -190 1 0 0 0 1 0 0 0 1 92593.dat
1 71 -160 -448 -190 1 0 0 0 1 0 0 0 1 92593.dat
1 71 -100 -288 -10 -1 0 0 0 1 0 0 0 -1 98283.dat
1 71 -80 -312 -10 -1 0 0 0 1 0 0 0 -1 98283.dat
1 71 -100 -336 -10 -1 0 0 0 1 0 0 0 -1 98283.dat
1 71 -100 -384 -10 -1 0 0 0 1 0 0 0 -1 98283.dat
1 71 -80 -408 -10 -1 0 0 0 1 0 0 0 -1 98283.dat
1 71 -60 -288 -10 -1 0 0 0 1 0 0 0 -1 98283.dat
1 71 -60 -336 -10 -1 0 0 0 1 0 0 0 -1 98283.dat
1 71 -40 -360 -10 -1 0 0 0 1 0 0 0 -1 98283.dat
1 71 -40 -408 -10 -1 0 0 0 1 0 0 0 -1 98283.dat
1 71 60 -288 -10 -1 0 0 0 1 0 0 0 -1 98283.dat
1 71 40 -312 -10 -1 0 0 0 1 0 0 0 -1 98283.dat
1 71 60 -336 -10 -1 0 0 0 1 0 0 0 -1 98283.dat
1 71 40 -360 -10 -1 0 0 0 1 0 0 0 -1 98283.dat
1 71 60 -384 -10 -1 0 0 0 1 0 0 0 -1 98283.dat
1 71 40 -408 -10 -1 0 0 0 1 0 0 0 -1 98283.dat
1 71 -200 -264 -10 -1 0 0 0 1 0 0 0 -1 98283.dat
1 71 -180 -288 -10 -1 0 0 0 1 0 0 0 -1 98283.dat
1 71 -200 -312 -10 -1 0 0 0 1 0 0 0 -1 98283.dat
1 71 -180 -336 -10 -1 0 0 0 1 0 0 0 -1 98283.dat
1 71 -200 -360 -10 -1 0 0 0 1 0 0 0 -1 98283.dat
1 71 -180 -384 -10 -1 0 0 0 1 0 0 0 -1 98283.dat
1 71 -60 -384 -10 -1 0 0 0 1 0 0 0 -1 98283.dat
1 71 -80 -360 -10 -1 0 0 0 1 0 0 0 -1 98283.dat
1 71 -200 -408 -10 -1 0 0 0 1 0 0 0 -1 98283.dat
1 71 -160 -264 -10 -1 0 0 0 1 0 0 0 -1 98283.dat
1 71 -40 -312 -10 -1 0 0 0 1 0 0 0 -1 98283.dat
1 71 40 -264 -10 -1 0 0 0 1 0 0 0 -1 98283.dat
1 71 80 -264 -10 -1 0 0 0 1 0 0 0 -1 98283.dat
1 71 120 -264 -10 -1 0 0 0 1 0 0 0 -1 98283.dat
1 71 160 -264 -10 -1 0 0 0 1 0 0 0 -1 98283.dat
1 71 -40 -264 -10 -1 0 0 0 1 0 0 0 -1 98283.dat
1 71 -80 -264 -10 -1 0 0 0 1 0 0 0 -1 98283.dat
1 71 -120 -264 -10 -1 0 0 0 1 0 0 0 -1 98283.dat
1 71 200 -264 -10 -1 0 0 0 1 0 0 0 -1 98283.dat
1 71 100 -288 -10 -1 0 0 0 1 0 0 0 -1 98283.dat
1 71 180 -288 -10 -1 0 0 0 1 0 0 0 -1 98283.dat
1 71 80 -312 -10 -1 0 0 0 1 0 0 0 -1 98283.dat
1 71 200 -312 -10 -1 0 0 0 1 0 0 0 -1 98283.dat
1 71 100 -336 -10 -1 0 0 0 1 0 0 0 -1 98283.dat
1 71 180 -336 -10 -1 0 0 0 1 0 0 0 -1 98283.dat
1 71 80 -360 -10 -1 0 0 0 1 0 0 0 -1 98283.dat
1 71 200 -360 -10 -1 0 0 0 1 0 0 0 -1 98283.dat
1 71 100 -384 -10 -1 0 0 0 1 0 0 0 -1 98283.dat
1 71 180 -384 -10 -1 0 0 0 1 0 0 0 -1 98283.dat
1 71 80 -408 -10 -1 0 0 0 1 0 0 0 -1 98283.dat
1 71 200 -408 -10 -1 0 0 0 1 0 0 0 -1 98283.dat
1 71 20 -336 -10 -1 0 0 0 1 0 0 0 -1 98283.dat
1 71 -20 -336 -10 -1 0 0 0 1 0 0 0 -1 98283.dat
1 71 20 -384 -10 -1 0 0 0 1 0 0 0 -1 98283.dat
1 71 -20 -384 -10 -1 0 0 0 1 0 0 0 -1 98283.dat
1 71 0 -408 -10 -1 0 0 0 1 0 0 0 -1 98283.dat
1 71 0 -360 -10 -1 0 0 0 1 0 0 0 -1 98283.dat
1 71 180 -432 -10 -1 0 0 0 1 0 0 0 -1 98283.dat
1 71 100 -432 -10 -1 0 0 0 1 0 0 0 -1 98283.dat
1 71 20 -432 -10 -1 0 0 0 1 0 0 0 -1 98283.dat
1 71 60 -432 -10 -1 0 0 0 1 0 0 0 -1 98283.dat
1 71 -60 -432 -10 -1 0 0 0 1 0 0 0 -1 98283.dat
1 71 -20 -432 -10 -1 0 0 0 1 0 0 0 -1 98283.dat
1 71 -100 -432 -10 -1 0 0 0 1 0 0 0 -1 98283.dat
1 71 -180 -432 -10 -1 0 0 0 1 0 0 0 -1 98283.dat
1 19 -140 -288 -20 -1 0 0 0 -1 0 0 0 1 28653.dat
1 19 140 -288 -20 -1 0 0 0 -1 0 0 0 1 28653.dat
1 30 0 -288 0 -1 0 0 0 1 0 0 0 -1 3003.dat
1 30 0 -312 0 -1 0 0 0 1 0 0 0 -1 3003.dat
1 30 0 -264 0 -1 0 0 0 1 0 0 0 -1 3003.dat
1 71 -30 -288 -10 -1 0 0 0 1 0 0 0 -1 3005.dat
1 28 -110 -312 -10 -1 0 0 0 1 0 0 0 -1 3005.dat
1 28 -110 -360 -10 -1 0 0 0 1 0 0 0 -1 3005.dat
1 28 -110 -408 -10 -1 0 0 0 1 0 0 0 -1 3005.dat
1 28 -170 -408 -10 -1 0 0 0 1 0 0 0 -1 3005.dat
1 28 -170 -360 -10 -1 0 0 0 1 0 0 0 -1 3005.dat
1 28 -170 -312 -10 -1 0 0 0 1 0 0 0 -1 3005.dat
1 28 110 -312 -10 -1 0 0 0 1 0 0 0 -1 3005.dat
1 28 170 -312 -10 -1 0 0 0 1 0 0 0 -1 3005.dat
1 28 170 -360 -10 -1 0 0 0 1 0 0 0 -1 3005.dat
1 28 110 -360 -10 -1 0 0 0 1 0 0 0 -1 3005.dat
1 28 170 -408 -10 -1 0 0 0 1 0 0 0 -1 3005.dat
1 28 110 -408 -10 -1 0 0 0 1 0 0 0 -1 3005.dat
1 71 30 -288 -10 -1 0 0 0 1 0 0 0 -1 3005.dat
1 28 -210 -288 -40 0 0 -1 0 1 0 1 0 0 3010.dat
1 28 -210 -336 -40 0 0 -1 0 1 0 1 0 0 3010.dat
1 28 -210 -384 -40 0 0 -1 0 1 0 1 0 0 3010.dat
1 28 210 -288 -40 0 0 -1 0 1 0 1 0 0 3010.dat
1 28 210 -336 -40 0 0 -1 0 1 0 1 0 0 3010.dat
1 28 210 -384 -40 0 0 -1 0 1 0 1 0 0 3010.dat
1 28 210 -432 -40 0 0 -1 0 1 0 1 0 0 3010.dat
1 28 -210 -432 -40 0 0 -1 0 1 0 1 0 0 3010.dat
1 71 140 -280 -10 -1 0 0 0 1 0 0 0 -1 3022.dat
1 19 -140 -288 -10 -1 0 0 0 1 0 0 0 -1 3022.dat
1 71 -140 -280 -10 -1 0 0 0 1 0 0 0 -1 3022.dat
1 19 140 -288 -10 -1 0 0 0 1 0 0 0 -1 3022.dat
1 71 140 -432 -20 -1 0 0 0 1 0 0 0 -1 3022.dat
1 71 -140 -432 -20 -1 0 0 0 1 0 0 0 -1 3022.dat
1 15 -20 -16 0 1 0 0 0 1 0 0 0 1 3068b.dat
1 15 20 -16 0 1 0 0 0 1 0 0 0 1 3068b.dat
1 15 20 -16 -40 1 0 0 0 1 0 0 0 1 3068b.dat
1 15 -20 -16 -40 1 0 0 0 1 0 0 0 1 3068b.dat
1 19 -140 -368 -20 -1 0 0 0 1 0 0 0 -1 60593.dat
1 19 140 -368 -20 -1 0 0 0 1 0 0 0 -1 60593.dat
