0 Converted
0 Author: Dominic Davis-Foster
0 Converted with https://mb-converter.netlify.app made by The_An0nym using the conversion files from Mecabricks.
1 71 60 -16 -40 -1 0 0 0 1 0 0 0 -1 92438.dat
0 STEP
1 72 120 -8 20 -1 0 0 0 1 0 0 0 -1 3832.dat
0 STEP
1 72 -100 -8 20 -1 0 0 0 1 0 0 0 -1 2445.dat
1 71 -180 -16 -40 0 0 -1 0 1 0 1 0 0 41539.dat
0 STEP
1 72 -210 -8 -80 0 0 -1 0 1 0 1 0 0 3460.dat
1 71 -20 -16 -140 -1 0 0 0 1 0 0 0 -1 2445.dat
1 71 -220 -16 -140 -1 0 0 0 1 0 0 0 -1 3034.dat
0 STEP
1 72 -100 -8 -120 -1 0 0 0 1 0 0 0 -1 3832.dat
0 STEP
1 71 160 -16 -140 -1 0 0 0 1 0 0 0 -1 3795.dat
1 72 100 -8 -120 -1 0 0 0 1 0 0 0 -1 3832.dat
1 72 210 -8 -80 0 0 -1 0 1 0 1 0 0 3460.dat
0 STEP
1 72 100 -8 -150 -1 0 0 0 1 0 0 0 -1 4477.dat
1 72 -100 -8 -150 -1 0 0 0 1 0 0 0 -1 4477.dat
0 STEP
1 71 -210 -40 -20 0 0 -1 0 1 0 1 0 0 3010.dat
1 71 -140 -40 -150 1 0 0 0 1 0 0 0 1 3008.dat
1 71 0 -40 -150 1 0 0 0 1 0 0 0 1 3009.dat
0 STEP
1 71 210 -40 -60 0 0 -1 0 1 0 1 0 0 3008.dat
1 71 140 -40 -150 1 0 0 0 1 0 0 0 1 3008.dat
0 STEP
1 71 120 -64 -150 1 0 0 0 1 0 0 0 1 3008.dat
1 71 210 -64 -100 0 0 -1 0 1 0 1 0 0 3009.dat
1 71 0 -64 -150 1 0 0 0 1 0 0 0 1 3010.dat
1 71 210 -64 -10 0 0 -1 0 1 0 1 0 0 3622.dat
0 STEP
1 71 -120 -64 -150 1 0 0 0 1 0 0 0 1 3008.dat
1 71 -210 -64 -150 1 0 0 0 1 0 0 0 1 3005.dat
1 71 -210 -64 -20 0 0 -1 0 1 0 1 0 0 3010.dat
0 STEP
1 71 -210 -88 -20 0 0 -1 0 1 0 1 0 0 3010.dat
1 71 -140 -88 -150 1 0 0 0 1 0 0 0 1 3008.dat
1 71 0 -88 -150 1 0 0 0 1 0 0 0 1 3009.dat
0 STEP
1 71 140 -88 -150 1 0 0 0 1 0 0 0 1 3008.dat
1 71 210 -88 -60 0 0 -1 0 1 0 1 0 0 3008.dat
0 STEP
1 71 210 -112 -10 0 0 -1 0 1 0 1 0 0 3622.dat
1 71 210 -112 -100 0 0 -1 0 1 0 1 0 0 3009.dat
1 71 120 -112 -150 1 0 0 0 1 0 0 0 1 3008.dat
1 71 0 -112 -150 1 0 0 0 1 0 0 0 1 3010.dat
0 STEP
1 71 -120 -112 -150 1 0 0 0 1 0 0 0 1 3008.dat
1 71 -210 -112 -150 1 0 0 0 1 0 0 0 1 3005.dat
1 71 -210 -112 -20 0 0 -1 0 1 0 1 0 0 3010.dat
0 STEP
1 71 -210 -136 -20 0 0 -1 0 1 0 1 0 0 3010.dat
1 71 -140 -136 -150 1 0 0 0 1 0 0 0 1 3008.dat
1 71 0 -136 -150 1 0 0 0 1 0 0 0 1 3009.dat
0 STEP
1 71 140 -136 -150 1 0 0 0 1 0 0 0 1 3008.dat
1 71 210 -136 -60 0 0 -1 0 1 0 1 0 0 3008.dat
0 STEP
1 71 210 -160 -10 0 0 -1 0 1 0 1 0 0 3622.dat
1 71 210 -160 -100 0 0 -1 0 1 0 1 0 0 3009.dat
1 71 120 -160 -150 1 0 0 0 1 0 0 0 1 3008.dat
1 71 0 -160 -150 1 0 0 0 1 0 0 0 1 3010.dat
0 STEP
1 71 -120 -160 -150 1 0 0 0 1 0 0 0 1 3008.dat
1 71 -210 -160 -150 1 0 0 0 1 0 0 0 1 3005.dat
1 71 -210 -160 -20 0 0 -1 0 1 0 1 0 0 3010.dat
0 STEP
1 71 -140 -184 -150 1 0 0 0 1 0 0 0 1 3008.dat
1 71 -210 -184 -60 0 0 -1 0 1 0 1 0 0 3008.dat
1 71 0 -184 -150 1 0 0 0 1 0 0 0 1 3009.dat
0 STEP
1 71 210 -184 -60 0 0 -1 0 1 0 1 0 0 3008.dat
1 71 140 -184 -150 1 0 0 0 1 0 0 0 1 3008.dat
0 STEP
1 71 -210 -192 -30 0 0 -1 0 1 0 1 0 0 3623.dat
1 71 -210 -192 -100 0 0 -1 0 1 0 1 0 0 3710.dat
1 71 -80 -192 -150 1 0 0 0 1 0 0 0 1 4477.dat
0 STEP
1 71 210 -192 -30 0 0 -1 0 1 0 1 0 0 3623.dat
1 71 210 -192 -100 0 0 -1 0 1 0 1 0 0 3710.dat
1 71 120 -192 -150 1 0 0 0 1 0 0 0 1 4477.dat
0 STEP
1 84 120 -40 30 -1 0 0 0 1 0 0 0 -1 11211.dat
1 84 0 -40 30 -1 0 0 0 1 0 0 0 -1 11211.dat
1 84 -120 -40 30 -1 0 0 0 1 0 0 0 -1 11211.dat
1 84 60 -40 30 -1 0 0 0 1 0 0 0 -1 3010.dat
1 84 -180 -39.9987 30 -1 0 0 0 1 0 0 0 -1 15533.dat
1 84 180 -40.0013 30 -1 0 0 0 1 0 0 0 -1 15533.dat
1 84 -60 -40 30 -1 0 0 0 1 0 0 0 -1 3010.dat
0 STEP
1 84 -160 -48 30 -1 0 0 0 1 0 0 0 -1 15573.dat
1 84 -120 -48 30 -1 0 0 0 1 0 0 0 -1 15573.dat
1 84 120 -48 30 -1 0 0 0 1 0 0 0 -1 15573.dat
1 84 0 -48 30 -1 0 0 0 1 0 0 0 -1 15573.dat
1 84 160 -48 30 -1 0 0 0 1 0 0 0 -1 15573.dat
1 84 60 -64 30 -1 0 0 0 1 0 0 0 -1 15533.dat
1 84 200 -64 30 -1 0 0 0 1 0 0 0 -1 98283.dat
1 84 -60 -64 30 -1 0 0 0 1 0 0 0 -1 15533.dat
0 STEP
1 84 140 -56 30 -1 0 0 0 1 0 0 0 -1 3020.dat
1 70 140 -64 30 -1 0 0 0 1 0 0 0 -1 3020.dat
1 70 140 -72 20 -1 0 0 0 1 0 0 0 -1 3710.dat
0 STEP
1 70 0 -64 30 0 0 1 0 1 0 -1 0 0 3022.dat
1 70 0 -72 20 -1 0 0 0 1 0 0 0 -1 3023b.dat
1 84 0 -56 30 0 0 1 0 1 0 -1 0 0 3022.dat
0 STEP
1 84 -140 -56 30 -1 0 0 0 1 0 0 0 -1 3020.dat
1 70 -140 -64 30 -1 0 0 0 1 0 0 0 -1 3020.dat
1 70 -140 -72 20 -1 0 0 0 1 0 0 0 -1 3710.dat
0 STEP
1 84 200 -88 30 -1 0 0 0 1 0 0 0 -1 98283.dat
1 84 200 -112 30 -1 0 0 0 1 0 0 0 -1 98283.dat
1 84 -60 -88 30 -1 0 0 0 1 0 0 0 -1 15533.dat
1 84 -60 -112 30 -1 0 0 0 1 0 0 0 -1 15533.dat
1 84 60 -88 30 -1 0 0 0 1 0 0 0 -1 15533.dat
1 84 60 -112 30 -1 0 0 0 1 0 0 0 -1 15533.dat
0 STEP
1 70 160 -120 20 -1 0 0 0 1 0 0 0 -1 60592.dat
1 70 120 -120 20 -1 0 0 0 1 0 0 0 -1 60592.dat
1 70 0 -120 20 -1 0 0 0 1 0 0 0 -1 60592.dat
1 70 -120 -120 20 -1 0 0 0 1 0 0 0 -1 60592.dat
1 70 -160 -120 20 -1 0 0 0 1 0 0 0 -1 60592.dat
0 STEP
1 84 200 -136 30 -1 0 0 0 1 0 0 0 -1 98283.dat
1 84 200 -160 30 -1 0 0 0 1 0 0 0 -1 98283.dat
1 84 -60 -160 30 -1 0 0 0 1 0 0 0 -1 15533.dat
1 84 -60 -136 30 -1 0 0 0 1 0 0 0 -1 15533.dat
1 84 60 -136 30 -1 0 0 0 1 0 0 0 -1 15533.dat
1 84 60 -160 30 -1 0 0 0 1 0 0 0 -1 15533.dat
0 STEP
1 70 -160 -168 20 -1 0 0 0 1 0 0 0 -1 60592.dat
1 70 -120 -168 20 -1 0 0 0 1 0 0 0 -1 60592.dat
1 70 0 -168 20 -1 0 0 0 1 0 0 0 -1 60592.dat
1 70 120 -168 20 -1 0 0 0 1 0 0 0 -1 60592.dat
1 70 160 -168 20 -1 0 0 0 1 0 0 0 -1 60592.dat
0 STEP
1 84 200 -184 30 -1 0 0 0 1 0 0 0 -1 98283.dat
1 84 -60 -184 30 -1 0 0 0 1 0 0 0 -1 15533.dat
1 84 60 -184 30 -1 0 0 0 1 0 0 0 -1 15533.dat
0 STEP
1 84 140 -184 20 -1 0 0 0 1 0 0 0 -1 3020.dat
1 84 -140 -184 20 -1 0 0 0 1 0 0 0 -1 3020.dat
1 84 0 -184 20 0 0 1 0 1 0 -1 0 0 3022.dat
1 70 160 -176 20 -1 0 0 0 1 0 0 0 -1 15573.dat
1 70 120 -176 20 -1 0 0 0 1 0 0 0 -1 15573.dat
1 70 0 -176 20 -1 0 0 0 1 0 0 0 -1 15573.dat
1 70 -120 -176 20 -1 0 0 0 1 0 0 0 -1 15573.dat
1 70 -160 -176 20 -1 0 0 0 1 0 0 0 -1 15573.dat
0 STEP
1 84 -140 -192 10 -1 0 0 0 1 0 0 0 -1 3460.dat
1 84 0 -192 10 -1 0 0 0 1 0 0 0 -1 3666.dat
1 84 140 -192 10 -1 0 0 0 1 0 0 0 -1 3460.dat
0 STEP
1 84 -190 -192 30 -1 0 0 0 1 0 0 0 -1 36840.dat
1 84 -150 -192 30 -1 0 0 0 1 0 0 0 -1 36840.dat
1 84 -110 -192 30 -1 0 0 0 1 0 0 0 -1 36840.dat
1 84 -70 -192 30 -1 0 0 0 1 0 0 0 -1 36840.dat
1 84 -30 -192 30 -1 0 0 0 1 0 0 0 -1 36840.dat
1 84 10 -192 30 -1 0 0 0 1 0 0 0 -1 36840.dat
1 84 50 -192 30 -1 0 0 0 1 0 0 0 -1 36840.dat
1 84 90 -192 30 -1 0 0 0 1 0 0 0 -1 36840.dat
1 84 130 -192 30 -1 0 0 0 1 0 0 0 -1 36840.dat
1 84 170 -192 30 -1 0 0 0 1 0 0 0 -1 36840.dat
1 84 210 -192 30 -1 0 0 0 1 0 0 0 -1 36840.dat
1 84 190 -192 30 -1 0 0 0 1 0 0 0 -1 3024.dat
1 84 150 -192 30 -1 0 0 0 1 0 0 0 -1 3024.dat
1 84 110 -192 30 -1 0 0 0 1 0 0 0 -1 3024.dat
1 84 70 -192 30 -1 0 0 0 1 0 0 0 -1 3024.dat
1 84 30 -192 30 -1 0 0 0 1 0 0 0 -1 3024.dat
1 84 -10 -192 30 -1 0 0 0 1 0 0 0 -1 3024.dat
1 84 -50 -192 30 -1 0 0 0 1 0 0 0 -1 3024.dat
1 84 -90 -192 30 -1 0 0 0 1 0 0 0 -1 3024.dat
1 84 -130 -192 30 -1 0 0 0 1 0 0 0 -1 3024.dat
1 84 -170 -192 30 -1 0 0 0 1 0 0 0 -1 3024.dat
1 84 -210 -192 30 -1 0 0 0 1 0 0 0 -1 3024.dat
0 STEP
1 84 -190 -194 52 -1 0 0 0 0 -1 0 -1 0 30039.dat
1 84 -150 -194 52 -1 0 0 0 0 -1 0 -1 0 30039.dat
1 84 -110 -194 52 -1 0 0 0 0 -1 0 -1 0 30039.dat
1 84 -70 -194 52 -1 0 0 0 0 -1 0 -1 0 30039.dat
1 84 -30 -194 52 -1 0 0 0 0 -1 0 -1 0 30039.dat
1 84 10 -194 52 -1 0 0 0 0 -1 0 -1 0 30039.dat
1 84 50 -194 52 -1 0 0 0 0 -1 0 -1 0 30039.dat
1 84 90 -194 52 -1 0 0 0 0 -1 0 -1 0 30039.dat
1 84 130 -194 52 -1 0 0 0 0 -1 0 -1 0 30039.dat
1 84 210 -194 52 -1 0 0 0 0 -1 0 -1 0 30039.dat
1 84 170 -194 52 -1 0 0 0 0 -1 0 -1 0 30039.dat
0 STEP
1 71 -180 -200 20 -1 0 0 0 1 0 0 0 -1 87079.dat
1 71 160 -200 20 -1 0 0 0 1 0 0 0 -1 69729.dat
1 71 40 -200 20 -1 0 0 0 1 0 0 0 -1 69729.dat
1 71 -80 -200 20 -1 0 0 0 1 0 0 0 -1 69729.dat
0 STEP
1 28 80 -20 48 -1 0 0 0 0 -1 0 -1 0 3034.dat
1 28 -80 -20 48 -1 0 0 0 0 -1 0 -1 0 3034.dat
0 STEP
1 28 40 -20 56 -1 0 0 0 0 -1 0 -1 0 87079.dat
1 28 -120 -20 55.9988 -1 0 0 0 0 -1 0 -1 0 87079.dat
1 28 120 -20 56.0012 -1 0 0 0 0 -1 0 -1 0 87079.dat
1 28 -40 -20 56 -1 0 0 0 0 -1 0 -1 0 87079.dat
0 STEP
1 4 130 -80 40 -1 0 0 0 1 0 0 0 -1 24866.dat
1 4 10 -80 40 -1 0 0 0 1 0 0 0 -1 24866.dat
1 4 -130 -80 40 -1 0 0 0 1 0 0 0 -1 24866.dat
1 10 130 -72 40 -0.70711 0 -0.70711 0 1 0 0.70711 0 -0.70711 32607.dat
1 10 10 -72 40 -0.92388 0 -0.38269 0 1 0 0.38269 0 -0.92388 32607.dat
1 10 -130 -72 40 -0.70711 0 -0.70711 0 1 0 0.70711 0 -0.70711 32607.dat
0 STEP
1 71 -210 -200 -40 0 0 -1 0 1 0 1 0 0 41740.dat
1 71 210 -200 -40 0 0 -1 0 1 0 1 0 0 41740.dat
1 71 -60 -200 -150 1 0 0 0 1 0 0 0 1 6636.dat
1 71 60 -200 -150 1 0 0 0 1 0 0 0 1 6636.dat
1 71 160 -200 -150 1 0 0 0 1 0 0 0 1 41740.dat
1 71 -160 -200 -150 1 0 0 0 1 0 0 0 1 41740.dat
1 71 -210 -200 -120 0 0 -1 0 1 0 1 0 0 35371.dat
1 71 210 -200 -120 0 0 -1 0 1 0 1 0 0 35371.dat
1 72 -210 -160 -100 0 0 -1 0 1 0 1 0 0 60596.dat
