1 71 0 -8 25 1 0 0 0 1 0 0 0 1 41539.dat
1 72 0 -8 -75 1 0 0 0 1 0 0 0 1 3034.dat
0 STEP
1 71 0 -16 -75 1 0 0 0 1 0 0 0 1 3020.dat
0 STEP
1 84 -40 -40 -85 1 0 0 0 1 0 0 0 1 15533.dat
1 84 40 -40 -85 1 0 0 0 1 0 0 0 1 15533.dat
0 STEP
1 84 0 -48 -85 1 0 0 0 1 0 0 0 1 15573.dat
1 84 30 -48 -85 1 0 0 0 1 0 0 0 1 3070b.dat
1 84 -30 -48 -85 1 0 0 0 1 0 0 0 1 3070b.dat
0 STEP
1 72 0 -40 -65 1 0 0 0 1 0 0 0 1 3010.dat
1 72 0 -48 -65 1 0 0 0 1 0 0 0 1 41740.dat
0 STEP
1 70 0 -64 -85 1 0 0 0 1 0 0 0 1 3022.dat
1 84 0 -56 -85 1 0 0 0 1 0 0 0 1 3022.dat
0 STEP
1 0 30 -56 -67 1 0 0 0 1 0 0 0 1 73825.dat
1 0 -30 -56 -67 1 0 0 0 1 0 0 0 1 73825.dat
0 STEP
1 70 0 -120 -75 1 0 0 0 1 0 0 0 1 60592.dat
1 70 0 -72 -75 1 0 0 0 1 0 0 0 1 3023.dat
0 STEP
1 70 0 -168 -75 1 0 0 0 1 0 0 0 1 60592.dat
0 STEP
1 84 30 -108 -89 0 0 -1 -1 0 0 0 1 0 6636.dat
1 84 -30 -108 -89 0 0 -1 -1 0 0 0 1 0 6636.dat
0 STEP
1 0 -30 -168 -67 1 0 0 0 1 0 0 0 1 79389.dat
1 0 30 -168 -67 1 0 0 0 1 0 0 0 1 79389.dat
0 STEP
1 70 0 -176 -75 1 0 0 0 1 0 0 0 1 15573.dat
1 84 30 -176 -69 0 0 -1 0 1 0 1 0 0 3069b.dat
1 84 -30 -176 -69 0 0 -1 0 1 0 1 0 0 3069b.dat
0 STEP
1 84 0 -184 -75 1 0 0 0 1 0 0 0 1 3020.dat
0 STEP
1 84 -80 -160 -85 1 0 0 0 1 0 0 0 1 15533.dat
1 84 80 -160 -85 1 0 0 0 1 0 0 0 1 15533.dat
1 84 -80 -64 -85 1 0 0 0 1 0 0 0 1 15533.dat
1 84 80 -64 -85 1 0 0 0 1 0 0 0 1 15533.dat
1 84 -80 -88 -85 1 0 0 0 1 0 0 0 1 15533.dat
1 84 80 -88 -85 1 0 0 0 1 0 0 0 1 15533.dat
1 84 -80 -112 -85 1 0 0 0 1 0 0 0 1 15533.dat
1 84 80 -112 -85 1 0 0 0 1 0 0 0 1 15533.dat
1 84 -80 -136 -85 1 0 0 0 1 0 0 0 1 15533.dat
1 84 80 -136 -85 1 0 0 0 1 0 0 0 1 15533.dat
1 84 -80 -184 -85 1 0 0 0 1 0 0 0 1 15533.dat
1 84 80 -184 -85 1 0 0 0 1 0 0 0 1 15533.dat
0 STEP
1 84 0 -224 -85 1 0 0 0 1 0 0 0 1 22885.dat
0 STEP
1 84 -40 -192 -75 -1 0 0 0 1 0 0 0 -1 3022.dat
1 84 40 -192 -75 -1 0 0 0 1 0 0 0 -1 3022.dat
1 84 -70 -192 -85 1 0 0 0 1 0 0 0 1 36840.dat
1 84 70 -192 -85 1 0 0 0 1 0 0 0 1 36840.dat
0 STEP
1 71 -50 -200 -75 -1 0 0 0 1 0 0 0 -1 3021.dat
1 71 50 -200 -75 -1 0 0 0 1 0 0 0 -1 3021.dat
0 STEP
1 0 -50 -208 -65 -1 0 0 0 1 0 0 0 -1 63864.dat
1 0 50 -208 -65 -1 0 0 0 1 0 0 0 -1 63864.dat
1 72 -50 -208 -85 -1 0 0 0 1 0 0 0 -1 3623.dat
1 72 50 -208 -85 -1 0 0 0 1 0 0 0 -1 3623.dat
0 STEP
1 71 -70 -216 -85 -1 0 0 0 1 0 0 0 -1 3070b.dat
1 71 70 -216 -85 -1 0 0 0 1 0 0 0 -1 3070b.dat
1 71 -40 -216 -85 -1 0 0 0 1 0 0 0 -1 3023.dat
1 71 40 -216 -85 -1 0 0 0 1 0 0 0 -1 3023.dat
0 STEP
1 84 -40 -224 -85 -1 0 0 0 1 0 0 0 -1 3023.dat
1 84 40 -224 -85 -1 0 0 0 1 0 0 0 -1 3023.dat
0 STEP
1 84 -50 -232 -85 -1 0 0 0 1 0 0 0 -1 3070b.dat
1 84 50 -232 -85 -1 0 0 0 1 0 0 0 -1 3070b.dat
1 84 0 -232 -85 -1 0 0 0 1 0 0 0 -1 41740.dat
0 STEP
1 19 0 -204 -103 0 0 1 1 0 0 0 1 0 66857.dat
1 84 70 -194 -107 1 0 0 0 0 -1 0 1 0 3070b.dat
1 84 -70 -194 -107 1 0 0 0 0 -1 0 1 0 3070b.dat
0 STEP
1 71 0 -192 95 1 0 0 0 1 0 0 0 1 60479.dat
0 STEP
1 71 40 -200 95 1 0 0 0 1 0 0 0 1 2431.dat
1 71 -40 -200 95 1 0 0 0 1 0 0 0 1 2431.dat
