0 Converted
0 Author: Dominic Davis-Foster
0 Converted with https://mb-converter.netlify.app made by The_An0nym using the conversion files from Mecabricks.
1 71 0 -240 120 1 0 0 0 1 0 0 0 1 92438.dat
0 STEP
1 72 -60 -232 60 1 0 0 0 1 0 0 0 1 3832.dat
0 STEP
1 72 160 -232 60 1 0 0 0 1 0 0 0 1 2445.dat
1 71 240 -240 120 0 0 1 0 1 0 -1 0 0 41539.dat
0 STEP
1 72 270 -232 160 0 0 1 0 1 0 -1 0 0 3460.dat
1 71 80 -240 220 1 0 0 0 1 0 0 0 1 2445.dat
1 71 280 -240 220 1 0 0 0 1 0 0 0 1 3034.dat
0 STEP
1 72 160 -232 200 1 0 0 0 1 0 0 0 1 3832.dat
0 STEP
1 71 -100 -240 220 1 0 0 0 1 0 0 0 1 3795.dat
1 72 -40 -232 200 1 0 0 0 1 0 0 0 1 3832.dat
1 72 -150 -232 160 0 0 1 0 1 0 -1 0 0 3460.dat
0 STEP
1 72 -40 -232 230 1 0 0 0 1 0 0 0 1 4477.dat
1 72 160 -232 230 1 0 0 0 1 0 0 0 1 4477.dat
0 STEP
1 71 270 -264 100 0 0 1 0 1 0 -1 0 0 3010.dat
1 71 200 -264 230 -1 0 0 0 1 0 0 0 -1 3008.dat
1 71 60 -264 230 -1 0 0 0 1 0 0 0 -1 3009.dat
0 STEP
1 71 -150 -264 140 0 0 1 0 1 0 -1 0 0 3008.dat
1 71 -80 -264 230 -1 0 0 0 1 0 0 0 -1 3008.dat
0 STEP
1 71 -60 -288 230 -1 0 0 0 1 0 0 0 -1 3008.dat
1 71 -150 -288 180 0 0 1 0 1 0 -1 0 0 3009.dat
1 71 60 -288 230 -1 0 0 0 1 0 0 0 -1 3010.dat
1 71 -150 -288 90 0 0 1 0 1 0 -1 0 0 3622.dat
0 STEP
1 71 180 -288 230 -1 0 0 0 1 0 0 0 -1 3008.dat
1 71 270 -288 230 -1 0 0 0 1 0 0 0 -1 3005.dat
1 71 270 -288 100 0 0 1 0 1 0 -1 0 0 3010.dat
0 STEP
1 71 270 -312 100 0 0 1 0 1 0 -1 0 0 3010.dat
1 71 200 -312 230 -1 0 0 0 1 0 0 0 -1 3008.dat
1 71 60 -312 230 -1 0 0 0 1 0 0 0 -1 3009.dat
0 STEP
1 71 -80 -312 230 -1 0 0 0 1 0 0 0 -1 3008.dat
1 71 -150 -312 140 0 0 1 0 1 0 -1 0 0 3008.dat
0 STEP
1 71 -150 -336 90 0 0 1 0 1 0 -1 0 0 3622.dat
1 71 -150 -336 180 0 0 1 0 1 0 -1 0 0 3009.dat
1 71 -60 -336 230 -1 0 0 0 1 0 0 0 -1 3008.dat
1 71 60 -336 230 -1 0 0 0 1 0 0 0 -1 3010.dat
0 STEP
1 71 180 -336 230 -1 0 0 0 1 0 0 0 -1 3008.dat
1 71 270 -336 230 -1 0 0 0 1 0 0 0 -1 3005.dat
1 71 270 -336 100 0 0 1 0 1 0 -1 0 0 3010.dat
0 STEP
1 71 270 -360 100 0 0 1 0 1 0 -1 0 0 3010.dat
1 71 200 -360 230 -1 0 0 0 1 0 0 0 -1 3008.dat
1 71 60 -360 230 -1 0 0 0 1 0 0 0 -1 3009.dat
0 STEP
1 71 -80 -360 230 -1 0 0 0 1 0 0 0 -1 3008.dat
1 71 -150 -360 140 0 0 1 0 1 0 -1 0 0 3008.dat
0 STEP
1 71 -150 -384 90 0 0 1 0 1 0 -1 0 0 3622.dat
1 71 -150 -384 180 0 0 1 0 1 0 -1 0 0 3009.dat
1 71 -60 -384 230 -1 0 0 0 1 0 0 0 -1 3008.dat
1 71 60 -384 230 -1 0 0 0 1 0 0 0 -1 3010.dat
0 STEP
1 71 180 -384 230 -1 0 0 0 1 0 0 0 -1 3008.dat
1 71 270 -384 230 -1 0 0 0 1 0 0 0 -1 3005.dat
1 71 270 -384 100 0 0 1 0 1 0 -1 0 0 3010.dat
0 STEP
1 72 270 -384 180 0 0 1 0 1 0 -1 0 0 60596.dat
0 STEP
1 71 200 -408 230 -1 0 0 0 1 0 0 0 -1 3008.dat
1 71 270 -408 140 0 0 1 0 1 0 -1 0 0 3008.dat
1 71 60 -408 230 -1 0 0 0 1 0 0 0 -1 3009.dat
0 STEP
1 71 -150 -408 140 0 0 1 0 1 0 -1 0 0 3008.dat
1 71 -80 -408 230 -1 0 0 0 1 0 0 0 -1 3008.dat
0 STEP
1 71 270 -416 110 0 0 1 0 1 0 -1 0 0 3623.dat
1 71 270 -416 180 0 0 1 0 1 0 -1 0 0 3710.dat
1 71 140 -416 230 -1 0 0 0 1 0 0 0 -1 4477.dat
0 STEP
1 71 -150 -416 110 0 0 1 0 1 0 -1 0 0 3623.dat
1 71 -150 -416 180 0 0 1 0 1 0 -1 0 0 3710.dat
1 71 -60 -416 230 -1 0 0 0 1 0 0 0 -1 4477.dat
0 STEP
1 84 -60 -264 50 1 0 0 0 1 0 0 0 1 11211.dat
1 84 60 -264 50 1 0 0 0 1 0 0 0 1 11211.dat
1 84 180 -264 50 1 0 0 0 1 0 0 0 1 11211.dat
1 84 0 -264 50 1 0 0 0 1 0 0 0 1 3010.dat
1 84 240 -264 50 1 0 0 0 1 0 0 0 1 15533.dat
1 84 -120 -264 50 1 0 0 0 1 0 0 0 1 15533.dat
1 84 120 -264 50 1 0 0 0 1 0 0 0 1 3010.dat
0 STEP
1 84 220 -272 50 1 0 0 0 1 0 0 0 1 15573.dat
1 84 180 -272 50 1 0 0 0 1 0 0 0 1 15573.dat
1 84 -60 -272 50 1 0 0 0 1 0 0 0 1 15573.dat
1 84 60 -272 50 1 0 0 0 1 0 0 0 1 15573.dat
1 84 -100 -272 50 1 0 0 0 1 0 0 0 1 15573.dat
1 84 0 -288 50 1 0 0 0 1 0 0 0 1 15533.dat
1 84 -140 -288 50 1 0 0 0 1 0 0 0 1 98283.dat
1 84 120 -288 50 1 0 0 0 1 0 0 0 1 15533.dat
0 STEP
1 84 -80 -280 50 1 0 0 0 1 0 0 0 1 3020.dat
1 70 -80 -288 50 1 0 0 0 1 0 0 0 1 3020.dat
1 70 -80 -296 60 1 0 0 0 1 0 0 0 1 3710.dat
0 STEP
1 70 60 -288 50 0 0 -1 0 1 0 1 0 0 3022.dat
1 70 60 -296 60 1 0 0 0 1 0 0 0 1 3023.dat
1 84 60 -280 50 0 0 -1 0 1 0 1 0 0 3022.dat
0 STEP
1 84 200 -280 50 1 0 0 0 1 0 0 0 1 3020.dat
1 70 200 -288 50 1 0 0 0 1 0 0 0 1 3020.dat
1 70 200 -296 60 1 0 0 0 1 0 0 0 1 3710.dat
0 STEP
1 84 -140 -312 50 1 0 0 0 1 0 0 0 1 98283.dat
1 84 -140 -336 50 1 0 0 0 1 0 0 0 1 98283.dat
1 84 120 -312 50 1 0 0 0 1 0 0 0 1 15533.dat
1 84 120 -336 50 1 0 0 0 1 0 0 0 1 15533.dat
1 84 0 -312 50 1 0 0 0 1 0 0 0 1 15533.dat
1 84 0 -336 50 1 0 0 0 1 0 0 0 1 15533.dat
0 STEP
1 70 -100 -344 60 1 0 0 0 1 0 0 0 1 60592.dat
1 70 -60 -344 60 1 0 0 0 1 0 0 0 1 60592.dat
1 70 60 -344 60 1 0 0 0 1 0 0 0 1 60592.dat
1 70 180 -344 60 1 0 0 0 1 0 0 0 1 60592.dat
1 70 220 -344 60 1 0 0 0 1 0 0 0 1 60592.dat
0 STEP
1 84 -140 -360 50 1 0 0 0 1 0 0 0 1 98283.dat
1 84 -140 -384 50 1 0 0 0 1 0 0 0 1 98283.dat
1 84 120 -384 50 1 0 0 0 1 0 0 0 1 15533.dat
1 84 120 -360 50 1 0 0 0 1 0 0 0 1 15533.dat
1 84 0 -360 50 1 0 0 0 1 0 0 0 1 15533.dat
1 84 0 -384 50 1 0 0 0 1 0 0 0 1 15533.dat
0 STEP
1 70 220 -392 60 1 0 0 0 1 0 0 0 1 60592.dat
1 70 180 -392 60 1 0 0 0 1 0 0 0 1 60592.dat
1 70 60 -392 60 1 0 0 0 1 0 0 0 1 60592.dat
1 70 -60 -392 60 1 0 0 0 1 0 0 0 1 60592.dat
1 70 -100 -392 60 1 0 0 0 1 0 0 0 1 60592.dat
0 STEP
1 84 -140 -408 50 1 0 0 0 1 0 0 0 1 98283.dat
1 84 120 -408 50 1 0 0 0 1 0 0 0 1 15533.dat
1 84 0 -408 50 1 0 0 0 1 0 0 0 1 15533.dat
0 STEP
1 84 -80 -408 60 1 0 0 0 1 0 0 0 1 3020.dat
1 84 200 -408 60 1 0 0 0 1 0 0 0 1 3020.dat
1 84 60 -408 60 0 0 -1 0 1 0 1 0 0 3022.dat
1 70 -100 -400 60 1 0 0 0 1 0 0 0 1 15573.dat
1 70 -60 -400 60 1 0 0 0 1 0 0 0 1 15573.dat
1 70 60 -400 60 1 0 0 0 1 0 0 0 1 15573.dat
1 70 180 -400 60 1 0 0 0 1 0 0 0 1 15573.dat
1 70 220 -400 60 1 0 0 0 1 0 0 0 1 15573.dat
0 STEP
1 84 200 -416 70 1 0 0 0 1 0 0 0 1 3460.dat
1 84 60 -416 70 1 0 0 0 1 0 0 0 1 3666.dat
1 84 -80 -416 70 1 0 0 0 1 0 0 0 1 3460.dat
0 STEP
1 84 250 -416 50 1 0 0 0 1 0 0 0 1 36840.dat
1 84 210 -416 50 1 0 0 0 1 0 0 0 1 36840.dat
1 84 170 -416 50 1 0 0 0 1 0 0 0 1 36840.dat
1 84 130 -416 50 1 0 0 0 1 0 0 0 1 36840.dat
1 84 90 -416 50 1 0 0 0 1 0 0 0 1 36840.dat
1 84 50 -416 50 1 0 0 0 1 0 0 0 1 36840.dat
1 84 10 -416 50 1 0 0 0 1 0 0 0 1 36840.dat
1 84 -30 -416 50 1 0 0 0 1 0 0 0 1 36840.dat
1 84 -70 -416 50 1 0 0 0 1 0 0 0 1 36840.dat
1 84 -110 -416 50 1 0 0 0 1 0 0 0 1 36840.dat
1 84 -150 -416 50 1 0 0 0 1 0 0 0 1 36840.dat
1 84 -130 -416 50 1 0 0 0 1 0 0 0 1 3024.dat
1 84 -90 -416 50 1 0 0 0 1 0 0 0 1 3024.dat
1 84 -50 -416 50 1 0 0 0 1 0 0 0 1 3024.dat
1 84 -10 -416 50 1 0 0 0 1 0 0 0 1 3024.dat
1 84 30 -416 50 1 0 0 0 1 0 0 0 1 3024.dat
1 84 70 -416 50 1 0 0 0 1 0 0 0 1 3024.dat
1 84 110 -416 50 1 0 0 0 1 0 0 0 1 3024.dat
1 84 150 -416 50 1 0 0 0 1 0 0 0 1 3024.dat
1 84 190 -416 50 1 0 0 0 1 0 0 0 1 3024.dat
1 84 230 -416 50 1 0 0 0 1 0 0 0 1 3024.dat
1 84 270 -416 50 1 0 0 0 1 0 0 0 1 3024.dat
0 STEP
1 84 250 -418 28 1 0 0 0 0 -1 0 1 0 3070b.dat
1 84 210 -418 28 1 0 0 0 0 -1 0 1 0 3070b.dat
1 84 170 -418 28 1 0 0 0 0 -1 0 1 0 3070b.dat
1 84 130 -418 28 1 0 0 0 0 -1 0 1 0 3070b.dat
1 84 90 -418 28 1 0 0 0 0 -1 0 1 0 3070b.dat
1 84 50 -418 28 1 0 0 0 0 -1 0 1 0 3070b.dat
1 84 10 -418 28 1 0 0 0 0 -1 0 1 0 3070b.dat
1 84 -30 -418 28 1 0 0 0 0 -1 0 1 0 3070b.dat
1 84 -70 -418 28 1 0 0 0 0 -1 0 1 0 3070b.dat
1 84 -150 -418 28 1 0 0 0 0 -1 0 1 0 3070b.dat
1 84 -110 -418 28 1 0 0 0 0 -1 0 1 0 3070b.dat
0 STEP
1 71 240 -424 60 1 0 0 0 1 0 0 0 1 87079.dat
1 71 -100 -424 60 1 0 0 0 1 0 0 0 1 69729.dat
1 71 20 -424 60 1 0 0 0 1 0 0 0 1 69729.dat
1 71 140 -424 60 1 0 0 0 1 0 0 0 1 69729.dat
0 STEP
1 28 -20 -244 32 1 0 0 0 0 -1 0 1 0 3034.dat
1 28 140 -244 32 1 0 0 0 0 -1 0 1 0 3034.dat
0 STEP
1 28 20 -244 24 1 0 0 0 0 -1 0 1 0 87079.dat
1 28 180 -244 24 1 0 0 0 0 -1 0 1 0 87079.dat
1 28 -60 -244 24 1 0 0 0 0 -1 0 1 0 87079.dat
1 28 100 -244 24 1 0 0 0 0 -1 0 1 0 87079.dat
0 STEP
1 4 -70 -304 40 1 0 0 0 1 0 0 0 1 24866.dat
1 4 50 -304 40 1 0 0 0 1 0 0 0 1 24866.dat
1 4 190 -304 40 1 0 0 0 1 0 0 0 1 24866.dat
1 10 -70 -296 40 1 0 1 0 1 0 -1 0 1 32607.dat
1 10 50 -296 40 1 0 0 0 1 0 0 0 1 32607.dat
1 10 190 -296 40 1 0 1 0 1 0 -1 0 1 32607.dat
0 STEP
1 71 270 -424 120 0 0 1 0 1 0 -1 0 0 41740.dat
1 71 -150 -424 120 0 0 1 0 1 0 -1 0 0 41740.dat
1 71 120 -424 230 -1 0 0 0 1 0 0 0 -1 6636.dat
1 71 0 -424 230 -1 0 0 0 1 0 0 0 -1 6636.dat
1 71 -100 -424 230 -1 0 0 0 1 0 0 0 -1 41740.dat
1 71 220 -424 230 -1 0 0 0 1 0 0 0 -1 41740.dat
1 71 270 -424 200 0 0 1 0 1 0 -1 0 0 2431.dat
1 71 -150 -424 200 0 0 1 0 1 0 -1 0 0 2431.dat
0 Converted
0 Author: Dominic Davis-Foster
0 Converted with https://mb-converter.netlify.app made by The_An0nym using the conversion files from Mecabricks.
1 71 720 -240 120 1 0 0 0 1 0 0 0 1 92438.dat
0 STEP
1 72 780 -232 60 1 0 0 0 1 0 0 0 1 3832.dat
0 STEP
1 72 560 -232 60 1 0 0 0 1 0 0 0 1 2445.dat
1 71 480 -240 120 0 0 1 0 1 0 -1 0 0 41539.dat
0 STEP
1 72 450 -232 160 0 0 1 0 1 0 -1 0 0 3460.dat
1 71 640 -240 220 1 0 0 0 1 0 0 0 1 2445.dat
1 71 440 -240 220 1 0 0 0 1 0 0 0 1 3034.dat
0 STEP
1 72 560 -232 200 1 0 0 0 1 0 0 0 1 3832.dat
0 STEP
1 71 820 -240 220 1 0 0 0 1 0 0 0 1 3795.dat
1 72 760 -232 200 1 0 0 0 1 0 0 0 1 3832.dat
1 72 870 -232 160 0 0 1 0 1 0 -1 0 0 3460.dat
0 STEP
1 72 760 -232 230 1 0 0 0 1 0 0 0 1 4477.dat
1 72 560 -232 230 1 0 0 0 1 0 0 0 1 4477.dat
0 STEP
1 71 450 -264 100 0 0 1 0 1 0 -1 0 0 3010.dat
1 71 520 -264 230 -1 0 0 0 1 0 0 0 -1 3008.dat
1 71 660 -264 230 -1 0 0 0 1 0 0 0 -1 3009.dat
0 STEP
1 71 870 -264 140 0 0 1 0 1 0 -1 0 0 3008.dat
1 71 800 -264 230 -1 0 0 0 1 0 0 0 -1 3008.dat
0 STEP
1 71 780 -288 230 -1 0 0 0 1 0 0 0 -1 3008.dat
1 71 870 -288 180 0 0 1 0 1 0 -1 0 0 3009.dat
1 71 660 -288 230 -1 0 0 0 1 0 0 0 -1 3010.dat
1 71 870 -288 90 0 0 1 0 1 0 -1 0 0 3622.dat
0 STEP
1 71 540 -288 230 -1 0 0 0 1 0 0 0 -1 3008.dat
1 71 450 -288 230 -1 0 0 0 1 0 0 0 -1 3005.dat
1 71 450 -288 100 0 0 1 0 1 0 -1 0 0 3010.dat
0 STEP
1 71 450 -312 100 0 0 1 0 1 0 -1 0 0 3010.dat
1 71 520 -312 230 -1 0 0 0 1 0 0 0 -1 3008.dat
1 71 660 -312 230 -1 0 0 0 1 0 0 0 -1 3009.dat
0 STEP
1 71 800 -312 230 -1 0 0 0 1 0 0 0 -1 3008.dat
1 71 870 -312 140 0 0 1 0 1 0 -1 0 0 3008.dat
0 STEP
1 71 870 -336 90 0 0 1 0 1 0 -1 0 0 3622.dat
1 71 870 -336 180 0 0 1 0 1 0 -1 0 0 3009.dat
1 71 780 -336 230 -1 0 0 0 1 0 0 0 -1 3008.dat
1 71 660 -336 230 -1 0 0 0 1 0 0 0 -1 3010.dat
0 STEP
1 71 540 -336 230 -1 0 0 0 1 0 0 0 -1 3008.dat
1 71 450 -336 230 -1 0 0 0 1 0 0 0 -1 3005.dat
1 71 450 -336 100 0 0 1 0 1 0 -1 0 0 3010.dat
0 STEP
1 71 450 -360 100 0 0 1 0 1 0 -1 0 0 3010.dat
1 71 520 -360 230 -1 0 0 0 1 0 0 0 -1 3008.dat
1 71 660 -360 230 -1 0 0 0 1 0 0 0 -1 3009.dat
0 STEP
1 71 800 -360 230 -1 0 0 0 1 0 0 0 -1 3008.dat
1 71 870 -360 140 0 0 1 0 1 0 -1 0 0 3008.dat
0 STEP
1 71 870 -384 90 0 0 1 0 1 0 -1 0 0 3622.dat
1 71 870 -384 180 0 0 1 0 1 0 -1 0 0 3009.dat
1 71 780 -384 230 -1 0 0 0 1 0 0 0 -1 3008.dat
1 71 660 -384 230 -1 0 0 0 1 0 0 0 -1 3010.dat
0 STEP
1 71 540 -384 230 -1 0 0 0 1 0 0 0 -1 3008.dat
1 71 450 -384 230 -1 0 0 0 1 0 0 0 -1 3005.dat
1 71 450 -384 100 0 0 1 0 1 0 -1 0 0 3010.dat
0 STEP
1 72 450 -384 180 0 0 1 0 1 0 -1 0 0 60596.dat
0 STEP
1 71 520 -408 230 -1 0 0 0 1 0 0 0 -1 3008.dat
1 71 450 -408 140 0 0 1 0 1 0 -1 0 0 3008.dat
1 71 660 -408 230 -1 0 0 0 1 0 0 0 -1 3009.dat
0 STEP
1 71 870 -408 140 0 0 1 0 1 0 -1 0 0 3008.dat
1 71 800 -408 230 -1 0 0 0 1 0 0 0 -1 3008.dat
0 STEP
1 71 450 -416 110 0 0 1 0 1 0 -1 0 0 3623.dat
1 71 450 -416 180 0 0 1 0 1 0 -1 0 0 3710.dat
1 71 580 -416 230 -1 0 0 0 1 0 0 0 -1 4477.dat
0 STEP
1 71 870 -416 110 0 0 1 0 1 0 -1 0 0 3623.dat
1 71 870 -416 180 0 0 1 0 1 0 -1 0 0 3710.dat
1 71 780 -416 230 -1 0 0 0 1 0 0 0 -1 4477.dat
0 STEP
1 84 780 -264 50 1 0 0 0 1 0 0 0 1 11211.dat
1 84 660 -264 50 1 0 0 0 1 0 0 0 1 11211.dat
1 84 540 -264 50 1 0 0 0 1 0 0 0 1 11211.dat
1 84 720 -264 50 1 0 0 0 1 0 0 0 1 3010.dat
1 84 480 -264 50 1 0 0 0 1 0 0 0 1 15533.dat
1 84 840 -264 50 1 0 0 0 1 0 0 0 1 15533.dat
1 84 600 -264 50 1 0 0 0 1 0 0 0 1 3010.dat
0 STEP
1 84 500 -272 50 1 0 0 0 1 0 0 0 1 15573.dat
1 84 540 -272 50 1 0 0 0 1 0 0 0 1 15573.dat
1 84 780 -272 50 1 0 0 0 1 0 0 0 1 15573.dat
1 84 660 -272 50 1 0 0 0 1 0 0 0 1 15573.dat
1 84 820 -272 50 1 0 0 0 1 0 0 0 1 15573.dat
1 84 720 -288 50 1 0 0 0 1 0 0 0 1 15533.dat
1 84 860 -288 50 1 0 0 0 1 0 0 0 1 98283.dat
1 84 600 -288 50 1 0 0 0 1 0 0 0 1 15533.dat
0 STEP
1 84 800 -280 50 1 0 0 0 1 0 0 0 1 3020.dat
1 70 800 -288 50 1 0 0 0 1 0 0 0 1 3020.dat
1 70 800 -296 60 1 0 0 0 1 0 0 0 1 3710.dat
0 STEP
1 70 660 -288 50 0 0 -1 0 1 0 1 0 0 3022.dat
1 70 660 -296 60 1 0 0 0 1 0 0 0 1 3023.dat
1 84 660 -280 50 0 0 -1 0 1 0 1 0 0 3022.dat
0 STEP
1 84 520 -280 50 1 0 0 0 1 0 0 0 1 3020.dat
1 70 520 -288 50 1 0 0 0 1 0 0 0 1 3020.dat
1 70 520 -296 60 1 0 0 0 1 0 0 0 1 3710.dat
0 STEP
1 84 860 -312 50 1 0 0 0 1 0 0 0 1 98283.dat
1 84 860 -336 50 1 0 0 0 1 0 0 0 1 98283.dat
1 84 600 -312 50 1 0 0 0 1 0 0 0 1 15533.dat
1 84 600 -336 50 1 0 0 0 1 0 0 0 1 15533.dat
1 84 720 -312 50 1 0 0 0 1 0 0 0 1 15533.dat
1 84 720 -336 50 1 0 0 0 1 0 0 0 1 15533.dat
0 STEP
1 70 820 -344 60 1 0 0 0 1 0 0 0 1 60592.dat
1 70 780 -344 60 1 0 0 0 1 0 0 0 1 60592.dat
1 70 660 -344 60 1 0 0 0 1 0 0 0 1 60592.dat
1 70 540 -344 60 1 0 0 0 1 0 0 0 1 60592.dat
1 70 500 -344 60 1 0 0 0 1 0 0 0 1 60592.dat
0 STEP
1 84 860 -360 50 1 0 0 0 1 0 0 0 1 98283.dat
1 84 860 -384 50 1 0 0 0 1 0 0 0 1 98283.dat
1 84 600 -384 50 1 0 0 0 1 0 0 0 1 15533.dat
1 84 600 -360 50 1 0 0 0 1 0 0 0 1 15533.dat
1 84 720 -360 50 1 0 0 0 1 0 0 0 1 15533.dat
1 84 720 -384 50 1 0 0 0 1 0 0 0 1 15533.dat
0 STEP
1 70 500 -392 60 1 0 0 0 1 0 0 0 1 60592.dat
1 70 540 -392 60 1 0 0 0 1 0 0 0 1 60592.dat
1 70 660 -392 60 1 0 0 0 1 0 0 0 1 60592.dat
1 70 780 -392 60 1 0 0 0 1 0 0 0 1 60592.dat
1 70 820 -392 60 1 0 0 0 1 0 0 0 1 60592.dat
0 STEP
1 84 860 -408 50 1 0 0 0 1 0 0 0 1 98283.dat
1 84 600 -408 50 1 0 0 0 1 0 0 0 1 15533.dat
1 84 720 -408 50 1 0 0 0 1 0 0 0 1 15533.dat
0 STEP
1 84 800 -408 60 1 0 0 0 1 0 0 0 1 3020.dat
1 84 520 -408 60 1 0 0 0 1 0 0 0 1 3020.dat
1 84 660 -408 60 0 0 -1 0 1 0 1 0 0 3022.dat
1 70 820 -400 60 1 0 0 0 1 0 0 0 1 15573.dat
1 70 780 -400 60 1 0 0 0 1 0 0 0 1 15573.dat
1 70 660 -400 60 1 0 0 0 1 0 0 0 1 15573.dat
1 70 540 -400 60 1 0 0 0 1 0 0 0 1 15573.dat
1 70 500 -400 60 1 0 0 0 1 0 0 0 1 15573.dat
0 STEP
1 84 520 -416 70 1 0 0 0 1 0 0 0 1 3460.dat
1 84 660 -416 70 1 0 0 0 1 0 0 0 1 3666.dat
1 84 800 -416 70 1 0 0 0 1 0 0 0 1 3460.dat
0 STEP
1 84 470 -416 50 1 0 0 0 1 0 0 0 1 36840.dat
1 84 510 -416 50 1 0 0 0 1 0 0 0 1 36840.dat
1 84 550 -416 50 1 0 0 0 1 0 0 0 1 36840.dat
1 84 590 -416 50 1 0 0 0 1 0 0 0 1 36840.dat
1 84 630 -416 50 1 0 0 0 1 0 0 0 1 36840.dat
1 84 670 -416 50 1 0 0 0 1 0 0 0 1 36840.dat
1 84 710 -416 50 1 0 0 0 1 0 0 0 1 36840.dat
1 84 750 -416 50 1 0 0 0 1 0 0 0 1 36840.dat
1 84 790 -416 50 1 0 0 0 1 0 0 0 1 36840.dat
1 84 830 -416 50 1 0 0 0 1 0 0 0 1 36840.dat
1 84 870 -416 50 1 0 0 0 1 0 0 0 1 36840.dat
1 84 850 -416 50 1 0 0 0 1 0 0 0 1 3024.dat
1 84 810 -416 50 1 0 0 0 1 0 0 0 1 3024.dat
1 84 770 -416 50 1 0 0 0 1 0 0 0 1 3024.dat
1 84 730 -416 50 1 0 0 0 1 0 0 0 1 3024.dat
1 84 690 -416 50 1 0 0 0 1 0 0 0 1 3024.dat
1 84 650 -416 50 1 0 0 0 1 0 0 0 1 3024.dat
1 84 610 -416 50 1 0 0 0 1 0 0 0 1 3024.dat
1 84 570 -416 50 1 0 0 0 1 0 0 0 1 3024.dat
1 84 530 -416 50 1 0 0 0 1 0 0 0 1 3024.dat
1 84 490 -416 50 1 0 0 0 1 0 0 0 1 3024.dat
1 84 450 -416 50 1 0 0 0 1 0 0 0 1 3024.dat
0 STEP
1 84 470 -418 28 1 0 0 0 0 -1 0 1 0 3070b.dat
1 84 510 -418 28 1 0 0 0 0 -1 0 1 0 3070b.dat
1 84 550 -418 28 1 0 0 0 0 -1 0 1 0 3070b.dat
1 84 590 -418 28 1 0 0 0 0 -1 0 1 0 3070b.dat
1 84 630 -418 28 1 0 0 0 0 -1 0 1 0 3070b.dat
1 84 670 -418 28 1 0 0 0 0 -1 0 1 0 3070b.dat
1 84 710 -418 28 1 0 0 0 0 -1 0 1 0 3070b.dat
1 84 750 -418 28 1 0 0 0 0 -1 0 1 0 3070b.dat
1 84 790 -418 28 1 0 0 0 0 -1 0 1 0 3070b.dat
1 84 870 -418 28 1 0 0 0 0 -1 0 1 0 3070b.dat
1 84 830 -418 28 1 0 0 0 0 -1 0 1 0 3070b.dat
0 STEP
1 71 480 -424 60 1 0 0 0 1 0 0 0 1 87079.dat
1 71 820 -424 60 1 0 0 0 1 0 0 0 1 69729.dat
1 71 700 -424 60 1 0 0 0 1 0 0 0 1 69729.dat
1 71 580 -424 60 1 0 0 0 1 0 0 0 1 69729.dat
0 STEP
1 28 740 -244 32 1 0 0 0 0 -1 0 1 0 3034.dat
1 28 580 -244 32 1 0 0 0 0 -1 0 1 0 3034.dat
0 STEP
1 28 700 -244 24 1 0 0 0 0 -1 0 1 0 87079.dat
1 28 540 -244 24 1 0 0 0 0 -1 0 1 0 87079.dat
1 28 780 -244 24 1 0 0 0 0 -1 0 1 0 87079.dat
1 28 620 -244 24 1 0 0 0 0 -1 0 1 0 87079.dat
0 STEP
1 4 790 -304 40 1 0 0 0 1 0 0 0 1 24866.dat
1 4 670 -304 40 1 0 0 0 1 0 0 0 1 24866.dat
1 4 530 -304 40 1 0 0 0 1 0 0 0 1 24866.dat
1 10 790 -296 40 1 0 1 0 1 0 -1 0 1 32607.dat
1 10 670 -296 40 1 0 0 0 1 0 0 0 1 32607.dat
1 10 530 -296 40 1 0 1 0 1 0 -1 0 1 32607.dat
0 STEP
1 71 450 -424 120 0 0 1 0 1 0 -1 0 0 41740.dat
1 71 870 -424 120 0 0 1 0 1 0 -1 0 0 41740.dat
1 71 600 -424 230 -1 0 0 0 1 0 0 0 -1 6636.dat
1 71 720 -424 230 -1 0 0 0 1 0 0 0 -1 6636.dat
1 71 820 -424 230 -1 0 0 0 1 0 0 0 -1 41740.dat
1 71 500 -424 230 -1 0 0 0 1 0 0 0 -1 41740.dat
1 71 450 -424 200 0 0 1 0 1 0 -1 0 0 2431.dat
1 71 870 -424 200 0 0 1 0 1 0 -1 0 0 2431.dat
1 71 360 -232 160 1 0 0 0 1 0 0 0 1 41539.dat
1 72 360 -232 60 1 0 0 0 1 0 0 0 1 3034.dat
0 STEP
1 71 360 -240 60 1 0 0 0 1 0 0 0 1 3020.dat
0 STEP
1 84 320 -264 50 1 0 0 0 1 0 0 0 1 15533.dat
1 84 400 -264 50 1 0 0 0 1 0 0 0 1 15533.dat
0 STEP
1 84 360 -272 50 1 0 0 0 1 0 0 0 1 15573.dat
1 84 390 -272 50 1 0 0 0 1 0 0 0 1 3070b.dat
1 84 330 -272 50 1 0 0 0 1 0 0 0 1 3070b.dat
0 STEP
1 72 360 -264 70 1 0 0 0 1 0 0 0 1 3010.dat
1 72 360 -272 70 1 0 0 0 1 0 0 0 1 41740.dat
0 STEP
1 70 360 -288 50 1 0 0 0 1 0 0 0 1 3022.dat
1 84 360 -280 50 1 0 0 0 1 0 0 0 1 3022.dat
0 STEP
1 0 390 -280 68 1 0 0 0 1 0 0 0 1 73825.dat
1 0 330 -280 68 1 0 0 0 1 0 0 0 1 73825.dat
0 STEP
1 70 360 -344 60 1 0 0 0 1 0 0 0 1 60592.dat
1 70 360 -296 60 1 0 0 0 1 0 0 0 1 3023.dat
0 STEP
1 70 360 -392 60 1 0 0 0 1 0 0 0 1 60592.dat
0 STEP
1 84 390 -332 46 0 0 -1 -1 0 0 0 1 0 6636.dat
1 84 330 -332 46 0 0 -1 -1 0 0 0 1 0 6636.dat
0 STEP
1 0 330 -392 68 1 0 0 0 1 0 0 0 1 79389.dat
1 0 390 -392 68 1 0 0 0 1 0 0 0 1 79389.dat
0 STEP
1 70 360 -400 60 1 0 0 0 1 0 0 0 1 15573.dat
1 84 390 -400 66 0 0 -1 0 1 0 1 0 0 3069b.dat
1 84 330 -400 66 0 0 -1 0 1 0 1 0 0 3069b.dat
0 STEP
1 84 360 -408 60 1 0 0 0 1 0 0 0 1 3020.dat
0 STEP
1 84 280 -384 50 1 0 0 0 1 0 0 0 1 15533.dat
1 84 440 -384 50 1 0 0 0 1 0 0 0 1 15533.dat
1 84 280 -288 50 1 0 0 0 1 0 0 0 1 15533.dat
1 84 440 -288 50 1 0 0 0 1 0 0 0 1 15533.dat
1 84 280 -312 50 1 0 0 0 1 0 0 0 1 15533.dat
1 84 440 -312 50 1 0 0 0 1 0 0 0 1 15533.dat
1 84 280 -336 50 1 0 0 0 1 0 0 0 1 15533.dat
1 84 440 -336 50 1 0 0 0 1 0 0 0 1 15533.dat
1 84 280 -360 50 1 0 0 0 1 0 0 0 1 15533.dat
1 84 440 -360 50 1 0 0 0 1 0 0 0 1 15533.dat
1 84 280 -408 50 1 0 0 0 1 0 0 0 1 15533.dat
1 84 440 -408 50 1 0 0 0 1 0 0 0 1 15533.dat
0 STEP
1 84 360 -448 50 1 0 0 0 1 0 0 0 1 22885.dat
0 STEP
1 84 320 -416 60 -1 0 0 0 1 0 0 0 -1 3022.dat
1 84 400 -416 60 -1 0 0 0 1 0 0 0 -1 3022.dat
1 84 290 -416 50 1 0 0 0 1 0 0 0 1 36840.dat
1 84 430 -416 50 1 0 0 0 1 0 0 0 1 36840.dat
0 STEP
1 71 310 -424 60 -1 0 0 0 1 0 0 0 -1 3021.dat
1 71 410 -424 60 -1 0 0 0 1 0 0 0 -1 3021.dat
0 STEP
1 0 310 -432 70 -1 0 0 0 1 0 0 0 -1 63864.dat
1 0 410 -432 70 -1 0 0 0 1 0 0 0 -1 63864.dat
1 72 310 -432 50 -1 0 0 0 1 0 0 0 -1 3623.dat
1 72 410 -432 50 -1 0 0 0 1 0 0 0 -1 3623.dat
0 STEP
1 71 290 -440 50 -1 0 0 0 1 0 0 0 -1 3070b.dat
1 71 430 -440 50 -1 0 0 0 1 0 0 0 -1 3070b.dat
1 71 320 -440 50 -1 0 0 0 1 0 0 0 -1 3023.dat
1 71 400 -440 50 -1 0 0 0 1 0 0 0 -1 3023.dat
0 STEP
1 84 320 -448 50 -1 0 0 0 1 0 0 0 -1 3023.dat
1 84 400 -448 50 -1 0 0 0 1 0 0 0 -1 3023.dat
0 STEP
1 84 310 -456 50 -1 0 0 0 1 0 0 0 -1 3070b.dat
1 84 410 -456 50 -1 0 0 0 1 0 0 0 -1 3070b.dat
1 84 360 -456 50 -1 0 0 0 1 0 0 0 -1 41740.dat
0 STEP
1 19 360 -428 32 0 0 1 1 0 0 0 1 0 66857.dat
1 84 430 -418 28 1 0 0 0 0 -1 0 1 0 3070b.dat
1 84 290 -418 28 1 0 0 0 0 -1 0 1 0 3070b.dat
0 STEP
1 71 360 -416 230 1 0 0 0 1 0 0 0 1 60479.dat
0 STEP
1 71 400 -424 230 1 0 0 0 1 0 0 0 1 2431.dat
1 71 320 -424 230 1 0 0 0 1 0 0 0 1 2431.dat
