0 Converted
0 Author: Dominic Davis-Foster
0 Converted with https://mb-converter.netlify.app made by The_An0nym using the conversion files from Mecabricks.
1 71 0 -440 120 1 0 0 0 1 0 0 0 1 92438.dat
0 STEP
1 72 -60 -432 60 1 0 0 0 1 0 0 0 1 3832.dat
0 STEP
1 72 160 -432 60 1 0 0 0 1 0 0 0 1 2445.dat
1 71 220 -440 120 0 0 1 0 1 0 -1 0 0 3036.dat
0 STEP
1 71 80 -440 220 1 0 0 0 1 0 0 0 1 2445.dat
0 STEP
1 72 160 -432 200 1 0 0 0 1 0 0 0 1 3832.dat
0 STEP
1 71 -100 -440 220 1 0 0 0 1 0 0 0 1 3795.dat
1 72 -40 -432 200 1 0 0 0 1 0 0 0 1 3832.dat
1 72 -150 -432 160 0 0 1 0 1 0 -1 0 0 3460.dat
0 STEP
1 72 -40 -432 230 1 0 0 0 1 0 0 0 1 4477.dat
1 72 160 -432 230 1 0 0 0 1 0 0 0 1 4477.dat
0 STEP
1 71 -80 -464 80 1 0 0 0 1 0 0 0 1 3007.dat
1 71 80 -464 80 1 0 0 0 1 0 0 0 1 3007.dat
1 71 220 -464 80 1 0 0 0 1 0 0 0 1 2456.dat
0 STEP
1 320 -120 -464 50 1 0 0 0 1 0 0 0 1 3039.dat
1 320 -80 -464 50 1 0 0 0 1 0 0 0 1 3039.dat
1 320 -40 -464 50 1 0 0 0 1 0 0 0 1 3039.dat
1 320 0 -464 50 1 0 0 0 1 0 0 0 1 3039.dat
1 320 40 -464 50 1 0 0 0 1 0 0 0 1 3039.dat
1 320 80 -464 50 1 0 0 0 1 0 0 0 1 3039.dat
1 320 120 -464 50 1 0 0 0 1 0 0 0 1 3039.dat
1 320 160 -464 50 1 0 0 0 1 0 0 0 1 3039.dat
1 320 200 -464 50 1 0 0 0 1 0 0 0 1 3039.dat
1 320 240 -464 50 1 0 0 0 1 0 0 0 1 3039.dat
0 STEP
1 320 -150 -464 50 1 0 0 0 1 0 0 0 1 3040b.dat
0 STEP
1 71 -80 -488 90 1 0 0 0 1 0 0 0 1 3008.dat
1 71 80 -488 90 1 0 0 0 1 0 0 0 1 3008.dat
1 71 240 -488 90 1 0 0 0 1 0 0 0 1 3008.dat
0 STEP
1 320 220 -488 70 1 0 0 0 1 0 0 0 1 3039.dat
1 320 -140 -488 70 1 0 0 0 1 0 0 0 1 3039.dat
1 320 -100 -488 70 1 0 0 0 1 0 0 0 1 3039.dat
1 320 -60 -488 70 1 0 0 0 1 0 0 0 1 3039.dat
1 320 -20 -488 70 1 0 0 0 1 0 0 0 1 3039.dat
1 320 20 -488 70 1 0 0 0 1 0 0 0 1 3039.dat
1 320 60 -488 70 1 0 0 0 1 0 0 0 1 3039.dat
1 320 100 -488 70 1 0 0 0 1 0 0 0 1 3039.dat
1 320 140 -488 70 1 0 0 0 1 0 0 0 1 3039.dat
1 320 180 -488 70 1 0 0 0 1 0 0 0 1 3039.dat
0 STEP
1 320 -120 -512 90 1 0 0 0 1 0 0 0 1 3039.dat
1 320 -80 -512 90 1 0 0 0 1 0 0 0 1 3039.dat
1 320 -40 -512 90 1 0 0 0 1 0 0 0 1 3039.dat
1 320 0 -512 90 1 0 0 0 1 0 0 0 1 3039.dat
1 320 40 -512 90 1 0 0 0 1 0 0 0 1 3039.dat
1 320 80 -512 90 1 0 0 0 1 0 0 0 1 3039.dat
1 320 120 -512 90 1 0 0 0 1 0 0 0 1 3039.dat
1 320 160 -512 90 1 0 0 0 1 0 0 0 1 3039.dat
1 320 200 -512 90 1 0 0 0 1 0 0 0 1 3039.dat
0 STEP
1 320 -150 -512 90 1 0 0 0 1 0 0 0 1 3040b.dat
0 STEP
1 320 -80 -520 90 1 0 0 0 1 0 0 0 1 4162.dat
1 320 80 -520 90 1 0 0 0 1 0 0 0 1 4162.dat
0 Converted
0 Author: Dominic Davis-Foster
0 Converted with https://mb-converter.netlify.app made by The_An0nym using the conversion files from Mecabricks.
1 71 720 -440 120 1 0 0 0 1 0 0 0 1 92438.dat
0 STEP
1 72 780 -432 60 1 0 0 0 1 0 0 0 1 3832.dat
0 STEP
1 72 560 -432 60 1 0 0 0 1 0 0 0 1 2445.dat
1 71 500 -440 120 0 0 1 0 1 0 -1 0 0 3036.dat
0 STEP
1 71 640 -440 220 1 0 0 0 1 0 0 0 1 2445.dat
0 STEP
1 72 560 -432 200 1 0 0 0 1 0 0 0 1 3832.dat
0 STEP
1 71 820 -440 220 1 0 0 0 1 0 0 0 1 3795.dat
1 72 760 -432 200 1 0 0 0 1 0 0 0 1 3832.dat
1 72 870 -432 160 0 0 1 0 1 0 -1 0 0 3460.dat
0 STEP
1 72 760 -432 230 1 0 0 0 1 0 0 0 1 4477.dat
1 72 560 -432 230 1 0 0 0 1 0 0 0 1 4477.dat
0 STEP
1 71 800 -464 80 1 0 0 0 1 0 0 0 1 3007.dat
1 71 640 -464 80 1 0 0 0 1 0 0 0 1 3007.dat
1 71 500 -464 80 1 0 0 0 1 0 0 0 1 2456.dat
0 STEP
1 320 840 -464 50 1 0 0 0 1 0 0 0 1 3039.dat
1 320 800 -464 50 1 0 0 0 1 0 0 0 1 3039.dat
1 320 760 -464 50 1 0 0 0 1 0 0 0 1 3039.dat
1 320 720 -464 50 1 0 0 0 1 0 0 0 1 3039.dat
1 320 680 -464 50 1 0 0 0 1 0 0 0 1 3039.dat
1 320 640 -464 50 1 0 0 0 1 0 0 0 1 3039.dat
1 320 600 -464 50 1 0 0 0 1 0 0 0 1 3039.dat
1 320 560 -464 50 1 0 0 0 1 0 0 0 1 3039.dat
1 320 520 -464 50 1 0 0 0 1 0 0 0 1 3039.dat
1 320 480 -464 50 1 0 0 0 1 0 0 0 1 3039.dat
0 STEP
1 320 870 -464 50 1 0 0 0 1 0 0 0 1 3040b.dat
0 STEP
1 71 800 -488 90 1 0 0 0 1 0 0 0 1 3008.dat
1 71 640 -488 90 1 0 0 0 1 0 0 0 1 3008.dat
1 71 480 -488 90 1 0 0 0 1 0 0 0 1 3008.dat
0 STEP
1 320 500 -488 70 1 0 0 0 1 0 0 0 1 3039.dat
1 320 860 -488 70 1 0 0 0 1 0 0 0 1 3039.dat
1 320 820 -488 70 1 0 0 0 1 0 0 0 1 3039.dat
1 320 780 -488 70 1 0 0 0 1 0 0 0 1 3039.dat
1 320 740 -488 70 1 0 0 0 1 0 0 0 1 3039.dat
1 320 700 -488 70 1 0 0 0 1 0 0 0 1 3039.dat
1 320 660 -488 70 1 0 0 0 1 0 0 0 1 3039.dat
1 320 620 -488 70 1 0 0 0 1 0 0 0 1 3039.dat
1 320 580 -488 70 1 0 0 0 1 0 0 0 1 3039.dat
1 320 540 -488 70 1 0 0 0 1 0 0 0 1 3039.dat
0 STEP
1 320 840 -512 90 1 0 0 0 1 0 0 0 1 3039.dat
1 320 800 -512 90 1 0 0 0 1 0 0 0 1 3039.dat
1 320 760 -512 90 1 0 0 0 1 0 0 0 1 3039.dat
1 320 720 -512 90 1 0 0 0 1 0 0 0 1 3039.dat
1 320 680 -512 90 1 0 0 0 1 0 0 0 1 3039.dat
1 320 640 -512 90 1 0 0 0 1 0 0 0 1 3039.dat
1 320 600 -512 90 1 0 0 0 1 0 0 0 1 3039.dat
1 320 560 -512 90 1 0 0 0 1 0 0 0 1 3039.dat
1 320 520 -512 90 1 0 0 0 1 0 0 0 1 3039.dat
0 STEP
1 320 870 -512 90 1 0 0 0 1 0 0 0 1 3040b.dat
0 STEP
1 320 800 -520 90 1 0 0 0 1 0 0 0 1 4162.dat
1 320 640 -520 90 1 0 0 0 1 0 0 0 1 4162.dat
1 72 360 -432 180 -1 0 0 0 1 0 0 0 -1 3033.dat
0 STEP
1 71 360 -440 120 -1 0 0 0 1 0 0 0 -1 3036.dat
1 72 360 -432 100 -1 0 0 0 1 0 0 0 -1 3832.dat
0 STEP
1 71 360 -440 220 -1 0 0 0 1 0 0 0 -1 4282.dat
1 71 360 -440 190 -1 0 0 0 1 0 0 0 -1 3460.dat
0 STEP
1 1 360 -448 70 -1 0 0 0 1 0 0 0 -1 3460.dat
1 1 360 -456 70 -1 0 0 0 1 0 0 0 -1 3460.dat
0 STEP
1 84 360 -464 60 -1 0 0 0 1 0 0 0 -1 3795.dat
0 STEP
1 71 360 -464 90 -1 0 0 0 1 0 0 0 -1 63322.dat
0 STEP
1 320 430 -464 50 1 0 0 0 1 0 0 0 1 3046.dat
1 320 290 -464 50 0 0 1 0 1 0 -1 0 0 3046.dat
0 STEP
1 320 310 -488 70 0 0 1 0 1 0 -1 0 0 3046.dat
1 320 310 -488 30 0 0 1 0 1 0 -1 0 0 3040b.dat
1 320 260 -488 70 1 0 0 0 1 0 0 0 1 6227.dat
0 STEP
1 320 360 -488 40 -1 0 0 0 1 0 0 0 -1 3001.dat
1 71 360 -488 80 -1 0 0 0 1 0 0 0 -1 3001.dat
0 STEP
1 320 410 -488 70 1 0 0 0 1 0 0 0 1 3046.dat
1 320 410 -488 30 0 0 -1 0 1 0 1 0 0 3040b.dat
1 320 460 -488 70 1 0 0 0 1 0 0 0 1 6227.dat
0 STEP
1 320 330 -512 90 0 0 1 0 1 0 -1 0 0 3046.dat
1 320 330 -512 40 0 0 1 0 1 0 -1 0 0 6227.dat
1 320 240 -512 90 1 0 0 0 1 0 0 0 1 6227.dat
1 320 280 -512 90 1 0 0 0 1 0 0 0 1 6227.dat
0 STEP
1 320 390 -512 90 1 0 0 0 1 0 0 0 1 3046.dat
1 320 440 -512 90 1 0 0 0 1 0 0 0 1 6227.dat
1 320 480 -512 90 1 0 0 0 1 0 0 0 1 6227.dat
1 320 390 -512 40 0 0 -1 0 1 0 1 0 0 6227.dat
0 STEP
1 320 360 -512 60 0 0 1 0 1 0 -1 0 0 3001.dat
0 STEP
1 320 350 -536 60 0 0 1 0 1 0 -1 0 0 3037.dat
1 320 370 -536 60 0 0 -1 0 1 0 1 0 0 3037.dat
0 STEP
1 320 360 -560 60 0 0 1 0 1 0 -1 0 0 3299.dat
0 STEP
1 320 240 -520 90 1 0 0 0 1 0 0 0 1 4162.dat
1 320 480 -520 90 1 0 0 0 1 0 0 0 1 4162.dat
