1 72 0 8 120 -1 0 0 0 1 0 0 0 -1 3033.dat
0 STEP
1 71 0 0 60 -1 0 0 0 1 0 0 0 -1 3036.dat
1 72 0 8 40 -1 0 0 0 1 0 0 0 -1 3832.dat
0 STEP
1 71 0 0 160 -1 0 0 0 1 0 0 0 -1 4282.dat
1 71 0 0 130 -1 0 0 0 1 0 0 0 -1 3460.dat
0 STEP
1 1 0 -8 10 -1 0 0 0 1 0 0 0 -1 3460.dat
1 1 0 -16 10 -1 0 0 0 1 0 0 0 -1 3460.dat
0 STEP
1 84 0 -24 0 -1 0 0 0 1 0 0 0 -1 3795.dat
0 STEP
1 71 0 -24 30 -1 0 0 0 1 0 0 0 -1 3008.dat
0 STEP
1 320 70 -24 -10 1 0 0 0 1 0 0 0 1 3046.dat
1 320 -70 -24 -10 0 0 1 0 1 0 -1 0 0 3046.dat
0 STEP
1 320 -50 -48 10 0 0 1 0 1 0 -1 0 0 3046.dat
1 320 -50 -48 -30 0 0 1 0 1 0 -1 0 0 3040b.dat
1 320 -100 -48 10 1 0 0 0 1 0 0 0 1 3039.dat
0 STEP
1 320 0 -48 -20 -1 0 0 0 1 0 0 0 -1 3001.dat
1 71 0 -48 20 -1 0 0 0 1 0 0 0 -1 3001.dat
0 STEP
1 320 50 -48 10 1 0 0 0 1 0 0 0 1 3046.dat
1 320 50 -48 -30 0 0 -1 0 1 0 1 0 0 3040b.dat
1 320 100 -48 10 1 0 0 0 1 0 0 0 1 3039.dat
0 STEP
1 320 -30 -72 30 0 0 1 0 1 0 -1 0 0 3046.dat
1 320 -30 -72 -20 0 0 1 0 1 0 -1 0 0 3039.dat
1 320 -120 -72 30 1 0 0 0 1 0 0 0 1 3039.dat
1 320 -80 -72 30 1 0 0 0 1 0 0 0 1 3039.dat
0 STEP
1 320 30 -72 30 1 0 0 0 1 0 0 0 1 3046.dat
1 320 80 -72 30 1 0 0 0 1 0 0 0 1 3039.dat
1 320 120 -72 30 1 0 0 0 1 0 0 0 1 3039.dat
1 320 30 -72 -20 0 0 -1 0 1 0 1 0 0 3039.dat
0 STEP
1 320 0 -72 0 0 0 1 0 1 0 -1 0 0 3001.dat
0 STEP
1 320 -10 -96 0 0 0 1 0 1 0 -1 0 0 3037.dat
1 320 10 -96 0 0 0 -1 0 1 0 1 0 0 3037.dat
0 STEP
1 320 0 -120 0 0 0 1 0 1 0 -1 0 0 3299.dat
0 STEP
1 320 -120 -80 30 1 0 0 0 1 0 0 0 1 4162.dat
1 320 120 -80 30 1 0 0 0 1 0 0 0 1 4162.dat
