0 Converted
0 Author: Dominic Davis-Foster
0 Converted with https://mb-converter.netlify.app made by The_An0nym using the conversion files from Mecabricks.
1 71 60 -16 -40 -1 0 0 0 1 0 0 0 -1 92438.dat
0 STEP
1 72 120 -8 20 -1 0 0 0 1 0 0 0 -1 3832.dat
0 STEP
1 72 -100 -8 20 -1 0 0 0 1 0 0 0 -1 2445.dat
1 71 -160 -16 -40 0 0 -1 0 1 0 1 0 0 3036.dat
0 STEP
1 72 -210 -8 -80 0 0 -1 0 1 0 1 0 0 3460.dat
1 71 -60 -16 -140 -1 0 0 0 1 0 0 0 -1 4282.dat
0 STEP
1 72 -100 -8 -120 -1 0 0 0 1 0 0 0 -1 3832.dat
0 STEP
1 71 160 -16 -140 -1 0 0 0 1 0 0 0 -1 3795.dat
1 72 100 -8 -120 -1 0 0 0 1 0 0 0 -1 3832.dat
1 72 210 -8 -80 0 0 -1 0 1 0 1 0 0 3460.dat
0 STEP
1 72 100 -8 -150 -1 0 0 0 1 0 0 0 -1 4477.dat
1 72 -100 -8 -150 -1 0 0 0 1 0 0 0 -1 4477.dat
0 STEP
1 71 140 -40 0 -1 0 0 0 1 0 0 0 -1 3007.dat
1 71 -140 -40 0 -1 0 0 0 1 0 0 0 -1 3007.dat
1 71 0 -40 0 -1 0 0 0 1 0 0 0 -1 2456.dat
0 STEP
1 320 180 -40 30 -1 0 0 0 1 0 0 0 -1 3039.dat
1 320 140 -40 30 -1 0 0 0 1 0 0 0 -1 3039.dat
1 320 100 -40 30 -1 0 0 0 1 0 0 0 -1 3039.dat
1 320 60 -40 30 -1 0 0 0 1 0 0 0 -1 3039.dat
1 320 20 -40 30 -1 0 0 0 1 0 0 0 -1 3039.dat
1 320 -20 -40 30 -1 0 0 0 1 0 0 0 -1 3039.dat
1 320 -60 -40 30 -1 0 0 0 1 0 0 0 -1 3039.dat
1 320 -100 -40 30 -1 0 0 0 1 0 0 0 -1 3039.dat
1 320 -140 -40 30 -1 0 0 0 1 0 0 0 -1 3039.dat
1 320 -180 -40 30 -1 0 0 0 1 0 0 0 -1 3039.dat
0 STEP
1 320 210 -40 30 -1 0 0 0 1 0 0 0 -1 3040b.dat
1 320 -210 -40 30 -1 0 0 0 1 0 0 0 -1 3040b.dat
0 STEP
1 71 140 -64 -10 -1 0 0 0 1 0 0 0 -1 3008.dat
1 71 -140 -64 -10 -1 0 0 0 1 0 0 0 -1 3008.dat
1 71 0 -64 -10 -1 0 0 0 1 0 0 0 -1 3009.dat
0 STEP
1 320 -160 -64 10 -1 0 0 0 1 0 0 0 -1 3039.dat
1 320 -200 -64 10 -1 0 0 0 1 0 0 0 -1 3039.dat
1 320 200 -64 10 -1 0 0 0 1 0 0 0 -1 3039.dat
1 320 160 -64 10 -1 0 0 0 1 0 0 0 -1 3039.dat
1 320 120 -64 10 -1 0 0 0 1 0 0 0 -1 3039.dat
1 320 80 -64 10 -1 0 0 0 1 0 0 0 -1 3039.dat
1 320 40 -64 10 -1 0 0 0 1 0 0 0 -1 3039.dat
1 320 0 -64 10 -1 0 0 0 1 0 0 0 -1 3039.dat
1 320 -40 -64 10 -1 0 0 0 1 0 0 0 -1 3039.dat
1 320 -80 -64 10 -1 0 0 0 1 0 0 0 -1 3039.dat
1 320 -120 -64 10 -1 0 0 0 1 0 0 0 -1 3039.dat
0 STEP
1 320 180 -88 -10 -1 0 0 0 1 0 0 0 -1 3039.dat
1 320 140 -88 -10 -1 0 0 0 1 0 0 0 -1 3039.dat
1 320 100 -88 -10 -1 0 0 0 1 0 0 0 -1 3039.dat
1 320 60 -88 -10 -1 0 0 0 1 0 0 0 -1 3039.dat
1 320 20 -88 -10 -1 0 0 0 1 0 0 0 -1 3039.dat
1 320 -20 -88 -10 -1 0 0 0 1 0 0 0 -1 3039.dat
1 320 -60 -88 -10 -1 0 0 0 1 0 0 0 -1 3039.dat
1 320 -100 -88 -10 -1 0 0 0 1 0 0 0 -1 3039.dat
1 320 -140 -88 -10 -1 0 0 0 1 0 0 0 -1 3039.dat
1 320 -180 -88 -10 -1 0 0 0 1 0 0 0 -1 3039.dat
0 STEP
1 320 210 -88 -10 -1 0 0 0 1 0 0 0 -1 3040b.dat
1 320 -210 -88 -10 -1 0 0 0 1 0 0 0 -1 3040b.dat
0 STEP
1 320 140 -96 -10 -1 0 0 0 1 0 0 0 -1 4162.dat
1 320 -140 -96 -10 -1 0 0 0 1 0 0 0 -1 4162.dat
1 320 0 -96 -10 -1 0 0 0 1 0 0 0 -1 6636.dat
