0 Converted
0 Author: Dominic Davis-Foster
0 Converted with https://mb-converter.netlify.app made by The_An0nym using the conversion files from Mecabricks.
1 72 140 -8 -20 -1 0 0 0 1 0 0 0 -1 3034.dat
0 STEP
1 0 60 -32 -30 -1 0 0 0 1 0 0 0 -1 3004.dat
1 72 0 -8 -20 -1 0 0 0 1 0 0 0 -1 3795.dat
1 0 180 -32 -30 -1 0 0 0 1 0 0 0 -1 3004.dat
0 STEP
1 0 -60 -32 -30 -1 0 0 0 1 0 0 0 -1 3004.dat
1 72 -140 -8 -20 -1 0 0 0 1 0 0 0 -1 3034.dat
1 0 -180 -32 -30 -1 0 0 0 1 0 0 0 -1 3004.dat
0 STEP
1 28 50 -32 -10 0 0 1 0 1 0 -1 0 0 3005.dat
1 28 -50 -32 -10 0 0 1 0 1 0 -1 0 0 3005.dat
1 28 200 -32 -10 -1 0 0 0 1 0 0 0 -1 4216.dat
1 28 -200 -32 -10 -1 0 0 0 1 0 0 0 -1 4216.dat
1 84 -80 -32 -10 -1 0 0 0 1 0 0 0 -1 98283.dat
1 84 -120 -32 -10 -1 0 0 0 1 0 0 0 -1 98283.dat
1 84 -160 -32 -10 -1 0 0 0 1 0 0 0 -1 98283.dat
1 84 80 -32 -10 -1 0 0 0 1 0 0 0 -1 98283.dat
1 84 120 -32 -10 -1 0 0 0 1 0 0 0 -1 98283.dat
1 84 160 -32 -10 -1 0 0 0 1 0 0 0 -1 98283.dat
0 STEP
1 28 -50 -56 -20 0 0 1 0 1 0 -1 0 0 3004.dat
1 28 50 -56 -20 0 0 1 0 1 0 -1 0 0 3004.dat
1 0 -170 -48 -30 -1 0 0 0 1 0 0 0 -1 86996.dat
1 0 -70 -48 -30 -1 0 0 0 1 0 0 0 -1 86996.dat
1 0 70 -48 -30 -1 0 0 0 1 0 0 0 -1 86996.dat
1 0 170 -48 -30 1 0 0 0 1 0 0 0 1 86996.dat
0 STEP
1 28 120 -56 -10 -1 0 0 0 1 0 0 0 -1 3009.dat
1 28 -120 -56 -10 -1 0 0 0 1 0 0 0 -1 3009.dat
1 28 200 -56 -10 -1 0 0 0 1 0 0 0 -1 4216.dat
1 28 -200 -56 -10 -1 0 0 0 1 0 0 0 -1 4216.dat
0 STEP
1 70 -120 -56 -30 -1 0 0 0 1 0 0 0 -1 3666.dat
1 70 120 -56 -30 -1 0 0 0 1 0 0 0 -1 3666.dat
0 STEP
1 28 -50 -104 -20 0 0 1 0 1 0 -1 0 0 3004.dat
1 28 50 -104 -20 0 0 1 0 1 0 -1 0 0 3004.dat
1 28 -50 -80 -20 0 0 1 0 1 0 -1 0 0 3004.dat
1 28 50 -80 -20 0 0 1 0 1 0 -1 0 0 3004.dat
0 STEP
1 0 200 -104 -30 -1 0 0 0 1 0 0 0 -1 3004.dat
1 0 -200 -104 -30 -1 0 0 0 1 0 0 0 -1 3004.dat
1 0 -200 -80 -30 -1 0 0 0 1 0 0 0 -1 3245c.dat
1 0 200 -80 -30 -1 0 0 0 1 0 0 0 -1 3245c.dat
0 STEP
1 70 -120 -112 -30 -1 0 0 0 1 0 0 0 -1 3460.dat
1 70 120 -112 -30 -1 0 0 0 1 0 0 0 -1 3460.dat
0 STEP
1 28 -50 -120 -30 -1 0 0 0 1 0 0 0 -1 3024.dat
1 28 -50 -128 -30 -1 0 0 0 1 0 0 0 -1 3024.dat
1 28 50 -128 -30 -1 0 0 0 1 0 0 0 -1 3024.dat
1 28 50 -120 -30 -1 0 0 0 1 0 0 0 -1 3024.dat
1 0 -190 -128 -30 1 0 0 0 1 0 0 0 1 86996.dat
1 0 190 -128 -30 1 0 0 0 1 0 0 0 1 86996.dat
0 STEP
1 28 -50 -128 -10 0 0 1 0 1 0 -1 0 0 3005.dat
1 28 50 -128 -10 0 0 1 0 1 0 -1 0 0 3005.dat
0 STEP
1 28 200 -80 -10 -1 0 0 0 1 0 0 0 -1 4216.dat
1 28 200 -104 -10 -1 0 0 0 1 0 0 0 -1 4216.dat
1 28 200 -128 -10 -1 0 0 0 1 0 0 0 -1 4216.dat
1 28 200 -152 -10 -1 0 0 0 1 0 0 0 -1 4216.dat
1 28 200 -176 -10 -1 0 0 0 1 0 0 0 -1 4216.dat
1 28 -200 -80 -10 -1 0 0 0 1 0 0 0 -1 4216.dat
1 28 -200 -104 -10 -1 0 0 0 1 0 0 0 -1 4216.dat
1 28 -200 -128 -10 -1 0 0 0 1 0 0 0 -1 4216.dat
1 28 -200 -152 -10 -1 0 0 0 1 0 0 0 -1 4216.dat
1 28 -200 -176 -10 -1 0 0 0 1 0 0 0 -1 4216.dat
0 STEP
1 28 -50 -152 -20 0 0 1 0 1 0 -1 0 0 3004.dat
1 28 -50 -176 -20 0 0 1 0 1 0 -1 0 0 3004.dat
1 28 50 -152 -20 0 0 1 0 1 0 -1 0 0 3004.dat
1 28 50 -176 -20 0 0 1 0 1 0 -1 0 0 3004.dat
0 STEP
1 47 120 -176 -10 -1 0 0 0 1 0 0 0 -1 59349.dat
1 47 -120 -176 -10 -1 0 0 0 1 0 0 0 -1 59349.dat
0 STEP
1 28 0 -152 -10 -1 0 0 0 1 0 0 0 -1 60596.dat
1 70 -31.75 -151 -16 1 0 0 0 1 0 0 0 1 60623.dat
0 STEP
1 47 -20 -176 -10 1 0 0 0 1 0 0 0 1 3065.dat
1 47 20 -176 -10 1 0 0 0 1 0 0 0 1 3065.dat
0 STEP
1 28 20 -184 -10 1 0 0 0 1 0 0 0 1 15573.dat
1 28 -20 -184 -10 1 0 0 0 1 0 0 0 1 15573.dat
1 28 210 -184 -10 -1 0 0 0 1 0 0 0 -1 3024.dat
1 28 -210 -184 -10 -1 0 0 0 1 0 0 0 -1 3024.dat
1 28 120 -184 -10 -1 0 0 0 1 0 0 0 -1 3069b.dat
1 28 -120 -184 -10 -1 0 0 0 1 0 0 0 -1 3069b.dat
1 28 170 -184 -10 -1 0 0 0 1 0 0 0 -1 34103.dat
1 28 70 -184 -10 -1 0 0 0 1 0 0 0 -1 34103.dat
1 28 -70 -184 -10 -1 0 0 0 1 0 0 0 -1 34103.dat
1 28 -170 -184 -10 -1 0 0 0 1 0 0 0 -1 34103.dat
0 STEP
1 28 110 -192 -10 -1 0 0 0 1 0 0 0 -1 3460.dat
1 28 -110 -192 -10 -1 0 0 0 1 0 0 0 -1 3460.dat
1 28 0 -192 -10 1 0 0 0 1 0 0 0 1 3623.dat
0 STEP
1 47 180 -216 -10 1 0 0 0 1 0 0 0 1 3005.dat
1 33 80 -216 -10 1 0 0 0 1 0 0 0 1 3005.dat
1 33 160 -216 -10 1 0 0 0 1 0 0 0 1 3005.dat
1 47 140 -216 -10 1 0 0 0 1 0 0 0 1 3005.dat
1 33 120 -216 -10 1 0 0 0 1 0 0 0 1 3005.dat
1 47 100 -216 -10 1 0 0 0 1 0 0 0 1 3005.dat
1 47 60 -216 -10 1 0 0 0 1 0 0 0 1 3005.dat
1 47 -180 -216 -10 1 0 0 0 1 0 0 0 1 3005.dat
1 33 -160 -216 -10 1 0 0 0 1 0 0 0 1 3005.dat
1 47 -140 -216 -10 1 0 0 0 1 0 0 0 1 3005.dat
1 33 -120 -216 -10 1 0 0 0 1 0 0 0 1 3005.dat
1 47 -100 -216 -10 1 0 0 0 1 0 0 0 1 3005.dat
1 33 -80 -216 -10 1 0 0 0 1 0 0 0 1 3005.dat
1 47 -60 -216 -10 1 0 0 0 1 0 0 0 1 3005.dat
1 33 40 -216 -10 1 0 0 0 1 0 0 0 1 3005.dat
1 33 -40 -216 -10 1 0 0 0 1 0 0 0 1 3005.dat
1 47 -20 -216 -10 1 0 0 0 1 0 0 0 1 3005.dat
1 47 20 -216 -10 1 0 0 0 1 0 0 0 1 3005.dat
1 33 0 -216 -10 1 0 0 0 1 0 0 0 1 3005.dat
0 STEP
1 28 0 -224 -10 1 0 0 0 1 0 0 0 1 3070b.dat
1 28 40 -224 -10 -1 0 0 0 1 0 0 0 -1 34103.dat
1 28 -40 -224 -10 -1 0 0 0 1 0 0 0 -1 34103.dat
1 28 130 -224 -10 1 0 0 0 1 0 0 0 1 6636.dat
1 28 -130 -224 -10 1 0 0 0 1 0 0 0 1 6636.dat
0 STEP
1 0 -210 -224 -10 -1 0 0 0 1 0 0 0 -1 32952.dat
1 0 210 -224 -10 -1 0 0 0 1 0 0 0 -1 32952.dat
0 STEP
1 28 200 -194 8 -1 0 0 0 0 -1 0 -1 0 22385.dat
1 28 -200 -194 8 -1 0 0 0 0 -1 0 -1 0 22385.dat
0 STEP
1 0 -50 -200 -30 0 0 1 0 1 0 -1 0 0 3005.dat
1 0 50 -200 -30 0 0 1 0 1 0 -1 0 0 3005.dat
1 0 50 -224 -30 0 0 1 0 1 0 -1 0 0 3005.dat
1 0 -50 -224 -30 0 0 1 0 1 0 -1 0 0 3005.dat
1 0 -200 -176 -30 -1 0 0 0 1 0 0 0 -1 3245c.dat
1 0 200 -176 -30 -1 0 0 0 1 0 0 0 -1 3245c.dat
1 0 -200 -224 -30 -1 0 0 0 1 0 0 0 -1 3245c.dat
1 0 200 -224 -30 -1 0 0 0 1 0 0 0 -1 3245c.dat
