0 Converted
0 Author: Dominic Davis-Foster
0 Converted with https://mb-converter.netlify.app made by The_An0nym using the conversion files from Mecabricks.
1 72 -80 -8 60 1 0 0 0 1 0 0 0 1 3034.dat
0 STEP
1 0 0 -32 70 1 0 0 0 1 0 0 0 1 3004.dat
1 72 60 -8 60 1 0 0 0 1 0 0 0 1 3795.dat
1 0 -120 -32 70 1 0 0 0 1 0 0 0 1 3004.dat
0 STEP
1 0 120 -32 70 1 0 0 0 1 0 0 0 1 3004.dat
1 72 200 -8 60 1 0 0 0 1 0 0 0 1 3034.dat
1 0 240 -32 70 1 0 0 0 1 0 0 0 1 3004.dat
0 STEP
1 28 10 -32 50 0 0 -1 0 1 0 1 0 0 3005.dat
1 28 110 -32 50 0 0 -1 0 1 0 1 0 0 3005.dat
1 28 -140 -32 50 1 0 0 0 1 0 0 0 1 4216.dat
1 28 260 -32 50 1 0 0 0 1 0 0 0 1 4216.dat
1 84 140 -32 50 1 0 0 0 1 0 0 0 1 98283.dat
1 84 180 -32 50 1 0 0 0 1 0 0 0 1 98283.dat
1 84 220 -32 50 1 0 0 0 1 0 0 0 1 98283.dat
1 84 -20 -32 50 1 0 0 0 1 0 0 0 1 98283.dat
1 84 -60 -32 50 1 0 0 0 1 0 0 0 1 98283.dat
1 84 -100 -32 50 1 0 0 0 1 0 0 0 1 98283.dat
0 STEP
1 28 110 -56 60 0 0 -1 0 1 0 1 0 0 3004.dat
1 28 10 -56 60 0 0 -1 0 1 0 1 0 0 3004.dat
1 0 230 -48 70 1 0 0 0 1 0 0 0 1 86996.dat
1 0 130 -48 70 1 0 0 0 1 0 0 0 1 86996.dat
1 0 -10 -48 70 1 0 0 0 1 0 0 0 1 86996.dat
1 0 -110 -48 70 -1 0 0 0 1 0 0 0 -1 86996.dat
0 STEP
1 28 -60 -56 50 1 0 0 0 1 0 0 0 1 3009.dat
1 28 180 -56 50 1 0 0 0 1 0 0 0 1 3009.dat
1 28 -140 -56 50 1 0 0 0 1 0 0 0 1 4216.dat
1 28 260 -56 50 1 0 0 0 1 0 0 0 1 4216.dat
0 STEP
1 70 180 -56 70 1 0 0 0 1 0 0 0 1 3666.dat
1 70 -60 -56 70 1 0 0 0 1 0 0 0 1 3666.dat
0 STEP
1 28 110 -104 60 0 0 -1 0 1 0 1 0 0 3004.dat
1 28 10 -104 60 0 0 -1 0 1 0 1 0 0 3004.dat
1 28 110 -80 60 0 0 -1 0 1 0 1 0 0 3004.dat
1 28 10 -80 60 0 0 -1 0 1 0 1 0 0 3004.dat
0 STEP
1 0 -140 -104 70 1 0 0 0 1 0 0 0 1 3004.dat
1 0 260 -104 70 1 0 0 0 1 0 0 0 1 3004.dat
1 0 260 -80 70 1 0 0 0 1 0 0 0 1 3245c.dat
1 0 -140 -80 70 1 0 0 0 1 0 0 0 1 3245c.dat
0 STEP
1 70 180 -112 70 1 0 0 0 1 0 0 0 1 3460.dat
1 70 -60 -112 70 1 0 0 0 1 0 0 0 1 3460.dat
0 STEP
1 28 110 -120 70 1 0 0 0 1 0 0 0 1 3024.dat
1 28 110 -128 70 1 0 0 0 1 0 0 0 1 3024.dat
1 28 10 -128 70 1 0 0 0 1 0 0 0 1 3024.dat
1 28 10 -120 70 1 0 0 0 1 0 0 0 1 3024.dat
1 0 250 -128 70 -1 0 0 0 1 0 0 0 -1 86996.dat
1 0 -130 -128 70 -1 0 0 0 1 0 0 0 -1 86996.dat
0 STEP
1 28 110 -128 50 0 0 -1 0 1 0 1 0 0 3005.dat
1 28 10 -128 50 0 0 -1 0 1 0 1 0 0 3005.dat
0 STEP
1 28 -140 -80 50 1 0 0 0 1 0 0 0 1 4216.dat
1 28 -140 -104 50 1 0 0 0 1 0 0 0 1 4216.dat
1 28 -140 -128 50 1 0 0 0 1 0 0 0 1 4216.dat
1 28 -140 -152 50 1 0 0 0 1 0 0 0 1 4216.dat
1 28 -140 -176 50 1 0 0 0 1 0 0 0 1 4216.dat
1 28 260 -80 50 1 0 0 0 1 0 0 0 1 4216.dat
1 28 260 -104 50 1 0 0 0 1 0 0 0 1 4216.dat
1 28 260 -128 50 1 0 0 0 1 0 0 0 1 4216.dat
1 28 260 -152 50 1 0 0 0 1 0 0 0 1 4216.dat
1 28 260 -176 50 1 0 0 0 1 0 0 0 1 4216.dat
0 STEP
1 28 110 -152 60 0 0 -1 0 1 0 1 0 0 3004.dat
1 28 110 -176 60 0 0 -1 0 1 0 1 0 0 3004.dat
1 28 10 -152 60 0 0 -1 0 1 0 1 0 0 3004.dat
1 28 10 -176 60 0 0 -1 0 1 0 1 0 0 3004.dat
0 STEP
1 47 -60 -176 50 1 0 0 0 1 0 0 0 1 59349.dat
1 47 180 -176 50 1 0 0 0 1 0 0 0 1 59349.dat
0 STEP
1 28 60 -152 50 1 0 0 0 1 0 0 0 1 60596.dat
1 70 92 -151 56 -1 0 0 0 1 0 0 0 -1 60623.dat
0 STEP
1 47 80 -176 50 -1 0 0 0 1 0 0 0 -1 3065.dat
1 47 40 -176 50 -1 0 0 0 1 0 0 0 -1 3065.dat
0 STEP
1 28 40 -184 50 -1 0 0 0 1 0 0 0 -1 15573.dat
1 28 80 -184 50 -1 0 0 0 1 0 0 0 -1 15573.dat
1 28 -150 -184 50 1 0 0 0 1 0 0 0 1 3024.dat
1 28 270 -184 50 1 0 0 0 1 0 0 0 1 3024.dat
1 28 -60 -184 50 1 0 0 0 1 0 0 0 1 3069b.dat
1 28 180 -184 50 1 0 0 0 1 0 0 0 1 3069b.dat
1 28 -110 -184 50 1 0 0 0 1 0 0 0 1 34103.dat
1 28 -10 -184 50 1 0 0 0 1 0 0 0 1 34103.dat
1 28 130 -184 50 1 0 0 0 1 0 0 0 1 34103.dat
1 28 230 -184 50 1 0 0 0 1 0 0 0 1 34103.dat
0 STEP
1 28 -50 -192 50 1 0 0 0 1 0 0 0 1 3460.dat
1 28 170 -192 50 1 0 0 0 1 0 0 0 1 3460.dat
1 28 60 -192 50 -1 0 0 0 1 0 0 0 -1 3623.dat
0 STEP
1 47 -120 -216 50 -1 0 0 0 1 0 0 0 -1 3005.dat
1 33 -20 -216 50 -1 0 0 0 1 0 0 0 -1 3005.dat
1 33 -100 -216 50 -1 0 0 0 1 0 0 0 -1 3005.dat
1 47 -80 -216 50 -1 0 0 0 1 0 0 0 -1 3005.dat
1 33 -60 -216 50 -1 0 0 0 1 0 0 0 -1 3005.dat
1 47 -40 -216 50 -1 0 0 0 1 0 0 0 -1 3005.dat
1 47 0 -216 50 -1 0 0 0 1 0 0 0 -1 3005.dat
1 47 240 -216 50 -1 0 0 0 1 0 0 0 -1 3005.dat
1 33 220 -216 50 -1 0 0 0 1 0 0 0 -1 3005.dat
1 47 200 -216 50 -1 0 0 0 1 0 0 0 -1 3005.dat
1 33 180 -216 50 -1 0 0 0 1 0 0 0 -1 3005.dat
1 47 160 -216 50 -1 0 0 0 1 0 0 0 -1 3005.dat
1 33 140 -216 50 -1 0 0 0 1 0 0 0 -1 3005.dat
1 47 120 -216 50 -1 0 0 0 1 0 0 0 -1 3005.dat
1 33 20 -216 50 -1 0 0 0 1 0 0 0 -1 3005.dat
1 33 100 -216 50 -1 0 0 0 1 0 0 0 -1 3005.dat
1 47 80 -216 50 -1 0 0 0 1 0 0 0 -1 3005.dat
1 47 40 -216 50 -1 0 0 0 1 0 0 0 -1 3005.dat
1 33 60 -216 50 -1 0 0 0 1 0 0 0 -1 3005.dat
0 STEP
1 28 60 -224 50 -1 0 0 0 1 0 0 0 -1 3070b.dat
1 28 20 -224 50 1 0 0 0 1 0 0 0 1 34103.dat
1 28 100 -224 50 1 0 0 0 1 0 0 0 1 34103.dat
1 28 -70 -224 50 -1 0 0 0 1 0 0 0 -1 6636.dat
1 28 190 -224 50 -1 0 0 0 1 0 0 0 -1 6636.dat
0 STEP
1 0 270 -224 50 1 0 0 0 1 0 0 0 1 32952.dat
1 0 -150 -224 50 1 0 0 0 1 0 0 0 1 32952.dat
0 STEP
1 28 -140 -194 32 1 0 0 0 0 -1 0 1 0 22385.dat
1 28 260 -194 32 1 0 0 0 0 -1 0 1 0 22385.dat
0 STEP
1 0 110 -200 70 0 0 -1 0 1 0 1 0 0 3005.dat
1 0 10 -200 70 0 0 -1 0 1 0 1 0 0 3005.dat
1 0 10 -224 70 0 0 -1 0 1 0 1 0 0 3005.dat
1 0 110 -224 70 0 0 -1 0 1 0 1 0 0 3005.dat
1 0 260 -176 70 1 0 0 0 1 0 0 0 1 3245c.dat
1 0 -140 -176 70 1 0 0 0 1 0 0 0 1 3245c.dat
1 0 260 -224 70 1 0 0 0 1 0 0 0 1 3245c.dat
1 0 -140 -224 70 1 0 0 0 1 0 0 0 1 3245c.dat
0 Converted
0 Author: Dominic Davis-Foster
0 Converted with https://mb-converter.netlify.app made by The_An0nym using the conversion files from Mecabricks.
1 72 520 -8 60 1 0 0 0 1 0 0 0 1 3034.dat
0 STEP
1 0 600 -32 70 1 0 0 0 1 0 0 0 1 3004.dat
1 72 660 -8 60 1 0 0 0 1 0 0 0 1 3795.dat
1 0 480 -32 70 1 0 0 0 1 0 0 0 1 3004.dat
0 STEP
1 0 720 -32 70 1 0 0 0 1 0 0 0 1 3004.dat
1 72 800 -8 60 1 0 0 0 1 0 0 0 1 3034.dat
1 0 840 -32 70 1 0 0 0 1 0 0 0 1 3004.dat
0 STEP
1 28 610 -32 50 0 0 -1 0 1 0 1 0 0 3005.dat
1 28 710 -32 50 0 0 -1 0 1 0 1 0 0 3005.dat
1 28 460 -32 50 1 0 0 0 1 0 0 0 1 4216.dat
1 28 860 -32 50 1 0 0 0 1 0 0 0 1 4216.dat
1 84 740 -32 50 1 0 0 0 1 0 0 0 1 98283.dat
1 84 780 -32 50 1 0 0 0 1 0 0 0 1 98283.dat
1 84 820 -32 50 1 0 0 0 1 0 0 0 1 98283.dat
1 84 580 -32 50 1 0 0 0 1 0 0 0 1 98283.dat
1 84 540 -32 50 1 0 0 0 1 0 0 0 1 98283.dat
1 84 500 -32 50 1 0 0 0 1 0 0 0 1 98283.dat
0 STEP
1 28 710 -56 60 0 0 -1 0 1 0 1 0 0 3004.dat
1 28 610 -56 60 0 0 -1 0 1 0 1 0 0 3004.dat
1 0 830 -48 70 1 0 0 0 1 0 0 0 1 86996.dat
1 0 730 -48 70 1 0 0 0 1 0 0 0 1 86996.dat
1 0 590 -48 70 1 0 0 0 1 0 0 0 1 86996.dat
1 0 490 -48 70 -1 0 0 0 1 0 0 0 -1 86996.dat
0 STEP
1 28 540 -56 50 1 0 0 0 1 0 0 0 1 3009.dat
1 28 780 -56 50 1 0 0 0 1 0 0 0 1 3009.dat
1 28 460 -56 50 1 0 0 0 1 0 0 0 1 4216.dat
1 28 860 -56 50 1 0 0 0 1 0 0 0 1 4216.dat
0 STEP
1 70 780 -56 70 1 0 0 0 1 0 0 0 1 3666.dat
1 70 540 -56 70 1 0 0 0 1 0 0 0 1 3666.dat
0 STEP
1 28 710 -104 60 0 0 -1 0 1 0 1 0 0 3004.dat
1 28 610 -104 60 0 0 -1 0 1 0 1 0 0 3004.dat
1 28 710 -80 60 0 0 -1 0 1 0 1 0 0 3004.dat
1 28 610 -80 60 0 0 -1 0 1 0 1 0 0 3004.dat
0 STEP
1 0 460 -104 70 1 0 0 0 1 0 0 0 1 3004.dat
1 0 860 -104 70 1 0 0 0 1 0 0 0 1 3004.dat
1 0 860 -80 70 1 0 0 0 1 0 0 0 1 3245c.dat
1 0 460 -80 70 1 0 0 0 1 0 0 0 1 3245c.dat
0 STEP
1 70 780 -112 70 1 0 0 0 1 0 0 0 1 3460.dat
1 70 540 -112 70 1 0 0 0 1 0 0 0 1 3460.dat
0 STEP
1 28 710 -120 70 1 0 0 0 1 0 0 0 1 3024.dat
1 28 710 -128 70 1 0 0 0 1 0 0 0 1 3024.dat
1 28 610 -128 70 1 0 0 0 1 0 0 0 1 3024.dat
1 28 610 -120 70 1 0 0 0 1 0 0 0 1 3024.dat
1 0 850 -128 70 -1 0 0 0 1 0 0 0 -1 86996.dat
1 0 470 -128 70 -1 0 0 0 1 0 0 0 -1 86996.dat
0 STEP
1 28 710 -128 50 0 0 -1 0 1 0 1 0 0 3005.dat
1 28 610 -128 50 0 0 -1 0 1 0 1 0 0 3005.dat
0 STEP
1 28 460 -80 50 1 0 0 0 1 0 0 0 1 4216.dat
1 28 460 -104 50 1 0 0 0 1 0 0 0 1 4216.dat
1 28 460 -128 50 1 0 0 0 1 0 0 0 1 4216.dat
1 28 460 -152 50 1 0 0 0 1 0 0 0 1 4216.dat
1 28 460 -176 50 1 0 0 0 1 0 0 0 1 4216.dat
1 28 860 -80 50 1 0 0 0 1 0 0 0 1 4216.dat
1 28 860 -104 50 1 0 0 0 1 0 0 0 1 4216.dat
1 28 860 -128 50 1 0 0 0 1 0 0 0 1 4216.dat
1 28 860 -152 50 1 0 0 0 1 0 0 0 1 4216.dat
1 28 860 -176 50 1 0 0 0 1 0 0 0 1 4216.dat
0 STEP
1 28 710 -152 60 0 0 -1 0 1 0 1 0 0 3004.dat
1 28 710 -176 60 0 0 -1 0 1 0 1 0 0 3004.dat
1 28 610 -152 60 0 0 -1 0 1 0 1 0 0 3004.dat
1 28 610 -176 60 0 0 -1 0 1 0 1 0 0 3004.dat
0 STEP
1 47 540 -176 50 1 0 0 0 1 0 0 0 1 59349.dat
1 47 780 -176 50 1 0 0 0 1 0 0 0 1 59349.dat
0 STEP
1 28 660 -152 50 1 0 0 0 1 0 0 0 1 60596.dat
1 70 692 -151 56 -1 0 0 0 1 0 0 0 -1 60623.dat
0 STEP
1 47 680 -176 50 -1 0 0 0 1 0 0 0 -1 3065.dat
1 47 640 -176 50 -1 0 0 0 1 0 0 0 -1 3065.dat
0 STEP
1 28 640 -184 50 -1 0 0 0 1 0 0 0 -1 15573.dat
1 28 680 -184 50 -1 0 0 0 1 0 0 0 -1 15573.dat
1 28 450 -184 50 1 0 0 0 1 0 0 0 1 3024.dat
1 28 870 -184 50 1 0 0 0 1 0 0 0 1 3024.dat
1 28 540 -184 50 1 0 0 0 1 0 0 0 1 3069b.dat
1 28 780 -184 50 1 0 0 0 1 0 0 0 1 3069b.dat
1 28 490 -184 50 1 0 0 0 1 0 0 0 1 34103.dat
1 28 590 -184 50 1 0 0 0 1 0 0 0 1 34103.dat
1 28 730 -184 50 1 0 0 0 1 0 0 0 1 34103.dat
1 28 830 -184 50 1 0 0 0 1 0 0 0 1 34103.dat
0 STEP
1 28 550 -192 50 1 0 0 0 1 0 0 0 1 3460.dat
1 28 770 -192 50 1 0 0 0 1 0 0 0 1 3460.dat
1 28 660 -192 50 -1 0 0 0 1 0 0 0 -1 3623.dat
0 STEP
1 47 480 -216 50 -1 0 0 0 1 0 0 0 -1 3005.dat
1 33 580 -216 50 -1 0 0 0 1 0 0 0 -1 3005.dat
1 33 500 -216 50 -1 0 0 0 1 0 0 0 -1 3005.dat
1 47 520 -216 50 -1 0 0 0 1 0 0 0 -1 3005.dat
1 33 540 -216 50 -1 0 0 0 1 0 0 0 -1 3005.dat
1 47 560 -216 50 -1 0 0 0 1 0 0 0 -1 3005.dat
1 47 600 -216 50 -1 0 0 0 1 0 0 0 -1 3005.dat
1 47 840 -216 50 -1 0 0 0 1 0 0 0 -1 3005.dat
1 33 820 -216 50 -1 0 0 0 1 0 0 0 -1 3005.dat
1 47 800 -216 50 -1 0 0 0 1 0 0 0 -1 3005.dat
1 33 780 -216 50 -1 0 0 0 1 0 0 0 -1 3005.dat
1 47 760 -216 50 -1 0 0 0 1 0 0 0 -1 3005.dat
1 33 740 -216 50 -1 0 0 0 1 0 0 0 -1 3005.dat
1 47 720 -216 50 -1 0 0 0 1 0 0 0 -1 3005.dat
1 33 620 -216 50 -1 0 0 0 1 0 0 0 -1 3005.dat
1 33 700 -216 50 -1 0 0 0 1 0 0 0 -1 3005.dat
1 47 680 -216 50 -1 0 0 0 1 0 0 0 -1 3005.dat
1 47 640 -216 50 -1 0 0 0 1 0 0 0 -1 3005.dat
1 33 660 -216 50 -1 0 0 0 1 0 0 0 -1 3005.dat
0 STEP
1 28 660 -224 50 -1 0 0 0 1 0 0 0 -1 3070b.dat
1 28 620 -224 50 1 0 0 0 1 0 0 0 1 34103.dat
1 28 700 -224 50 1 0 0 0 1 0 0 0 1 34103.dat
1 28 530 -224 50 -1 0 0 0 1 0 0 0 -1 6636.dat
1 28 790 -224 50 -1 0 0 0 1 0 0 0 -1 6636.dat
0 STEP
1 0 870 -224 50 1 0 0 0 1 0 0 0 1 32952.dat
1 0 450 -224 50 1 0 0 0 1 0 0 0 1 32952.dat
0 STEP
1 28 460 -194 32 1 0 0 0 0 -1 0 1 0 22385.dat
1 28 860 -194 32 1 0 0 0 0 -1 0 1 0 22385.dat
0 STEP
1 0 710 -200 70 0 0 -1 0 1 0 1 0 0 3005.dat
1 0 610 -200 70 0 0 -1 0 1 0 1 0 0 3005.dat
1 0 610 -224 70 0 0 -1 0 1 0 1 0 0 3005.dat
1 0 710 -224 70 0 0 -1 0 1 0 1 0 0 3005.dat
1 0 860 -176 70 1 0 0 0 1 0 0 0 1 3245c.dat
1 0 460 -176 70 1 0 0 0 1 0 0 0 1 3245c.dat
1 0 860 -224 70 1 0 0 0 1 0 0 0 1 3245c.dat
1 0 460 -224 70 1 0 0 0 1 0 0 0 1 3245c.dat
0 Converted
0 Author: Dominic Davis-Foster
0 Converted with https://mb-converter.netlify.app made by The_An0nym using the conversion files from Mecabricks.
1 71 0 -240 120 1 0 0 0 1 0 0 0 1 92438.dat
0 STEP
1 72 -60 -232 60 1 0 0 0 1 0 0 0 1 3832.dat
0 STEP
1 72 160 -232 60 1 0 0 0 1 0 0 0 1 2445.dat
1 71 240 -240 120 0 0 1 0 1 0 -1 0 0 41539.dat
0 STEP
1 72 270 -232 160 0 0 1 0 1 0 -1 0 0 3460.dat
1 71 80 -240 220 1 0 0 0 1 0 0 0 1 2445.dat
1 71 280 -240 220 1 0 0 0 1 0 0 0 1 3034.dat
0 STEP
1 72 160 -232 200 1 0 0 0 1 0 0 0 1 3832.dat
0 STEP
1 71 -100 -240 220 1 0 0 0 1 0 0 0 1 3795.dat
1 72 -40 -232 200 1 0 0 0 1 0 0 0 1 3832.dat
1 72 -150 -232 160 0 0 1 0 1 0 -1 0 0 3460.dat
0 STEP
1 72 -40 -232 230 1 0 0 0 1 0 0 0 1 4477.dat
1 72 160 -232 230 1 0 0 0 1 0 0 0 1 4477.dat
0 STEP
1 71 270 -264 100 0 0 1 0 1 0 -1 0 0 3010.dat
1 71 160 -264 230 -1 0 0 0 1 0 0 0 -1 6111.dat
1 71 270 -264 230 -1 0 0 0 1 0 0 0 -1 3005.dat
0 STEP
1 71 -40 -264 230 -1 0 0 0 1 0 0 0 -1 6111.dat
1 71 -150 -264 180 0 0 1 0 1 0 -1 0 0 3009.dat
1 71 -150 -264 90 0 0 1 0 1 0 -1 0 0 3622.dat
0 STEP
1 71 -60 -288 230 -1 0 0 0 1 0 0 0 -1 6111.dat
1 71 -150 -288 140 0 0 1 0 1 0 -1 0 0 3008.dat
0 STEP
1 71 140 -288 230 -1 0 0 0 1 0 0 0 -1 6111.dat
1 71 270 -288 100 0 0 1 0 1 0 -1 0 0 3010.dat
1 71 260 -288 230 -1 0 0 0 1 0 0 0 -1 3004.dat
0 STEP
1 71 270 -312 100 0 0 1 0 1 0 -1 0 0 3010.dat
1 71 160 -312 230 -1 0 0 0 1 0 0 0 -1 6111.dat
1 71 270 -312 230 -1 0 0 0 1 0 0 0 -1 3005.dat
0 STEP
1 71 -40 -312 230 -1 0 0 0 1 0 0 0 -1 6111.dat
1 71 -150 -312 90 0 0 1 0 1 0 -1 0 0 3622.dat
1 71 -150 -312 180 0 0 1 0 1 0 -1 0 0 3009.dat
0 STEP
1 71 -150 -336 140 0 0 1 0 1 0 -1 0 0 3008.dat
1 71 -60 -336 230 -1 0 0 0 1 0 0 0 -1 6111.dat
0 STEP
1 71 140 -336 230 -1 0 0 0 1 0 0 0 -1 6111.dat
1 71 270 -336 100 0 0 1 0 1 0 -1 0 0 3010.dat
1 71 260 -336 230 -1 0 0 0 1 0 0 0 -1 3004.dat
0 STEP
1 71 270 -360 100 0 0 1 0 1 0 -1 0 0 3010.dat
1 71 160 -360 230 -1 0 0 0 1 0 0 0 -1 6111.dat
1 71 270 -360 230 -1 0 0 0 1 0 0 0 -1 3005.dat
0 STEP
1 71 -40 -360 230 -1 0 0 0 1 0 0 0 -1 6111.dat
1 71 -150 -360 90 0 0 1 0 1 0 -1 0 0 3622.dat
1 71 -150 -360 180 0 0 1 0 1 0 -1 0 0 3009.dat
0 STEP
1 71 -150 -384 140 0 0 1 0 1 0 -1 0 0 3008.dat
1 71 -60 -384 230 -1 0 0 0 1 0 0 0 -1 6111.dat
0 STEP
1 71 260 -384 230 -1 0 0 0 1 0 0 0 -1 3004.dat
1 71 140 -384 230 -1 0 0 0 1 0 0 0 -1 6111.dat
1 71 270 -384 100 0 0 1 0 1 0 -1 0 0 3010.dat
0 STEP
1 72 270 -384 180 0 0 1 0 1 0 -1 0 0 60596.dat
0 STEP
1 71 160 -408 230 -1 0 0 0 1 0 0 0 -1 6111.dat
1 71 270 -408 160 0 0 1 0 1 0 -1 0 0 3008.dat
1 71 270 -408 70 -1 0 0 0 1 0 0 0 -1 3005.dat
0 STEP
1 71 -150 -408 90 0 0 1 0 1 0 -1 0 0 3622.dat
1 71 -150 -408 180 0 0 1 0 1 0 -1 0 0 3009.dat
1 71 -40 -408 230 -1 0 0 0 1 0 0 0 -1 6111.dat
0 STEP
1 71 270 -416 110 0 0 1 0 1 0 -1 0 0 3623.dat
1 71 270 -416 180 0 0 1 0 1 0 -1 0 0 3710.dat
1 71 140 -416 230 -1 0 0 0 1 0 0 0 -1 4477.dat
0 STEP
1 71 -150 -416 110 0 0 1 0 1 0 -1 0 0 3623.dat
1 71 -150 -416 180 0 0 1 0 1 0 -1 0 0 3710.dat
1 71 -60 -416 230 -1 0 0 0 1 0 0 0 -1 4477.dat
0 STEP
1 84 -60 -264 50 1 0 0 0 1 0 0 0 1 11211.dat
1 84 60 -264 50 1 0 0 0 1 0 0 0 1 11211.dat
1 84 180 -264 50 1 0 0 0 1 0 0 0 1 11211.dat
1 84 0 -264 50 1 0 0 0 1 0 0 0 1 3010.dat
1 84 240 -264 50 1 0 0 0 1 0 0 0 1 15533.dat
1 84 -120 -264 50 1 0 0 0 1 0 0 0 1 15533.dat
1 84 120 -264 50 1 0 0 0 1 0 0 0 1 3010.dat
0 STEP
1 84 220 -272 50 1 0 0 0 1 0 0 0 1 15573.dat
1 84 180 -272 50 1 0 0 0 1 0 0 0 1 15573.dat
1 84 -60 -272 50 1 0 0 0 1 0 0 0 1 15573.dat
1 84 60 -272 50 1 0 0 0 1 0 0 0 1 15573.dat
1 84 -100 -272 50 1 0 0 0 1 0 0 0 1 15573.dat
1 84 0 -288 50 1 0 0 0 1 0 0 0 1 15533.dat
1 84 -140 -288 50 1 0 0 0 1 0 0 0 1 98283.dat
1 84 120 -288 50 1 0 0 0 1 0 0 0 1 15533.dat
0 STEP
1 84 -80 -280 50 1 0 0 0 1 0 0 0 1 3020.dat
1 70 -80 -288 50 1 0 0 0 1 0 0 0 1 3020.dat
1 70 -80 -296 60 1 0 0 0 1 0 0 0 1 3710.dat
0 STEP
1 70 60 -288 50 0 0 -1 0 1 0 1 0 0 3022.dat
1 70 60 -296 60 1 0 0 0 1 0 0 0 1 3023.dat
1 84 60 -280 50 0 0 -1 0 1 0 1 0 0 3022.dat
0 STEP
1 84 200 -280 50 1 0 0 0 1 0 0 0 1 3020.dat
1 70 200 -288 50 1 0 0 0 1 0 0 0 1 3020.dat
1 70 200 -296 60 1 0 0 0 1 0 0 0 1 3710.dat
0 STEP
1 84 -140 -312 50 1 0 0 0 1 0 0 0 1 98283.dat
1 84 -140 -336 50 1 0 0 0 1 0 0 0 1 98283.dat
1 84 120 -312 50 1 0 0 0 1 0 0 0 1 15533.dat
1 84 120 -336 50 1 0 0 0 1 0 0 0 1 15533.dat
1 84 0 -312 50 1 0 0 0 1 0 0 0 1 15533.dat
1 84 0 -336 50 1 0 0 0 1 0 0 0 1 15533.dat
0 STEP
1 70 -100 -344 60 1 0 0 0 1 0 0 0 1 60592.dat
1 70 -60 -344 60 1 0 0 0 1 0 0 0 1 60592.dat
1 70 60 -344 60 1 0 0 0 1 0 0 0 1 60592.dat
1 70 180 -344 60 1 0 0 0 1 0 0 0 1 60592.dat
1 70 220 -344 60 1 0 0 0 1 0 0 0 1 60592.dat
0 STEP
1 84 -140 -360 50 1 0 0 0 1 0 0 0 1 98283.dat
1 84 -140 -384 50 1 0 0 0 1 0 0 0 1 98283.dat
1 84 120 -384 50 1 0 0 0 1 0 0 0 1 15533.dat
1 84 120 -360 50 1 0 0 0 1 0 0 0 1 15533.dat
1 84 0 -360 50 1 0 0 0 1 0 0 0 1 15533.dat
1 84 0 -384 50 1 0 0 0 1 0 0 0 1 15533.dat
0 STEP
1 70 220 -392 60 1 0 0 0 1 0 0 0 1 60592.dat
1 70 180 -392 60 1 0 0 0 1 0 0 0 1 60592.dat
1 70 60 -392 60 1 0 0 0 1 0 0 0 1 60592.dat
1 70 -60 -392 60 1 0 0 0 1 0 0 0 1 60592.dat
1 70 -100 -392 60 1 0 0 0 1 0 0 0 1 60592.dat
0 STEP
1 84 -140 -408 50 1 0 0 0 1 0 0 0 1 98283.dat
1 84 120 -408 50 1 0 0 0 1 0 0 0 1 15533.dat
1 84 0 -408 50 1 0 0 0 1 0 0 0 1 15533.dat
0 STEP
1 84 -80 -408 60 1 0 0 0 1 0 0 0 1 3020.dat
1 84 200 -408 60 1 0 0 0 1 0 0 0 1 3020.dat
1 84 60 -408 60 0 0 -1 0 1 0 1 0 0 3022.dat
1 70 -100 -400 60 1 0 0 0 1 0 0 0 1 15573.dat
1 70 -60 -400 60 1 0 0 0 1 0 0 0 1 15573.dat
1 70 60 -400 60 1 0 0 0 1 0 0 0 1 15573.dat
1 70 180 -400 60 1 0 0 0 1 0 0 0 1 15573.dat
1 70 220 -400 60 1 0 0 0 1 0 0 0 1 15573.dat
0 STEP
1 84 200 -416 70 1 0 0 0 1 0 0 0 1 3460.dat
1 84 60 -416 70 1 0 0 0 1 0 0 0 1 3666.dat
1 84 -80 -416 70 1 0 0 0 1 0 0 0 1 3460.dat
0 STEP
1 84 250 -416 50 1 0 0 0 1 0 0 0 1 36840.dat
1 84 210 -416 50 1 0 0 0 1 0 0 0 1 36840.dat
1 84 170 -416 50 1 0 0 0 1 0 0 0 1 36840.dat
1 84 130 -416 50 1 0 0 0 1 0 0 0 1 36840.dat
1 84 90 -416 50 1 0 0 0 1 0 0 0 1 36840.dat
1 84 50 -416 50 1 0 0 0 1 0 0 0 1 36840.dat
1 84 10 -416 50 1 0 0 0 1 0 0 0 1 36840.dat
1 84 -30 -416 50 1 0 0 0 1 0 0 0 1 36840.dat
1 84 -70 -416 50 1 0 0 0 1 0 0 0 1 36840.dat
1 84 -110 -416 50 1 0 0 0 1 0 0 0 1 36840.dat
1 84 -150 -416 50 1 0 0 0 1 0 0 0 1 36840.dat
1 84 -130 -416 50 1 0 0 0 1 0 0 0 1 3024.dat
1 84 -90 -416 50 1 0 0 0 1 0 0 0 1 3024.dat
1 84 -50 -416 50 1 0 0 0 1 0 0 0 1 3024.dat
1 84 -10 -416 50 1 0 0 0 1 0 0 0 1 3024.dat
1 84 30 -416 50 1 0 0 0 1 0 0 0 1 3024.dat
1 84 70 -416 50 1 0 0 0 1 0 0 0 1 3024.dat
1 84 110 -416 50 1 0 0 0 1 0 0 0 1 3024.dat
1 84 150 -416 50 1 0 0 0 1 0 0 0 1 3024.dat
1 84 190 -416 50 1 0 0 0 1 0 0 0 1 3024.dat
1 84 230 -416 50 1 0 0 0 1 0 0 0 1 3024.dat
1 84 270 -416 50 1 0 0 0 1 0 0 0 1 3024.dat
0 STEP
1 84 250 -418 28 1 0 0 0 0 -1 0 1 0 3070b.dat
1 84 210 -418 28 1 0 0 0 0 -1 0 1 0 3070b.dat
1 84 170 -418 28 1 0 0 0 0 -1 0 1 0 3070b.dat
1 84 130 -418 28 1 0 0 0 0 -1 0 1 0 3070b.dat
1 84 90 -418 28 1 0 0 0 0 -1 0 1 0 3070b.dat
1 84 50 -418 28 1 0 0 0 0 -1 0 1 0 3070b.dat
1 84 10 -418 28 1 0 0 0 0 -1 0 1 0 3070b.dat
1 84 -30 -418 28 1 0 0 0 0 -1 0 1 0 3070b.dat
1 84 -70 -418 28 1 0 0 0 0 -1 0 1 0 3070b.dat
1 84 -150 -418 28 1 0 0 0 0 -1 0 1 0 3070b.dat
1 84 -110 -418 28 1 0 0 0 0 -1 0 1 0 3070b.dat
0 STEP
1 71 240 -424 60 1 0 0 0 1 0 0 0 1 87079.dat
1 71 -100 -424 60 1 0 0 0 1 0 0 0 1 69729.dat
1 71 20 -424 60 1 0 0 0 1 0 0 0 1 69729.dat
1 71 140 -424 60 1 0 0 0 1 0 0 0 1 69729.dat
0 STEP
1 28 -20 -244 32 1 0 0 0 0 -1 0 1 0 3034.dat
1 28 140 -244 32 1 0 0 0 0 -1 0 1 0 3034.dat
0 STEP
1 28 20 -244 24 1 0 0 0 0 -1 0 1 0 87079.dat
1 28 180 -244 24 1 0 0 0 0 -1 0 1 0 87079.dat
1 28 -60 -244 24 1 0 0 0 0 -1 0 1 0 87079.dat
1 28 100 -244 24 1 0 0 0 0 -1 0 1 0 87079.dat
0 STEP
1 4 -70 -304 40 1 0 0 0 1 0 0 0 1 24866.dat
1 4 50 -304 40 1 0 0 0 1 0 0 0 1 24866.dat
1 4 190 -304 40 1 0 0 0 1 0 0 0 1 24866.dat
1 10 -70 -296 40 1 0 1 0 1 0 -1 0 1 32607.dat
1 10 50 -296 40 1 0 0 0 1 0 0 0 1 32607.dat
1 10 190 -296 40 1 0 1 0 1 0 -1 0 1 32607.dat
0 STEP
1 71 270 -424 120 0 0 1 0 1 0 -1 0 0 41740.dat
1 71 -150 -424 120 0 0 1 0 1 0 -1 0 0 41740.dat
1 71 120 -424 230 -1 0 0 0 1 0 0 0 -1 6636.dat
1 71 0 -424 230 -1 0 0 0 1 0 0 0 -1 6636.dat
1 71 -100 -424 230 -1 0 0 0 1 0 0 0 -1 41740.dat
1 71 220 -424 230 -1 0 0 0 1 0 0 0 -1 41740.dat
1 71 270 -424 200 0 0 1 0 1 0 -1 0 0 2431.dat
1 71 -150 -424 200 0 0 1 0 1 0 -1 0 0 2431.dat
0 Converted
0 Author: Dominic Davis-Foster
0 Converted with https://mb-converter.netlify.app made by The_An0nym using the conversion files from Mecabricks.
1 71 720 -240 120 1 0 0 0 1 0 0 0 1 92438.dat
0 STEP
1 72 780 -232 60 1 0 0 0 1 0 0 0 1 3832.dat
0 STEP
1 72 560 -232 60 1 0 0 0 1 0 0 0 1 2445.dat
1 71 480 -240 120 0 0 1 0 1 0 -1 0 0 41539.dat
0 STEP
1 72 450 -232 160 0 0 1 0 1 0 -1 0 0 3460.dat
1 71 640 -240 220 1 0 0 0 1 0 0 0 1 2445.dat
1 71 440 -240 220 1 0 0 0 1 0 0 0 1 3034.dat
0 STEP
1 72 560 -232 200 1 0 0 0 1 0 0 0 1 3832.dat
0 STEP
1 71 820 -240 220 1 0 0 0 1 0 0 0 1 3795.dat
1 72 760 -232 200 1 0 0 0 1 0 0 0 1 3832.dat
1 72 870 -232 160 0 0 1 0 1 0 -1 0 0 3460.dat
0 STEP
1 72 760 -232 230 1 0 0 0 1 0 0 0 1 4477.dat
1 72 560 -232 230 1 0 0 0 1 0 0 0 1 4477.dat
0 STEP
1 71 450 -264 100 0 0 1 0 1 0 -1 0 0 3010.dat
1 71 560 -264 230 -1 0 0 0 1 0 0 0 -1 6111.dat
1 71 450 -264 230 -1 0 0 0 1 0 0 0 -1 3005.dat
0 STEP
1 71 760 -264 230 -1 0 0 0 1 0 0 0 -1 6111.dat
1 71 870 -264 180 0 0 1 0 1 0 -1 0 0 3009.dat
1 71 870 -264 90 0 0 1 0 1 0 -1 0 0 3622.dat
0 STEP
1 71 780 -288 230 -1 0 0 0 1 0 0 0 -1 6111.dat
1 71 870 -288 140 0 0 1 0 1 0 -1 0 0 3008.dat
0 STEP
1 71 580 -288 230 -1 0 0 0 1 0 0 0 -1 6111.dat
1 71 450 -288 100 0 0 1 0 1 0 -1 0 0 3010.dat
1 71 460 -288 230 -1 0 0 0 1 0 0 0 -1 3004.dat
0 STEP
1 71 450 -312 100 0 0 1 0 1 0 -1 0 0 3010.dat
1 71 560 -312 230 -1 0 0 0 1 0 0 0 -1 6111.dat
1 71 450 -312 230 -1 0 0 0 1 0 0 0 -1 3005.dat
0 STEP
1 71 760 -312 230 -1 0 0 0 1 0 0 0 -1 6111.dat
1 71 870 -312 90 0 0 1 0 1 0 -1 0 0 3622.dat
1 71 870 -312 180 0 0 1 0 1 0 -1 0 0 3009.dat
0 STEP
1 71 870 -336 140 0 0 1 0 1 0 -1 0 0 3008.dat
1 71 780 -336 230 -1 0 0 0 1 0 0 0 -1 6111.dat
0 STEP
1 71 580 -336 230 -1 0 0 0 1 0 0 0 -1 6111.dat
1 71 450 -336 100 0 0 1 0 1 0 -1 0 0 3010.dat
1 71 460 -336 230 -1 0 0 0 1 0 0 0 -1 3004.dat
0 STEP
1 71 450 -360 100 0 0 1 0 1 0 -1 0 0 3010.dat
1 71 560 -360 230 -1 0 0 0 1 0 0 0 -1 6111.dat
1 71 450 -360 230 -1 0 0 0 1 0 0 0 -1 3005.dat
0 STEP
1 71 760 -360 230 -1 0 0 0 1 0 0 0 -1 6111.dat
1 71 870 -360 90 0 0 1 0 1 0 -1 0 0 3622.dat
1 71 870 -360 180 0 0 1 0 1 0 -1 0 0 3009.dat
0 STEP
1 71 870 -384 140 0 0 1 0 1 0 -1 0 0 3008.dat
1 71 780 -384 230 -1 0 0 0 1 0 0 0 -1 6111.dat
0 STEP
1 71 460 -384 230 -1 0 0 0 1 0 0 0 -1 3004.dat
1 71 580 -384 230 -1 0 0 0 1 0 0 0 -1 6111.dat
1 71 450 -384 100 0 0 1 0 1 0 -1 0 0 3010.dat
0 STEP
1 72 450 -384 180 0 0 1 0 1 0 -1 0 0 60596.dat
0 STEP
1 71 560 -408 230 -1 0 0 0 1 0 0 0 -1 6111.dat
1 71 450 -408 160 0 0 1 0 1 0 -1 0 0 3008.dat
1 71 450 -408 70 -1 0 0 0 1 0 0 0 -1 3005.dat
0 STEP
1 71 870 -408 90 0 0 1 0 1 0 -1 0 0 3622.dat
1 71 870 -408 180 0 0 1 0 1 0 -1 0 0 3009.dat
1 71 760 -408 230 -1 0 0 0 1 0 0 0 -1 6111.dat
0 STEP
1 71 450 -416 110 0 0 1 0 1 0 -1 0 0 3623.dat
1 71 450 -416 180 0 0 1 0 1 0 -1 0 0 3710.dat
1 71 580 -416 230 -1 0 0 0 1 0 0 0 -1 4477.dat
0 STEP
1 71 870 -416 110 0 0 1 0 1 0 -1 0 0 3623.dat
1 71 870 -416 180 0 0 1 0 1 0 -1 0 0 3710.dat
1 71 780 -416 230 -1 0 0 0 1 0 0 0 -1 4477.dat
0 STEP
1 84 780 -264 50 1 0 0 0 1 0 0 0 1 11211.dat
1 84 660 -264 50 1 0 0 0 1 0 0 0 1 11211.dat
1 84 540 -264 50 1 0 0 0 1 0 0 0 1 11211.dat
1 84 720 -264 50 1 0 0 0 1 0 0 0 1 3010.dat
1 84 480 -264 50 1 0 0 0 1 0 0 0 1 15533.dat
1 84 840 -264 50 1 0 0 0 1 0 0 0 1 15533.dat
1 84 600 -264 50 1 0 0 0 1 0 0 0 1 3010.dat
0 STEP
1 84 500 -272 50 1 0 0 0 1 0 0 0 1 15573.dat
1 84 540 -272 50 1 0 0 0 1 0 0 0 1 15573.dat
1 84 780 -272 50 1 0 0 0 1 0 0 0 1 15573.dat
1 84 660 -272 50 1 0 0 0 1 0 0 0 1 15573.dat
1 84 820 -272 50 1 0 0 0 1 0 0 0 1 15573.dat
1 84 720 -288 50 1 0 0 0 1 0 0 0 1 15533.dat
1 84 860 -288 50 1 0 0 0 1 0 0 0 1 98283.dat
1 84 600 -288 50 1 0 0 0 1 0 0 0 1 15533.dat
0 STEP
1 84 800 -280 50 1 0 0 0 1 0 0 0 1 3020.dat
1 70 800 -288 50 1 0 0 0 1 0 0 0 1 3020.dat
1 70 800 -296 60 1 0 0 0 1 0 0 0 1 3710.dat
0 STEP
1 70 660 -288 50 0 0 -1 0 1 0 1 0 0 3022.dat
1 70 660 -296 60 1 0 0 0 1 0 0 0 1 3023.dat
1 84 660 -280 50 0 0 -1 0 1 0 1 0 0 3022.dat
0 STEP
1 84 520 -280 50 1 0 0 0 1 0 0 0 1 3020.dat
1 70 520 -288 50 1 0 0 0 1 0 0 0 1 3020.dat
1 70 520 -296 60 1 0 0 0 1 0 0 0 1 3710.dat
0 STEP
1 84 860 -312 50 1 0 0 0 1 0 0 0 1 98283.dat
1 84 860 -336 50 1 0 0 0 1 0 0 0 1 98283.dat
1 84 600 -312 50 1 0 0 0 1 0 0 0 1 15533.dat
1 84 600 -336 50 1 0 0 0 1 0 0 0 1 15533.dat
1 84 720 -312 50 1 0 0 0 1 0 0 0 1 15533.dat
1 84 720 -336 50 1 0 0 0 1 0 0 0 1 15533.dat
0 STEP
1 70 820 -344 60 1 0 0 0 1 0 0 0 1 60592.dat
1 70 780 -344 60 1 0 0 0 1 0 0 0 1 60592.dat
1 70 660 -344 60 1 0 0 0 1 0 0 0 1 60592.dat
1 70 540 -344 60 1 0 0 0 1 0 0 0 1 60592.dat
1 70 500 -344 60 1 0 0 0 1 0 0 0 1 60592.dat
0 STEP
1 84 860 -360 50 1 0 0 0 1 0 0 0 1 98283.dat
1 84 860 -384 50 1 0 0 0 1 0 0 0 1 98283.dat
1 84 600 -384 50 1 0 0 0 1 0 0 0 1 15533.dat
1 84 600 -360 50 1 0 0 0 1 0 0 0 1 15533.dat
1 84 720 -360 50 1 0 0 0 1 0 0 0 1 15533.dat
1 84 720 -384 50 1 0 0 0 1 0 0 0 1 15533.dat
0 STEP
1 70 500 -392 60 1 0 0 0 1 0 0 0 1 60592.dat
1 70 540 -392 60 1 0 0 0 1 0 0 0 1 60592.dat
1 70 660 -392 60 1 0 0 0 1 0 0 0 1 60592.dat
1 70 780 -392 60 1 0 0 0 1 0 0 0 1 60592.dat
1 70 820 -392 60 1 0 0 0 1 0 0 0 1 60592.dat
0 STEP
1 84 860 -408 50 1 0 0 0 1 0 0 0 1 98283.dat
1 84 600 -408 50 1 0 0 0 1 0 0 0 1 15533.dat
1 84 720 -408 50 1 0 0 0 1 0 0 0 1 15533.dat
0 STEP
1 84 800 -408 60 1 0 0 0 1 0 0 0 1 3020.dat
1 84 520 -408 60 1 0 0 0 1 0 0 0 1 3020.dat
1 84 660 -408 60 0 0 -1 0 1 0 1 0 0 3022.dat
1 70 820 -400 60 1 0 0 0 1 0 0 0 1 15573.dat
1 70 780 -400 60 1 0 0 0 1 0 0 0 1 15573.dat
1 70 660 -400 60 1 0 0 0 1 0 0 0 1 15573.dat
1 70 540 -400 60 1 0 0 0 1 0 0 0 1 15573.dat
1 70 500 -400 60 1 0 0 0 1 0 0 0 1 15573.dat
0 STEP
1 84 520 -416 70 1 0 0 0 1 0 0 0 1 3460.dat
1 84 660 -416 70 1 0 0 0 1 0 0 0 1 3666.dat
1 84 800 -416 70 1 0 0 0 1 0 0 0 1 3460.dat
0 STEP
1 84 470 -416 50 1 0 0 0 1 0 0 0 1 36840.dat
1 84 510 -416 50 1 0 0 0 1 0 0 0 1 36840.dat
1 84 550 -416 50 1 0 0 0 1 0 0 0 1 36840.dat
1 84 590 -416 50 1 0 0 0 1 0 0 0 1 36840.dat
1 84 630 -416 50 1 0 0 0 1 0 0 0 1 36840.dat
1 84 670 -416 50 1 0 0 0 1 0 0 0 1 36840.dat
1 84 710 -416 50 1 0 0 0 1 0 0 0 1 36840.dat
1 84 750 -416 50 1 0 0 0 1 0 0 0 1 36840.dat
1 84 790 -416 50 1 0 0 0 1 0 0 0 1 36840.dat
1 84 830 -416 50 1 0 0 0 1 0 0 0 1 36840.dat
1 84 870 -416 50 1 0 0 0 1 0 0 0 1 36840.dat
1 84 850 -416 50 1 0 0 0 1 0 0 0 1 3024.dat
1 84 810 -416 50 1 0 0 0 1 0 0 0 1 3024.dat
1 84 770 -416 50 1 0 0 0 1 0 0 0 1 3024.dat
1 84 730 -416 50 1 0 0 0 1 0 0 0 1 3024.dat
1 84 690 -416 50 1 0 0 0 1 0 0 0 1 3024.dat
1 84 650 -416 50 1 0 0 0 1 0 0 0 1 3024.dat
1 84 610 -416 50 1 0 0 0 1 0 0 0 1 3024.dat
1 84 570 -416 50 1 0 0 0 1 0 0 0 1 3024.dat
1 84 530 -416 50 1 0 0 0 1 0 0 0 1 3024.dat
1 84 490 -416 50 1 0 0 0 1 0 0 0 1 3024.dat
1 84 450 -416 50 1 0 0 0 1 0 0 0 1 3024.dat
0 STEP
1 84 470 -418 28 1 0 0 0 0 -1 0 1 0 3070b.dat
1 84 510 -418 28 1 0 0 0 0 -1 0 1 0 3070b.dat
1 84 550 -418 28 1 0 0 0 0 -1 0 1 0 3070b.dat
1 84 590 -418 28 1 0 0 0 0 -1 0 1 0 3070b.dat
1 84 630 -418 28 1 0 0 0 0 -1 0 1 0 3070b.dat
1 84 670 -418 28 1 0 0 0 0 -1 0 1 0 3070b.dat
1 84 710 -418 28 1 0 0 0 0 -1 0 1 0 3070b.dat
1 84 750 -418 28 1 0 0 0 0 -1 0 1 0 3070b.dat
1 84 790 -418 28 1 0 0 0 0 -1 0 1 0 3070b.dat
1 84 870 -418 28 1 0 0 0 0 -1 0 1 0 3070b.dat
1 84 830 -418 28 1 0 0 0 0 -1 0 1 0 3070b.dat
0 STEP
1 71 480 -424 60 1 0 0 0 1 0 0 0 1 87079.dat
1 71 820 -424 60 1 0 0 0 1 0 0 0 1 69729.dat
1 71 700 -424 60 1 0 0 0 1 0 0 0 1 69729.dat
1 71 580 -424 60 1 0 0 0 1 0 0 0 1 69729.dat
0 STEP
1 28 740 -244 32 1 0 0 0 0 -1 0 1 0 3034.dat
1 28 580 -244 32 1 0 0 0 0 -1 0 1 0 3034.dat
0 STEP
1 28 700 -244 24 1 0 0 0 0 -1 0 1 0 87079.dat
1 28 540 -244 24 1 0 0 0 0 -1 0 1 0 87079.dat
1 28 780 -244 24 1 0 0 0 0 -1 0 1 0 87079.dat
1 28 620 -244 24 1 0 0 0 0 -1 0 1 0 87079.dat
0 STEP
1 4 790 -304 40 1 0 0 0 1 0 0 0 1 24866.dat
1 4 670 -304 40 1 0 0 0 1 0 0 0 1 24866.dat
1 4 530 -304 40 1 0 0 0 1 0 0 0 1 24866.dat
1 10 790 -296 40 1 0 1 0 1 0 -1 0 1 32607.dat
1 10 670 -296 40 1 0 0 0 1 0 0 0 1 32607.dat
1 10 530 -296 40 1 0 1 0 1 0 -1 0 1 32607.dat
0 STEP
1 71 450 -424 120 0 0 1 0 1 0 -1 0 0 41740.dat
1 71 870 -424 120 0 0 1 0 1 0 -1 0 0 41740.dat
1 71 600 -424 230 -1 0 0 0 1 0 0 0 -1 6636.dat
1 71 720 -424 230 -1 0 0 0 1 0 0 0 -1 6636.dat
1 71 820 -424 230 -1 0 0 0 1 0 0 0 -1 41740.dat
1 71 500 -424 230 -1 0 0 0 1 0 0 0 -1 41740.dat
1 71 450 -424 200 0 0 1 0 1 0 -1 0 0 2431.dat
1 71 870 -424 200 0 0 1 0 1 0 -1 0 0 2431.dat
0 Converted
0 Author: Dominic Davis-Foster
0 Converted with https://mb-converter.netlify.app made by The_An0nym using the conversion files from Mecabricks.
1 71 0 -440 120 1 0 0 0 1 0 0 0 1 92438.dat
0 STEP
1 72 -60 -432 60 1 0 0 0 1 0 0 0 1 3832.dat
0 STEP
1 72 160 -432 60 1 0 0 0 1 0 0 0 1 2445.dat
1 71 220 -440 120 0 0 1 0 1 0 -1 0 0 3036.dat
0 STEP
1 71 80 -440 220 1 0 0 0 1 0 0 0 1 2445.dat
0 STEP
1 72 160 -432 200 1 0 0 0 1 0 0 0 1 3832.dat
0 STEP
1 71 -100 -440 220 1 0 0 0 1 0 0 0 1 3795.dat
1 72 -40 -432 200 1 0 0 0 1 0 0 0 1 3832.dat
1 72 -150 -432 160 0 0 1 0 1 0 -1 0 0 3460.dat
0 STEP
1 72 -40 -432 230 1 0 0 0 1 0 0 0 1 4477.dat
1 72 160 -432 230 1 0 0 0 1 0 0 0 1 4477.dat
0 STEP
1 71 -80 -464 80 1 0 0 0 1 0 0 0 1 3007.dat
1 71 80 -464 80 1 0 0 0 1 0 0 0 1 3007.dat
1 71 220 -464 80 1 0 0 0 1 0 0 0 1 2456.dat
0 STEP
1 320 -120 -464 50 1 0 0 0 1 0 0 0 1 3039.dat
1 320 -80 -464 50 1 0 0 0 1 0 0 0 1 3039.dat
1 320 -40 -464 50 1 0 0 0 1 0 0 0 1 3039.dat
1 320 0 -464 50 1 0 0 0 1 0 0 0 1 3039.dat
1 320 40 -464 50 1 0 0 0 1 0 0 0 1 3039.dat
1 320 80 -464 50 1 0 0 0 1 0 0 0 1 3039.dat
1 320 120 -464 50 1 0 0 0 1 0 0 0 1 3039.dat
1 320 160 -464 50 1 0 0 0 1 0 0 0 1 3039.dat
1 320 200 -464 50 1 0 0 0 1 0 0 0 1 3039.dat
1 320 240 -464 50 1 0 0 0 1 0 0 0 1 3039.dat
0 STEP
1 320 -150 -464 50 1 0 0 0 1 0 0 0 1 3040b.dat
0 STEP
1 71 -80 -488 90 1 0 0 0 1 0 0 0 1 3008.dat
1 71 80 -488 90 1 0 0 0 1 0 0 0 1 3008.dat
1 71 240 -488 90 1 0 0 0 1 0 0 0 1 3008.dat
0 STEP
1 320 220 -488 70 1 0 0 0 1 0 0 0 1 3039.dat
1 320 -140 -488 70 1 0 0 0 1 0 0 0 1 3039.dat
1 320 -100 -488 70 1 0 0 0 1 0 0 0 1 3039.dat
1 320 -60 -488 70 1 0 0 0 1 0 0 0 1 3039.dat
1 320 -20 -488 70 1 0 0 0 1 0 0 0 1 3039.dat
1 320 20 -488 70 1 0 0 0 1 0 0 0 1 3039.dat
1 320 60 -488 70 1 0 0 0 1 0 0 0 1 3039.dat
1 320 100 -488 70 1 0 0 0 1 0 0 0 1 3039.dat
1 320 140 -488 70 1 0 0 0 1 0 0 0 1 3039.dat
1 320 180 -488 70 1 0 0 0 1 0 0 0 1 3039.dat
0 STEP
1 320 -120 -512 90 1 0 0 0 1 0 0 0 1 3039.dat
1 320 -80 -512 90 1 0 0 0 1 0 0 0 1 3039.dat
1 320 -40 -512 90 1 0 0 0 1 0 0 0 1 3039.dat
1 320 0 -512 90 1 0 0 0 1 0 0 0 1 3039.dat
1 320 40 -512 90 1 0 0 0 1 0 0 0 1 3039.dat
1 320 80 -512 90 1 0 0 0 1 0 0 0 1 3039.dat
1 320 120 -512 90 1 0 0 0 1 0 0 0 1 3039.dat
1 320 160 -512 90 1 0 0 0 1 0 0 0 1 3039.dat
1 320 200 -512 90 1 0 0 0 1 0 0 0 1 3039.dat
0 STEP
1 320 -150 -512 90 1 0 0 0 1 0 0 0 1 3040b.dat
0 STEP
1 320 -80 -520 90 1 0 0 0 1 0 0 0 1 4162.dat
1 320 80 -520 90 1 0 0 0 1 0 0 0 1 4162.dat
0 Converted
0 Author: Dominic Davis-Foster
0 Converted with https://mb-converter.netlify.app made by The_An0nym using the conversion files from Mecabricks.
1 71 720 -440 120 1 0 0 0 1 0 0 0 1 92438.dat
0 STEP
1 72 780 -432 60 1 0 0 0 1 0 0 0 1 3832.dat
0 STEP
1 72 560 -432 60 1 0 0 0 1 0 0 0 1 2445.dat
1 71 500 -440 120 0 0 1 0 1 0 -1 0 0 3036.dat
0 STEP
1 71 640 -440 220 1 0 0 0 1 0 0 0 1 2445.dat
0 STEP
1 72 560 -432 200 1 0 0 0 1 0 0 0 1 3832.dat
0 STEP
1 71 820 -440 220 1 0 0 0 1 0 0 0 1 3795.dat
1 72 760 -432 200 1 0 0 0 1 0 0 0 1 3832.dat
1 72 870 -432 160 0 0 1 0 1 0 -1 0 0 3460.dat
0 STEP
1 72 760 -432 230 1 0 0 0 1 0 0 0 1 4477.dat
1 72 560 -432 230 1 0 0 0 1 0 0 0 1 4477.dat
0 STEP
1 71 800 -464 80 1 0 0 0 1 0 0 0 1 3007.dat
1 71 640 -464 80 1 0 0 0 1 0 0 0 1 3007.dat
1 71 500 -464 80 1 0 0 0 1 0 0 0 1 2456.dat
0 STEP
1 320 840 -464 50 1 0 0 0 1 0 0 0 1 3039.dat
1 320 800 -464 50 1 0 0 0 1 0 0 0 1 3039.dat
1 320 760 -464 50 1 0 0 0 1 0 0 0 1 3039.dat
1 320 720 -464 50 1 0 0 0 1 0 0 0 1 3039.dat
1 320 680 -464 50 1 0 0 0 1 0 0 0 1 3039.dat
1 320 640 -464 50 1 0 0 0 1 0 0 0 1 3039.dat
1 320 600 -464 50 1 0 0 0 1 0 0 0 1 3039.dat
1 320 560 -464 50 1 0 0 0 1 0 0 0 1 3039.dat
1 320 520 -464 50 1 0 0 0 1 0 0 0 1 3039.dat
1 320 480 -464 50 1 0 0 0 1 0 0 0 1 3039.dat
0 STEP
1 320 870 -464 50 1 0 0 0 1 0 0 0 1 3040b.dat
0 STEP
1 71 800 -488 90 1 0 0 0 1 0 0 0 1 3008.dat
1 71 640 -488 90 1 0 0 0 1 0 0 0 1 3008.dat
1 71 480 -488 90 1 0 0 0 1 0 0 0 1 3008.dat
0 STEP
1 320 500 -488 70 1 0 0 0 1 0 0 0 1 3039.dat
1 320 860 -488 70 1 0 0 0 1 0 0 0 1 3039.dat
1 320 820 -488 70 1 0 0 0 1 0 0 0 1 3039.dat
1 320 780 -488 70 1 0 0 0 1 0 0 0 1 3039.dat
1 320 740 -488 70 1 0 0 0 1 0 0 0 1 3039.dat
1 320 700 -488 70 1 0 0 0 1 0 0 0 1 3039.dat
1 320 660 -488 70 1 0 0 0 1 0 0 0 1 3039.dat
1 320 620 -488 70 1 0 0 0 1 0 0 0 1 3039.dat
1 320 580 -488 70 1 0 0 0 1 0 0 0 1 3039.dat
1 320 540 -488 70 1 0 0 0 1 0 0 0 1 3039.dat
0 STEP
1 320 840 -512 90 1 0 0 0 1 0 0 0 1 3039.dat
1 320 800 -512 90 1 0 0 0 1 0 0 0 1 3039.dat
1 320 760 -512 90 1 0 0 0 1 0 0 0 1 3039.dat
1 320 720 -512 90 1 0 0 0 1 0 0 0 1 3039.dat
1 320 680 -512 90 1 0 0 0 1 0 0 0 1 3039.dat
1 320 640 -512 90 1 0 0 0 1 0 0 0 1 3039.dat
1 320 600 -512 90 1 0 0 0 1 0 0 0 1 3039.dat
1 320 560 -512 90 1 0 0 0 1 0 0 0 1 3039.dat
1 320 520 -512 90 1 0 0 0 1 0 0 0 1 3039.dat
0 STEP
1 320 870 -512 90 1 0 0 0 1 0 0 0 1 3040b.dat
0 STEP
1 320 800 -520 90 1 0 0 0 1 0 0 0 1 4162.dat
1 320 640 -520 90 1 0 0 0 1 0 0 0 1 4162.dat
0 Converted
0 Author: Dominic Davis-Foster
0 Converted with https://mb-converter.netlify.app made by The_An0nym using the conversion files from Mecabricks.
1 72 360 -8 80 1 0 0 0 1 0 0 0 1 3035.dat
0 STEP
1 72 360 -8 130 1 0 0 0 1 0 0 0 1 3460.dat
1 84 310 -32 120 0 0 -1 0 1 0 1 0 0 98283.dat
1 84 410 -32 120 0 0 1 0 1 0 -1 0 0 98283.dat
0 STEP
1 84 310 -32 80 0 0 -1 0 1 0 1 0 0 98283.dat
1 84 410 -32 80 0 0 1 0 1 0 -1 0 0 98283.dat
0 STEP
1 72 300 -56 80 0 0 1 0 1 0 -1 0 0 3003.dat
1 72 420 -56 80 0 0 1 0 1 0 -1 0 0 3003.dat
1 72 310 -56 120 0 0 -1 0 1 0 1 0 0 3004.dat
1 72 410 -56 120 0 0 -1 0 1 0 1 0 0 3004.dat
0 STEP
1 72 290 -80 80 0 0 -1 0 1 0 1 0 0 3004.dat
1 72 430 -80 80 0 0 -1 0 1 0 1 0 0 3004.dat
1 72 310 -80 100 0 0 -1 0 1 0 1 0 0 3010.dat
1 72 410 -80 100 0 0 -1 0 1 0 1 0 0 3010.dat
0 STEP
1 72 310 -104 120 0 0 -1 0 1 0 1 0 0 3004.dat
1 72 410 -104 120 0 0 -1 0 1 0 1 0 0 3004.dat
1 72 410 -104 80 0 0 -1 0 1 0 1 0 0 3004.dat
1 72 310 -104 80 0 0 -1 0 1 0 1 0 0 86876.dat
0 STEP
1 72 310 -128 100 0 0 -1 0 1 0 1 0 0 3010.dat
1 72 410 -128 100 0 0 -1 0 1 0 1 0 0 3010.dat
0 STEP
1 72 328 -94 80 0 -1 0 1 0 0 0 0 1 3069bpc5.dat
0 STEP
1 72 310 -152 120 0 0 -1 0 1 0 1 0 0 3004.dat
1 72 310 -152 80 0 0 -1 0 1 0 1 0 0 3004.dat
1 72 410 -152 120 0 0 -1 0 1 0 1 0 0 3004.dat
1 72 410 -152 80 0 0 -1 0 1 0 1 0 0 3004.dat
0 STEP
1 72 310 -176 100 0 0 -1 0 1 0 1 0 0 3010.dat
1 72 410 -176 100 0 0 -1 0 1 0 1 0 0 3010.dat
0 STEP
1 72 360 -152 130 -1 0 0 0 1 0 0 0 -1 60596.dat
1 0 328 -10 125 1 0 0 0 -1 0 0 0 -1 60797c02.dat
0 STEP
1 47 380 -176 130 1 0 0 0 1 0 0 0 1 3065.dat
1 47 340 -176 130 1 0 0 0 1 0 0 0 1 3065.dat
0 STEP
1 72 360 -184 130 1 0 0 0 1 0 0 0 1 3666.dat
1 72 310 -184 100 0 0 -1 0 1 0 1 0 0 3023.dat
1 72 410 -184 100 0 0 -1 0 1 0 1 0 0 3023.dat
0 STEP
1 84 300 -32 50 1 0 0 0 1 0 0 0 1 98283.dat
1 84 420 -32 50 1 0 0 0 1 0 0 0 1 98283.dat
1 84 300 -56 50 1 0 0 0 1 0 0 0 1 98283.dat
1 84 300 -80 50 1 0 0 0 1 0 0 0 1 98283.dat
1 84 420 -56 50 1 0 0 0 1 0 0 0 1 98283.dat
1 84 420 -80 50 1 0 0 0 1 0 0 0 1 98283.dat
1 84 300 -104 50 1 0 0 0 1 0 0 0 1 98283.dat
1 84 300 -128 50 1 0 0 0 1 0 0 0 1 98283.dat
1 84 300 -152 50 1 0 0 0 1 0 0 0 1 98283.dat
1 84 300 -176 50 1 0 0 0 1 0 0 0 1 98283.dat
1 84 420 -104 50 1 0 0 0 1 0 0 0 1 98283.dat
1 84 420 -128 50 1 0 0 0 1 0 0 0 1 98283.dat
1 84 420 -152 50 1 0 0 0 1 0 0 0 1 98283.dat
1 84 420 -176 50 1 0 0 0 1 0 0 0 1 98283.dat
0 STEP
1 72 310 -184 50 0 0 -1 0 1 0 1 0 0 2420.dat
1 72 410 -184 50 1 0 0 0 1 0 0 0 1 2420.dat
0 STEP
1 72 420 -208 100 0 0 -1 0 1 0 1 0 0 3001.dat
1 72 300 -208 100 0 0 -1 0 1 0 1 0 0 3001.dat
1 72 360 -208 130 1 0 0 0 1 0 0 0 1 3010.dat
0 STEP
1 72 290 -208 50 1 0 0 0 1 0 0 0 1 20310.dat
1 72 430 -208 50 1 0 0 0 1 0 0 0 1 20310.dat
1 72 360 -208 50 1 0 0 0 1 0 0 0 1 92950.dat
0 STEP
1 72 360 -216 80 1 0 0 0 1 0 0 0 1 3035.dat
1 72 360 -216 130 1 0 0 0 1 0 0 0 1 3460.dat
0 STEP
1 72 290 -224 100 0 0 1 0 1 0 -1 0 0 41740.dat
1 72 430 -224 100 0 0 1 0 1 0 -1 0 0 41740.dat
1 72 320 -224 50 -1 0 0 0 1 0 0 0 -1 41740.dat
1 72 400 -224 50 -1 0 0 0 1 0 0 0 -1 41740.dat
1 72 360 -224 130 -1 0 0 0 1 0 0 0 -1 41740.dat
1 71 360 -232 160 1 0 0 0 1 0 0 0 1 41539.dat
1 72 360 -232 60 1 0 0 0 1 0 0 0 1 3034.dat
0 STEP
1 71 360 -240 60 1 0 0 0 1 0 0 0 1 3020.dat
0 STEP
1 84 320 -264 50 1 0 0 0 1 0 0 0 1 15533.dat
1 84 400 -264 50 1 0 0 0 1 0 0 0 1 15533.dat
0 STEP
1 84 360 -272 50 1 0 0 0 1 0 0 0 1 15573.dat
1 84 390 -272 50 1 0 0 0 1 0 0 0 1 3070b.dat
1 84 330 -272 50 1 0 0 0 1 0 0 0 1 3070b.dat
0 STEP
1 72 360 -264 70 1 0 0 0 1 0 0 0 1 3010.dat
1 72 360 -272 70 1 0 0 0 1 0 0 0 1 41740.dat
0 STEP
1 70 360 -288 50 1 0 0 0 1 0 0 0 1 3022.dat
1 84 360 -280 50 1 0 0 0 1 0 0 0 1 3022.dat
0 STEP
1 0 390 -280 68 1 0 0 0 1 0 0 0 1 73825.dat
1 0 330 -280 68 1 0 0 0 1 0 0 0 1 73825.dat
0 STEP
1 70 360 -344 60 1 0 0 0 1 0 0 0 1 60592.dat
1 70 360 -296 60 1 0 0 0 1 0 0 0 1 3023.dat
0 STEP
1 70 360 -392 60 1 0 0 0 1 0 0 0 1 60592.dat
0 STEP
1 84 390 -332 46 0 0 -1 -1 0 0 0 1 0 6636.dat
1 84 330 -332 46 0 0 -1 -1 0 0 0 1 0 6636.dat
0 STEP
1 0 330 -392 68 1 0 0 0 1 0 0 0 1 79389.dat
1 0 390 -392 68 1 0 0 0 1 0 0 0 1 79389.dat
0 STEP
1 70 360 -400 60 1 0 0 0 1 0 0 0 1 15573.dat
1 84 390 -400 66 0 0 -1 0 1 0 1 0 0 3069b.dat
1 84 330 -400 66 0 0 -1 0 1 0 1 0 0 3069b.dat
0 STEP
1 84 360 -408 60 1 0 0 0 1 0 0 0 1 3020.dat
0 STEP
1 84 280 -384 50 1 0 0 0 1 0 0 0 1 15533.dat
1 84 440 -384 50 1 0 0 0 1 0 0 0 1 15533.dat
1 84 280 -288 50 1 0 0 0 1 0 0 0 1 15533.dat
1 84 440 -288 50 1 0 0 0 1 0 0 0 1 15533.dat
1 84 280 -312 50 1 0 0 0 1 0 0 0 1 15533.dat
1 84 440 -312 50 1 0 0 0 1 0 0 0 1 15533.dat
1 84 280 -336 50 1 0 0 0 1 0 0 0 1 15533.dat
1 84 440 -336 50 1 0 0 0 1 0 0 0 1 15533.dat
1 84 280 -360 50 1 0 0 0 1 0 0 0 1 15533.dat
1 84 440 -360 50 1 0 0 0 1 0 0 0 1 15533.dat
1 84 280 -408 50 1 0 0 0 1 0 0 0 1 15533.dat
1 84 440 -408 50 1 0 0 0 1 0 0 0 1 15533.dat
0 STEP
1 84 360 -448 50 1 0 0 0 1 0 0 0 1 22885.dat
0 STEP
1 84 320 -416 60 -1 0 0 0 1 0 0 0 -1 3022.dat
1 84 400 -416 60 -1 0 0 0 1 0 0 0 -1 3022.dat
1 84 290 -416 50 1 0 0 0 1 0 0 0 1 36840.dat
1 84 430 -416 50 1 0 0 0 1 0 0 0 1 36840.dat
0 STEP
1 71 310 -424 60 -1 0 0 0 1 0 0 0 -1 3021.dat
1 71 410 -424 60 -1 0 0 0 1 0 0 0 -1 3021.dat
0 STEP
1 0 310 -432 70 -1 0 0 0 1 0 0 0 -1 63864.dat
1 0 410 -432 70 -1 0 0 0 1 0 0 0 -1 63864.dat
1 72 310 -432 50 -1 0 0 0 1 0 0 0 -1 3623.dat
1 72 410 -432 50 -1 0 0 0 1 0 0 0 -1 3623.dat
0 STEP
1 71 290 -440 50 -1 0 0 0 1 0 0 0 -1 3070b.dat
1 71 430 -440 50 -1 0 0 0 1 0 0 0 -1 3070b.dat
1 71 320 -440 50 -1 0 0 0 1 0 0 0 -1 3023.dat
1 71 400 -440 50 -1 0 0 0 1 0 0 0 -1 3023.dat
0 STEP
1 84 320 -448 50 -1 0 0 0 1 0 0 0 -1 3023.dat
1 84 400 -448 50 -1 0 0 0 1 0 0 0 -1 3023.dat
0 STEP
1 84 310 -456 50 -1 0 0 0 1 0 0 0 -1 3070b.dat
1 84 410 -456 50 -1 0 0 0 1 0 0 0 -1 3070b.dat
1 84 360 -456 50 -1 0 0 0 1 0 0 0 -1 41740.dat
0 STEP
1 19 360 -428 32 0 0 1 1 0 0 0 1 0 66857.dat
1 84 430 -418 28 1 0 0 0 0 -1 0 1 0 3070b.dat
1 84 290 -418 28 1 0 0 0 0 -1 0 1 0 3070b.dat
0 STEP
1 71 360 -416 230 1 0 0 0 1 0 0 0 1 60479.dat
0 STEP
1 71 400 -424 230 1 0 0 0 1 0 0 0 1 2431.dat
1 71 320 -424 230 1 0 0 0 1 0 0 0 1 2431.dat
1 72 360 -432 180 -1 0 0 0 1 0 0 0 -1 3033.dat
0 STEP
1 71 360 -440 120 -1 0 0 0 1 0 0 0 -1 3036.dat
1 72 360 -432 100 -1 0 0 0 1 0 0 0 -1 3832.dat
0 STEP
1 71 360 -440 220 -1 0 0 0 1 0 0 0 -1 4282.dat
1 71 360 -440 190 -1 0 0 0 1 0 0 0 -1 3460.dat
0 STEP
1 1 360 -448 70 -1 0 0 0 1 0 0 0 -1 3460.dat
1 1 360 -456 70 -1 0 0 0 1 0 0 0 -1 3460.dat
0 STEP
1 84 360 -464 60 -1 0 0 0 1 0 0 0 -1 3795.dat
0 STEP
1 71 360 -464 90 -1 0 0 0 1 0 0 0 -1 3008.dat
0 STEP
1 320 430 -464 50 1 0 0 0 1 0 0 0 1 3046.dat
1 320 290 -464 50 0 0 1 0 1 0 -1 0 0 3046.dat
0 STEP
1 320 310 -488 70 0 0 1 0 1 0 -1 0 0 3046.dat
1 320 310 -488 30 0 0 1 0 1 0 -1 0 0 3040b.dat
1 320 260 -488 70 1 0 0 0 1 0 0 0 1 3039.dat
0 STEP
1 320 360 -488 40 -1 0 0 0 1 0 0 0 -1 3001.dat
1 71 360 -488 80 -1 0 0 0 1 0 0 0 -1 3001.dat
0 STEP
1 320 410 -488 70 1 0 0 0 1 0 0 0 1 3046.dat
1 320 410 -488 30 0 0 -1 0 1 0 1 0 0 3040b.dat
1 320 460 -488 70 1 0 0 0 1 0 0 0 1 3039.dat
0 STEP
1 320 330 -512 90 0 0 1 0 1 0 -1 0 0 3046.dat
1 320 330 -512 40 0 0 1 0 1 0 -1 0 0 3039.dat
1 320 240 -512 90 1 0 0 0 1 0 0 0 1 3039.dat
1 320 280 -512 90 1 0 0 0 1 0 0 0 1 3039.dat
0 STEP
1 320 390 -512 90 1 0 0 0 1 0 0 0 1 3046.dat
1 320 440 -512 90 1 0 0 0 1 0 0 0 1 3039.dat
1 320 480 -512 90 1 0 0 0 1 0 0 0 1 3039.dat
1 320 390 -512 40 0 0 -1 0 1 0 1 0 0 3039.dat
0 STEP
1 320 360 -512 60 0 0 1 0 1 0 -1 0 0 3001.dat
0 STEP
1 320 350 -536 60 0 0 1 0 1 0 -1 0 0 3037.dat
1 320 370 -536 60 0 0 -1 0 1 0 1 0 0 3037.dat
0 STEP
1 320 360 -560 60 0 0 1 0 1 0 -1 0 0 3299.dat
0 STEP
1 320 240 -520 90 1 0 0 0 1 0 0 0 1 4162.dat
1 320 480 -520 90 1 0 0 0 1 0 0 0 1 4162.dat
1 320 480 -520 90 1 0 0 0 1 0 0 0 1 4162.dat
1 320 480 -520 90 1 0 0 0 1 0 0 0 1 4162.dat
