0 Converted
0 Author: Dominic Davis-Foster
0 Converted with https://mb-converter.netlify.app made by The_An0nym using the conversion files from Mecabricks.
1 72 110 -8 80 1 0 0 0 1 0 0 0 1 41539.dat
0 STEP
1 28 130 -16 130 1 0 0 0 1 0 0 0 1 3069b.dat
1 28 160 -16 100 0 0 1 0 1 0 -1 0 0 3069b.dat
1 379 160 -16 130 0 0 1 0 1 0 -1 0 0 3070b.dat
0 STEP
1 379 160 -16 70 0 0 1 0 1 0 -1 0 0 3024.dat
1 28 160 -16 10 0 0 1 0 1 0 -1 0 0 3024.dat
1 28 160 -16 30 0 0 1 0 1 0 -1 0 0 3070b.dat
1 379 160 -16 50 0 0 1 0 1 0 -1 0 0 3070b.dat
0 STEP
1 28 50 -16 130 1 0 0 0 1 0 0 0 1 3023.dat
1 379 90 -16 130 1 0 0 0 1 0 0 0 1 3069b.dat
0 STEP
1 379 130 -16 100 1 0 0 0 1 0 0 0 1 3068b.dat
1 28 90 -16 100 1 0 0 0 1 0 0 0 1 3068b.dat
1 379 50 -16 100 1 0 0 0 1 0 0 0 1 3068b.dat
0 STEP
1 28 120 -16 50 1 0 0 0 1 0 0 0 1 14719.dat
1 28 140 -16 70 0 0 1 0 1 0 -1 0 0 3024.dat
1 379 90 -16 60 1 0 0 0 1 0 0 0 1 87580.dat
0 STEP
1 28 50 -16 60 1 0 0 0 1 0 0 0 1 3068b.dat
1 28 90 -16 20 1 0 0 0 1 0 0 0 1 3068b.dat
1 379 130 -16 20 1 0 0 0 1 0 0 0 1 3068b.dat
0 STEP
1 379 50 -16 20 1 0 0 0 1 0 0 0 1 3022.dat
0 STEP
1 72 70 -32 150 1 0 0 0 1 0 0 0 1 15533.dat
1 330 130 -32 150 1 0 0 0 1 0 0 0 1 98283.dat
1 72 170 -32 150 1 0 0 0 1 0 0 0 1 98283.dat
0 STEP
1 72 180 -32 80 0 0 1 0 1 0 -1 0 0 98283.dat
1 330 180 -32 120 0 0 1 0 1 0 -1 0 0 98283.dat
1 72 180 -32 40 0 0 1 0 1 0 -1 0 0 98283.dat
0 STEP
1 72 150 -56 150 1 0 0 0 1 0 0 0 1 15533.dat
1 330 90 -56 150 1 0 0 0 1 0 0 0 1 98283.dat
1 72 50 -56 150 1 0 0 0 1 0 0 0 1 98283.dat
0 STEP
1 72 180 -56 100 0 0 1 0 1 0 -1 0 0 15533.dat
1 72 180 -56 40 0 0 1 0 1 0 -1 0 0 98283.dat
0 STEP
1 72 170 -80 150 1 0 0 0 1 0 0 0 1 98283.dat
1 72 70 -80 150 1 0 0 0 1 0 0 0 1 15533.dat
1 72 130 -80 150 1 0 0 0 1 0 0 0 1 98283.dat
1 72 170 -80 150 1 0 0 0 1 0 0 0 1 98283.dat
0 STEP
1 330 180 -80 80 0 0 1 0 1 0 -1 0 0 98283.dat
1 72 180 -80 40 0 0 1 0 1 0 -1 0 0 98283.dat
1 72 180 -80 120 0 0 1 0 1 0 -1 0 0 98283.dat
0 STEP
1 330 170 -104 150 1 0 0 0 1 0 0 0 1 98283.dat
1 72 50 -104 150 1 0 0 0 1 0 0 0 1 98283.dat
1 72 110 -104 150 1 0 0 0 1 0 0 0 1 30414.dat
0 STEP
1 72 180 -104 60 0 0 1 0 1 0 -1 0 0 15533.dat
1 72 180 -104 120 0 0 1 0 1 0 -1 0 0 98283.dat
0 STEP
1 72 150 -128 150 1 0 0 0 1 0 0 0 1 15533.dat
1 330 90 -128 150 1 0 0 0 1 0 0 0 1 98283.dat
1 72 50 -128 150 1 0 0 0 1 0 0 0 1 98283.dat
0 STEP
1 72 180 -128 80 0 0 1 0 1 0 -1 0 0 32064b.dat
1 330 180 -128 40 0 0 1 0 1 0 -1 0 0 98283.dat
1 72 180 -128 120 0 0 1 0 1 0 -1 0 0 98283.dat
0 STEP
1 71 180 -136 150 -1 0 0 0 1 0 0 0 -1 14719.dat
1 71 90 -136 150 -1 0 0 0 1 0 0 0 -1 6636.dat
0 STEP
1 72 180 -128 10 1 0 0 0 1 0 0 0 1 2453b.dat
0 STEP
1 71 180 -136 60 0 0 1 0 1 0 -1 0 0 6636.dat
0 STEP
1 70 110 -94 132 1 0 0 0 0 -1 0 1 0 3710.dat
0 STEP
1 71 80 -94 124 1 0 0 0 0 -1 0 1 0 15712.dat
1 71 100 -94 124 1 0 0 0 0 -1 0 1 0 15712.dat
1 71 120 -94 124 1 0 0 0 0 -1 0 1 0 15712.dat
1 71 140 -94 124 1 0 0 0 0 -1 0 1 0 15712.dat
0 STEP
1 70 140 -162 117.5 0.766044 0 -0.642788 0 1 0 0.642788 0 0.766044 4332.dat
1 0 100 -110 117.5 0 0 1 0 1 0 -1 0 0 4522.dat
0 STEP
1 70 160 -40 10 0 0 1 0 1 0 -1 0 0 3062b.dat
1 70 140 -40 10 0 0 1 0 1 0 -1 0 0 3062b.dat
1 70 140 -40 70 0 0 1 0 1 0 -1 0 0 3062b.dat
1 70 160 -40 70 0 0 1 0 1 0 -1 0 0 3062b.dat
0 STEP
1 70 160 -64 40 0 0 1 0 1 0 -1 0 0 3010.dat
1 70 140 -64 40 0 0 1 0 1 0 -1 0 0 30414.dat
0 STEP
1 70 150 -72 40 0 0 1 0 1 0 -1 0 0 3020.dat
0 STEP
1 70 122 -54 20 0 1 0 0 0 -1 -1 0 0 15573.dat
1 70 122 -54 60 0 1 0 0 0 -1 -1 0 0 15573.dat
0 STEP
1 87 114 -54 20 0 1 0 0 0 -1 -1 0 0 6141.dat
1 87 114 -54 60 0 1 0 0 0 -1 -1 0 0 6141.dat
0 STEP
1 72 160 -80 10 0 0 1 0 1 0 -1 0 0 3024.dat
0 STEP
1 320 160 -104 10 0 0 1 0 1 0 -1 0 0 87087.dat
0 STEP
1 320 160 -112 10 0 0 1 0 1 0 -1 0 0 85861.dat
1 70 142 -94 10 0 1 0 0 0 -1 -1 0 0 98138pr0430.dat
0 STEP
1 320 140 -80 50 0 0 1 0 1 0 -1 0 0 15712.dat
1 43 160 -109 10 0 0 1 0 1 0 -1 0 0 58176.dat
0 STEP
1 0 170 -118 80 -1 0 0 0 -1 0 0 0 1 32062.dat
0 STEP
1 71 160 -118 80 0 0 -1 -1 0 0 0 1 0 94925.dat
0 STEP
1 70 50 -24 20 0 0 1 0 1 0 -1 0 0 18674.dat
0 STEP
1 0 50 -32 20 0 0 1 0 1 0 -1 0 0 6141.dat
1 0 50 -40 20 0 0 1 0 1 0 -1 0 0 6141.dat
0 STEP
1 70 50 -48 20 0 0 1 0 1 0 -1 0 0 4032a.dat
0 STEP
1 46 60 -72 30 0 0 1 0 1 0 -1 0 0 3062b.dat
1 0 60 -96 30 -1 0 0 0 1 0 0 0 -1 37776.dat
0 STEP
1 70 40 -24 130 1 0 0 0 1 0 0 0 1 6141.dat
1 70 60 -24 130 1 0 0 0 1 0 0 0 1 6141.dat
0 STEP
1 70 50 -48 130 1 0 0 0 1 0 0 0 1 11211.dat
0 STEP
1 70 50 -38 112 1 0 0 0 0 -1 0 1 0 15573.dat
0 STEP
1 87 50 -38 104 1 0 0 0 0 -1 0 1 0 6141.dat
0 STEP
1 70 50 -56 130 1 0 0 0 1 0 0 0 1 15573.dat
0 STEP
1 47 50 -80 130 1 0 0 0 1 0 0 0 1 3062b.dat
1 19 50 -88 130 1 0 0 0 1 0 0 0 1 98138.dat
