0 Converted
0 Author: Dominic Davis-Foster
0 Converted with https://mb-converter.netlify.app made by The_An0nym using the conversion files from Mecabricks.
1 15 60 -8 80 0 0 -1 0 1 0 1 0 0 3036.dat
0 STEP
1 15 140 -8 80 0 0 -1 0 1 0 1 0 0 3034.dat
0 STEP
1 15 80 -16 30 1 0 0 0 1 0 0 0 1 3460.dat
1 15 120 -16 10 1 0 0 0 1 0 0 0 1 3710.dat
0 STEP
1 15 130 -16 50 1 0 0 0 1 0 0 0 1 3623.dat
1 15 130 -16 70 1 0 0 0 1 0 0 0 1 63864.dat
0 STEP
1 15 110 -16 30 -1 0 0 0 1 0 0 0 -1 54200.dat
1 15 140 -16 30 -1 0 0 0 1 0 0 0 -1 85984.dat
0 STEP
1 15 130 -24 50 1 0 0 0 1 0 0 0 1 63864.dat
0 STEP
1 15 20 -16 50 1 0 0 0 1 0 0 0 1 35480.dat
1 15 60 -24 30 -1 0 0 0 1 0 0 0 -1 2431.dat
1 15 10 -16 30 0 0 -1 0 1 0 1 0 0 54200.dat
0 STEP
1 15 70 -16 50 1 0 0 0 1 0 0 0 1 14719.dat
1 15 50 -16 60 0 0 1 0 1 0 -1 0 0 3069b.dat
1 15 20 -16 70 1 0 0 0 1 0 0 0 1 3023.dat
0 STEP
1 15 10 -24 70 0 0 1 0 1 0 -1 0 0 14719.dat
1 15 10 -16 90 1 0 0 0 1 0 0 0 1 14719.dat
1 15 30 -16 120 0 0 -1 0 1 0 1 0 0 5091.dat
0 STEP
1 72 10 -32 150 1 0 0 0 1 0 0 0 1 13548.dat
1 15 70 -16 150 -1 0 0 0 1 0 0 0 -1 14719.dat
1 15 70 -16 110 -1 0 0 0 1 0 0 0 -1 14719.dat
1 15 50 -16 130 1 0 0 0 1 0 0 0 1 3024.dat
1 15 50 -16 90 1 0 0 0 1 0 0 0 1 3024.dat
0 STEP
1 15 110 -16 90 1 0 0 0 1 0 0 0 1 63864.dat
1 15 90 -16 110 1 0 0 0 1 0 0 0 1 3024.dat
1 15 130 -16 110 1 0 0 0 1 0 0 0 1 63864.dat
0 STEP
1 15 90 -16 130 1 0 0 0 1 0 0 0 1 14719.dat
1 15 110 -16 150 1 0 0 0 1 0 0 0 1 85861.dat
1 15 130 -16 130 1 0 0 0 1 0 0 0 1 14719.dat
0 STEP
1 15 10 -32 150 1 0 0 0 1 0 0 0 1 54200.dat
1 15 150 -8 150 0 0 1 0 1 0 -1 0 0 54200.dat
0 STEP
1 2 150 -16 90 1 0 0 0 1 0 0 0 1 24866.dat
1 15 90 -16 70 1 0 0 0 1 0 0 0 1 85861.dat
1 15 50 -16 130 1 0 0 0 1 0 0 0 1 3024.dat
0 STEP
1 2 150 -33 90 0 0 1 0 1 0 -1 0 0 24855.dat
1 2 30 -34 50 0 0 1 0 1 0 -1 0 0 24855.dat
1 70 110 -16 150 -1 0 0 0 1 0 0 0 -1 68211.dat
1 70 90 -16 70 0.5 0 -0.866025 0 1 0 0.866025 0 0.5 68211.dat
0 STEP
1 70 40 -16 10 1 0 0 0 1 0 0 0 1 3710.dat
1 15 140 -24 10 1 0 0 0 1 0 0 0 1 3023.dat
0 STEP
1 70 60 -24 10 1 0 0 0 1 0 0 0 1 3666.dat
0 STEP
1 70 40 -48 10 1 0 0 0 1 0 0 0 1 30137.dat
1 70 100 -48 10 1 0 0 0 1 0 0 0 1 30136.dat
1 15 140 -48 10 1 0 0 0 1 0 0 0 1 30136.dat
0 STEP
1 70 140 -72 10 1 0 0 0 1 0 0 0 1 30136.dat
1 6 20 -72 10 1 0 0 0 1 0 0 0 1 30136.dat
1 70 80 -72 10 1 0 0 0 1 0 0 0 1 30137.dat
0 STEP
1 6 100 -96 10 1 0 0 0 1 0 0 0 1 30136.dat
1 70 140 -96 10 1 0 0 0 1 0 0 0 1 30136.dat
1 70 40 -96 10 1 0 0 0 1 0 0 0 1 30137.dat
0 STEP
1 6 20 -120 10 1 0 0 0 1 0 0 0 1 30136.dat
1 70 100 -120 10 1 0 0 0 1 0 0 0 1 30136.dat
1 70 60 -120 10 1 0 0 0 1 0 0 0 1 30136.dat
1 70 140 -120 10 1 0 0 0 1 0 0 0 1 30136.dat
0 STEP
1 15 110 -128 10 -1 0 0 0 1 0 0 0 -1 15070.dat
1 15 30 -128 10 -1 0 0 0 1 0 0 0 -1 15070.dat
1 15 140 -128 10 1 0 0 0 1 0 0 0 1 3023.dat
1 15 10 -128 10 1 0 0 0 1 0 0 0 1 3024.dat
1 15 70 -128 10 1 0 0 0 1 0 0 0 1 3623.dat
0 STEP
1 15 80 -136 10 1 0 0 0 1 0 0 0 1 4162.dat
